<?xml version="1.0" standalone="no"?>
<!DOCTYPE svg PUBLIC "-//W3C//DTD SVG 20010904//EN"
 "http://www.w3.org/TR/2001/REC-SVG-20010904/DTD/svg10.dtd">
<svg version="1.0" xmlns="http://www.w3.org/2000/svg"
 width="151.000000pt" height="124.000000pt" viewBox="0 0 151.000000 124.000000"
 preserveAspectRatio="xMidYMid meet">
<metadata>
Created by potrace 1.16, written by Peter Selinger 2001-2019
</metadata>
<g transform="translate(0.000000,124.000000) scale(0.100000,-0.100000)"
fill="#000000" stroke="none">
<path d="M570 730 l0 -280 53 -1 c72 -1 129 -8 142 -19 6 -5 18 -3 29 6 13 9
46 14 98 14 l78 0 0 280 0 280 -200 0 -200 0 0 -280z m127 255 c-8 -8 -25 -30
-37 -50 -12 -19 -25 -35 -30 -35 -4 0 -2 -17 6 -37 7 -21 13 -57 14 -80 0 -37
2 -41 23 -39 13 1 27 5 32 8 6 2 26 4 47 3 24 -1 35 2 31 11 -2 7 8 13 26 16
22 3 31 0 31 -9 0 -8 -4 -11 -10 -8 -5 3 -15 3 -22 -1 -7 -5 4 -12 28 -19 35
-10 31 -11 -43 -7 -59 3 -89 0 -111 -11 -22 -10 -33 -12 -41 -4 -8 8 -11 8
-11 0 0 -7 5 -15 10 -18 14 -9 13 -175 -1 -175 -6 0 -9 -10 -7 -22 2 -17 14
-25 48 -34 l45 -13 -70 2 -70 2 -3 268 -2 267 66 0 c58 0 64 -2 51 -15z m263
-77 c0 -72 -3 -89 -12 -80 -7 7 -16 12 -21 12 -5 0 0 -8 12 -17 21 -17 22 -25
19 -188 l-3 -170 -65 -2 -65 -2 40 12 c40 13 55 37 38 60 -14 18 -16 154 -4
162 14 8 14 55 1 55 -12 0 -14 63 -2 74 12 12 8 67 -4 62 -7 -3 -10 3 -7 13 2
9 -2 36 -10 59 l-15 42 49 0 49 0 0 -92z"/>
<path d="M70 230 l0 -40 701 0 700 0 -3 38 -3 37 -272 3 -273 2 0 -27 c0 -26
1 -26 14 -7 14 18 15 18 22 1 8 -21 1 -30 -26 -32 -16 -1 -20 5 -20 32 l0 33
-420 0 -420 0 0 -40z"/>
</g>
</svg>
