<?xml version="1.0" standalone="no"?>
<!DOCTYPE svg PUBLIC "-//W3C//DTD SVG 20010904//EN"
 "http://www.w3.org/TR/2001/REC-SVG-20010904/DTD/svg10.dtd">
<svg version="1.0" xmlns="http://www.w3.org/2000/svg"
 width="195.000000pt" height="195.000000pt" viewBox="0 0 195.000000 195.000000"
 preserveAspectRatio="xMidYMid meet">

<g transform="translate(0.000000,195.000000) scale(0.100000,-0.100000)"
fill="#000000" stroke="none">
<path d="M1045 1579 c-159 -88 -219 -134 -286 -217 -103 -127 -133 -212 -109
-301 23 -87 95 -131 212 -131 50 0 61 4 88 30 32 31 52 41 30 15 -7 -8 -8 -15
-3 -15 10 0 68 51 74 66 8 19 89 75 99 69 7 -4 14 2 17 14 3 11 13 23 22 26 9
3 31 19 49 35 32 31 42 48 20 33 -7 -4 -46 -29 -86 -55 -40 -27 -78 -48 -86
-48 -7 0 -39 -17 -72 -38 -97 -62 -200 -90 -229 -61 -20 20 -7 100 26 168 53
109 262 299 344 313 16 2 19 -2 17 -23 -3 -26 -1 -27 60 -31 35 -3 64 -4 66
-3 2 2 6 28 9 60 l6 56 -49 50 c-64 65 -81 65 -219 -12z"/>
<path d="M1187 843 c-4 -3 -7 -16 -7 -28 0 -18 -5 -21 -30 -17 -41 6 -60 -13
-60 -59 0 -45 16 -57 78 -56 l42 0 0 83 c0 77 -5 95 -23 77z m-12 -103 c0 -38
-24 -52 -50 -30 -31 25 -9 73 30 68 16 -2 20 -11 20 -38z"/>
<path d="M590 759 c0 -60 3 -80 13 -76 6 2 12 13 11 24 0 16 8 22 34 27 43 7
62 22 62 52 0 35 -26 54 -76 54 l-44 0 0 -81z m90 46 c20 -24 4 -45 -33 -45
-35 0 -34 -2 -28 53 2 13 48 7 61 -8z"/>
<path d="M1040 830 c0 -5 5 -10 10 -10 6 0 10 5 10 10 0 6 -4 10 -10 10 -5 0
-10 -4 -10 -10z"/>
<path d="M949 813 c-3 -29 2 -97 7 -115 6 -19 54 -26 54 -8 0 6 -7 10 -15 10
-11 0 -15 11 -15 40 0 29 4 40 15 40 8 0 15 5 15 10 0 6 -7 10 -15 10 -8 0
-15 7 -15 15 0 21 -30 19 -31 -2z"/>
<path d="M740 790 c0 -5 11 -10 24 -10 13 0 29 -7 36 -15 11 -13 7 -15 -23
-15 -41 0 -66 -23 -50 -48 7 -11 26 -18 57 -19 l46 -2 0 40 c0 59 -14 79 -55
79 -19 0 -35 -4 -35 -10z m63 -56 c12 -12 -6 -34 -29 -34 -23 0 -32 18 -17 33
8 9 38 9 46 1z"/>
<path d="M860 740 c0 -33 4 -60 10 -60 6 0 10 16 10 35 0 22 8 41 22 55 24 22
18 41 -7 20 -10 -8 -15 -9 -15 -1 0 6 -4 11 -10 11 -6 0 -10 -27 -10 -60z"/>
<path d="M1040 740 c0 -33 4 -60 10 -60 6 0 10 27 10 60 0 33 -4 60 -10 60 -6
0 -10 -27 -10 -60z"/>
<path d="M1246 778 c-21 -30 -20 -54 4 -78 41 -41 103 -16 103 40 0 58 -75 84
-107 38z m78 -20 c8 -13 8 -23 0 -35 -28 -45 -89 -9 -64 38 13 24 48 22 64 -3z"/>
<path d="M1540 649 c0 -35 -2 -40 -17 -34 -44 18 -64 17 -89 -5 -35 -34 -34
-101 2 -129 32 -25 52 -26 82 -5 12 8 22 10 22 5 0 -6 7 -11 15 -11 12 0 15
19 15 110 0 91 -3 110 -15 110 -11 0 -15 -11 -15 -41z m-18 -66 c22 -20 23
-42 2 -71 -18 -26 -41 -28 -66 -5 -22 20 -23 56 -2 77 20 21 43 20 66 -1z"/>
<path d="M101 664 c-51 -36 -61 -119 -19 -164 39 -42 119 -50 148 -15 20 24 2
35 -31 18 -25 -12 -35 -13 -60 -3 -52 22 -65 77 -28 124 22 28 75 36 97 14 9
-9 15 -9 25 1 34 34 -86 57 -132 25z"/>
<path d="M295 607 c-32 -27 -37 -87 -10 -117 39 -44 117 -32 139 21 17 40 10
75 -22 99 -33 26 -75 25 -107 -3z m89 -23 c32 -32 10 -94 -34 -94 -41 0 -68
68 -38 98 17 17 54 15 72 -4z"/>
<path d="M469 628 c0 -2 -1 -37 -2 -78 -1 -64 1 -75 16 -78 14 -3 17 5 17 50
0 56 12 78 41 78 25 0 29 -11 31 -74 2 -46 5 -56 20 -56 15 0 18 9 18 58 0 87
-34 122 -91 92 -13 -7 -19 -7 -19 0 0 8 -28 15 -31 8z"/>
<path d="M656 614 c-32 -32 -18 -63 38 -81 17 -5 32 -15 34 -21 6 -18 -28 -27
-59 -15 -22 8 -29 8 -33 -3 -3 -9 8 -17 34 -25 33 -10 43 -9 65 5 39 25 30 56
-22 81 -54 25 -57 48 -6 43 41 -3 57 16 21 26 -37 9 -56 7 -72 -10z"/>
<path d="M805 605 c-41 -40 -33 -105 17 -131 43 -23 111 -4 93 26 -4 6 -12 6
-24 -2 -22 -13 -67 -4 -75 17 -4 12 5 15 54 15 60 0 60 0 60 29 0 35 -40 71
-77 71 -13 0 -35 -11 -48 -25z m83 -17 c21 -21 13 -28 -33 -28 -43 0 -45 1
-35 20 12 22 49 27 68 8z"/>
<path d="M967 623 c-4 -3 -7 -39 -7 -80 0 -66 2 -73 19 -73 17 0 20 8 23 53 2
43 7 54 26 62 12 5 22 18 22 27 0 22 -8 23 -32 1 -17 -15 -18 -15 -18 0 0 17
-21 23 -33 10z"/>
<path d="M1070 622 c0 -5 13 -40 28 -78 40 -97 59 -97 95 -2 31 83 32 88 13
88 -7 0 -23 -27 -35 -60 -12 -33 -23 -60 -25 -60 -2 0 -13 27 -25 60 -13 36
-28 60 -37 60 -7 0 -14 -4 -14 -8z"/>
<path d="M1263 623 c-7 -2 -13 -10 -13 -17 0 -8 15 -12 42 -12 33 1 43 -3 46
-16 3 -15 -4 -18 -36 -18 -26 0 -45 -6 -56 -19 -35 -38 9 -90 62 -75 15 4 38
6 51 5 23 -3 23 -1 19 64 -3 51 -9 71 -23 81 -18 14 -67 17 -92 7z m80 -89
c13 -13 -14 -44 -38 -44 -27 0 -39 14 -31 35 5 15 57 21 69 9z"/>
<path d="M1644 619 c-24 -12 -44 -49 -44 -79 0 -28 41 -69 76 -76 69 -13 122
80 77 135 -21 25 -78 35 -109 20z m80 -41 c21 -29 20 -41 -2 -68 -41 -50 -112
12 -77 66 20 31 59 31 79 2z"/>
<path d="M1800 550 c0 -64 3 -80 15 -80 10 0 15 10 15 29 0 44 18 82 40 88 11
3 20 14 20 24 0 23 -13 24 -34 4 -8 -8 -17 -15 -20 -15 -3 0 -6 7 -6 15 0 8
-7 15 -15 15 -12 0 -15 -16 -15 -80z"/>
<path d="M1489 381 c-17 -17 -27 -36 -24 -42 5 -7 12 -2 19 12 6 13 22 29 35
35 14 7 19 14 12 19 -6 3 -25 -7 -42 -24z"/>
</g>
</svg>
