<?xml version="1.0" standalone="no"?>
<!DOCTYPE svg PUBLIC "-//W3C//DTD SVG 20010904//EN"
 "http://www.w3.org/TR/2001/REC-SVG-20010904/DTD/svg10.dtd">
<svg version="1.0" xmlns="http://www.w3.org/2000/svg"
 width="459.000000pt" height="560.000000pt" viewBox="0 0 459.000000 560.000000"
 preserveAspectRatio="xMidYMid meet">

<g transform="translate(0.000000,560.000000) scale(0.100000,-0.100000)"
fill="#000000" stroke="none">
<path d="M3775 4301 c3 -5 1 -12 -5 -16 -5 -3 -10 -12 -10 -18 0 -7 5 -5 10 5
7 11 17 14 32 10 21 -5 22 -4 9 11 -14 18 -47 24 -36 8z"/>
<path d="M3765 4254 c-11 -8 -20 -18 -20 -22 -1 -4 -6 -17 -13 -29 -9 -17 -9
-22 3 -27 8 -3 17 -1 20 4 3 4 0 10 -6 12 -7 2 -6 8 3 16 12 9 14 8 13 -6 0
-9 -4 -23 -9 -30 -4 -6 -4 -12 1 -12 13 1 64 91 59 104 -2 6 -5 3 -5 -6 -1 -9
-6 -20 -12 -24 -8 -4 -9 0 -4 15 7 25 -2 26 -30 5z"/>
<path d="M1736 4194 c-3 -9 -6 -169 -5 -357 0 -188 3 -336 6 -329 2 6 9 10 14
6 5 -3 9 1 9 8 0 10 3 9 10 -2 7 -11 2 -17 -18 -26 -23 -10 -24 -13 -10 -19 9
-4 25 -5 35 -3 16 3 18 15 18 111 l0 107 33 6 c18 4 37 14 42 23 5 9 10 12 10
6 0 -5 7 1 16 13 8 12 12 27 9 32 -3 6 -1 10 6 10 7 0 9 3 6 7 -4 3 -2 12 4
19 12 15 17 229 6 283 -3 18 -11 39 -17 45 -5 7 -6 17 -2 21 4 5 1 5 -5 1 -8
-4 -13 -1 -13 8 0 20 -17 29 -26 15 -5 -8 -3 -9 5 -4 7 4 5 -4 -4 -19 -16 -24
-34 -39 -20 -15 4 5 8 21 10 35 2 20 -1 23 -16 19 -11 -4 -19 -2 -19 3 0 17
-78 12 -84 -4z m72 -20 c25 -7 30 -21 7 -21 -8 0 -15 4 -15 8 0 4 -8 10 -17
12 -10 3 -13 5 -8 6 6 0 20 -2 33 -5z m30 -53 c12 -11 22 -27 22 -35 0 -9 7
-19 15 -22 9 -4 15 -18 14 -38 l-1 -31 -8 30 c-5 20 -8 0 -8 -65 0 -52 -3
-108 -7 -125 -9 -35 -32 -65 -52 -65 -7 0 -16 -6 -19 -14 -3 -8 -12 -17 -19
-20 -12 -4 -12 0 -3 19 6 14 16 25 22 25 6 0 4 5 -4 10 -10 6 -11 10 -2 10 9
0 12 39 12 160 0 90 -4 160 -9 160 -5 0 -11 -5 -13 -12 -3 -9 -6 -9 -12 0 -4
8 1 16 16 21 31 13 30 13 56 -8z m75 -42 c-4 -15 -8 -17 -14 -8 -6 11 4 28 18
29 0 0 -1 -9 -4 -21z m-133 -54 c0 -14 -4 -25 -10 -25 -5 0 -9 11 -8 25 1 14
6 25 10 25 4 0 8 -11 8 -25z m147 -7 c-3 -8 -6 -5 -6 6 -1 11 2 17 5 13 3 -3
4 -12 1 -19z m0 -55 c-3 -10 -5 -4 -5 12 0 17 2 24 5 18 2 -7 2 -21 0 -30z
m-24 -110 c-9 -21 -19 -42 -21 -48 -3 -5 5 -1 18 10 l23 20 -14 -22 c-8 -13
-18 -23 -22 -23 -5 0 -6 -8 -3 -17 5 -15 4 -15 -9 1 -13 18 -15 18 -15 3 0
-10 6 -20 14 -23 12 -5 12 -8 -2 -23 -14 -14 -23 -15 -46 -8 -29 10 -29 11 -8
18 13 5 25 17 29 26 3 10 14 30 24 44 10 15 16 36 13 50 -4 21 -3 22 5 4 5
-11 10 -15 10 -8 1 6 4 19 8 29 4 12 3 15 -5 10 -8 -5 -10 -2 -5 10 5 15 7 15
15 0 5 -10 3 -29 -9 -53z m-132 -36 c-10 -9 -11 -8 -5 6 3 10 9 15 12 12 3 -3
0 -11 -7 -18z m39 -107 c0 -5 -7 -7 -15 -4 -8 4 -15 8 -15 10 0 2 7 4 15 4 8
0 15 -4 15 -10z m-32 -25 c-3 -3 -9 2 -12 12 -6 14 -5 15 5 6 7 -7 10 -15 7
-18z"/>
<path d="M1840 3745 c-10 -12 -10 -15 3 -15 19 0 31 16 18 24 -5 3 -14 -1 -21
-9z"/>
<path d="M1175 4086 c-25 -288 68 -546 225 -626 83 -42 187 -44 276 -4 l39 17
-75 9 c-41 5 -99 18 -130 29 -30 11 -74 20 -98 19 -62 -1 -105 43 -122 125 -6
33 -22 94 -36 137 -25 81 -53 237 -55 303 -1 86 -16 81 -24 -9z"/>
<path d="M3710 4151 c0 -10 6 -24 14 -30 20 -17 40 17 21 36 -19 19 -35 16
-35 -6z m26 -16 c1 -8 -2 -13 -7 -9 -5 3 -9 12 -9 21 0 19 13 9 16 -12z"/>
<path d="M2060 4062 c0 -5 6 -17 14 -28 11 -14 17 -16 27 -7 12 12 39 7 39 -9
0 -5 -8 -7 -18 -4 -13 4 -18 0 -19 -14 -1 -11 2 -20 7 -20 5 0 17 -3 27 -7 16
-6 16 -5 4 10 -7 9 -9 17 -5 17 5 0 15 -9 21 -19 11 -18 10 -19 -20 -16 -18 2
-27 1 -22 -1 7 -3 9 -30 7 -69 -3 -49 -1 -65 10 -65 10 0 10 -2 -2 -9 -8 -6
-27 -7 -44 -4 -21 4 -27 3 -22 -5 4 -7 2 -12 -3 -12 -6 0 -11 5 -11 10 0 6 -4
10 -10 10 -5 0 -7 -6 -4 -14 7 -18 84 -26 84 -9 0 7 5 13 11 13 6 0 9 -6 6
-14 -3 -8 -1 -17 6 -19 7 -2 4 -3 -5 -2 -9 2 -19 -2 -22 -9 -3 -7 -5 -7 -5 2
-1 7 -15 12 -35 12 -26 0 -35 -5 -39 -21 -3 -13 -1 -19 6 -16 7 3 11 10 10 16
-2 6 2 11 7 11 6 0 10 -4 10 -10 0 -5 24 -10 53 -10 l53 0 2 93 c2 64 0 87 -7
77 -6 -8 -8 -23 -5 -34 4 -13 2 -16 -6 -11 -6 4 -10 18 -7 31 3 16 0 24 -9 24
-8 0 -14 5 -14 11 0 5 10 9 23 7 19 -3 22 1 20 27 -1 16 -7 31 -13 33 -5 2 -7
8 -4 14 3 5 -4 17 -17 26 -25 18 -79 27 -79 14z m64 -11 c3 -4 -4 -7 -14 -6
-27 2 -33 10 -10 12 11 1 22 -2 24 -6z m46 -240 c0 -6 -4 -13 -10 -16 -5 -3
-10 1 -10 9 0 9 5 16 10 16 6 0 10 -4 10 -9z"/>
<path d="M2339 4060 c-12 -8 26 -50 45 -50 6 0 5 4 -3 9 -9 6 -10 11 -2 15 6
4 11 4 12 -1 0 -4 2 -18 3 -30 1 -12 -2 -21 -8 -20 -16 3 -34 21 -29 30 6 11
-11 9 -23 -3 -7 -7 -11 -6 -11 4 0 8 5 12 10 9 6 -4 7 -1 2 6 -5 9 -12 7 -27
-8 -10 -12 -22 -19 -27 -17 -4 3 -5 -12 -3 -32 6 -47 -3 -39 -11 11 -5 33 -3
37 16 38 12 0 16 3 9 6 -9 3 -10 9 -2 18 8 10 4 13 -15 13 -14 0 -25 -4 -25
-9 0 -5 5 -9 11 -9 8 0 8 -4 1 -12 -11 -14 -17 -513 -6 -541 3 -10 17 -17 31
-17 l24 0 -2 246 c-1 209 1 248 14 261 14 14 17 14 37 0 12 -8 17 -17 12 -21
-12 -7 -14 -76 -2 -77 28 -5 35 -3 36 11 0 8 4 31 8 51 11 52 -5 104 -32 103
-15 0 -19 3 -12 11 11 13 -11 17 -31 5z m-42 -82 c-3 -8 -6 -5 -6 6 -1 11 2
17 5 13 3 -3 4 -12 1 -19z m97 -33 c-4 -8 -11 -15 -16 -15 -6 0 -5 6 2 15 7 8
14 15 16 15 2 0 1 -7 -2 -15z m-112 -40 c-2 -14 -6 -25 -8 -25 -2 0 -4 11 -4
25 0 14 4 25 9 25 4 0 6 -11 3 -25z m113 5 c-3 -5 -11 -10 -16 -10 -6 0 -7 5
-4 10 3 6 11 10 16 10 6 0 7 -4 4 -10z m-95 -400 c0 -5 -5 -10 -11 -10 -5 0
-7 5 -4 10 3 6 8 10 11 10 2 0 4 -4 4 -10z"/>
<path d="M2510 4062 c-6 -2 -8 -8 -5 -13 4 -5 0 -6 -8 -3 -9 3 -17 -4 -22 -18
-4 -13 -9 -27 -10 -33 -2 -5 -7 -25 -11 -44 -6 -28 -5 -33 7 -26 12 7 12 6 1
-7 -7 -8 -10 -22 -8 -29 2 -8 7 -27 10 -42 4 -15 11 -25 16 -22 6 4 7 11 4 17
-4 6 -2 8 4 4 6 -3 15 2 21 11 6 10 11 13 11 8 0 -6 -5 -16 -12 -23 -9 -9 -6
-12 15 -12 l27 0 -20 33 c-11 17 -20 42 -20 53 0 13 -8 24 -20 27 -11 3 -20
11 -20 18 0 10 3 10 12 1 15 -15 29 -16 26 -1 -2 6 7 17 18 25 19 13 24 13 38
-2 10 -9 15 -23 12 -30 -3 -7 -1 -16 3 -18 5 -3 6 -16 4 -30 -6 -28 12 -43 32
-26 18 15 20 34 3 24 -10 -6 -10 -5 -1 7 6 8 10 33 9 56 -4 69 -58 114 -116
95z m72 -29 c22 -26 33 -47 20 -39 -5 3 -13 0 -16 -6 -3 -7 -4 -4 -1 8 4 16 1
20 -17 20 -13 -1 -26 -5 -30 -11 -4 -6 -8 -2 -8 8 0 14 5 16 25 11 31 -8 33 3
3 16 -15 6 -17 9 -7 9 9 1 23 -7 31 -16z m-66 -28 c1 -8 -2 -13 -7 -9 -5 3 -9
12 -9 21 0 19 13 9 16 -12z m99 -65 c3 -5 1 -10 -4 -10 -6 0 -11 5 -11 10 0 6
2 10 4 10 3 0 8 -4 11 -10z m-18 -42 c-3 -8 -6 -5 -6 6 -1 11 2 17 5 13 3 -3
4 -12 1 -19z m-115 -2 c7 4 8 2 4 -5 -9 -13 -26 -5 -25 12 0 9 2 8 6 -1 2 -6
10 -9 15 -6z"/>
<path d="M2751 4061 c-7 -5 -11 -14 -7 -20 4 -7 1 -9 -8 -5 -8 3 -19 -3 -25
-15 -14 -25 -14 -31 0 -31 5 0 7 5 4 10 -3 6 -2 10 2 10 5 0 14 -10 22 -22 9
-17 10 -20 1 -11 -9 8 -19 9 -32 2 -21 -12 -24 -39 -4 -39 8 0 17 -4 20 -9 4
-5 -3 -7 -14 -4 -28 7 -32 -21 -26 -173 6 -191 14 -225 49 -223 16 1 17 3 5 6
-12 3 -15 12 -12 31 3 18 2 23 -5 13 -5 -8 -11 -9 -15 -3 -7 12 17 23 30 14 5
-4 9 -14 9 -22 -1 -8 3 -21 8 -27 9 -13 6 -15 -33 -25 -11 -4 -8 -11 14 -31
35 -33 68 -34 90 -4 9 12 14 16 11 10 -3 -7 -4 -13 -1 -13 11 0 37 62 32 75
-3 8 0 15 7 18 9 3 12 51 12 176 0 140 -3 173 -15 181 -9 6 -17 5 -22 -3 -5
-8 -8 -7 -8 4 0 20 27 33 34 16 3 -7 5 -3 3 8 -1 11 -9 20 -17 21 -43 3 -44 4
-24 20 14 12 15 14 3 11 -9 -3 -21 -1 -27 5 -9 9 -7 -27 5 -62 9 -29 2 -350
-9 -380 -13 -39 -39 -36 -49 4 -5 16 -9 104 -9 195 -1 92 -6 171 -12 178 -5 6
-17 9 -26 6 -14 -5 -15 -3 -5 7 10 10 15 11 27 1 18 -15 27 4 15 37 -5 12 -5
22 1 22 4 0 11 -8 14 -17 3 -10 4 -1 1 19 -4 37 -3 37 19 23 22 -15 56 -12 56
5 0 4 -7 11 -16 14 -24 9 -31 7 -14 -4 13 -8 13 -10 -2 -10 -9 0 -20 5 -23 10
-8 12 -16 12 -34 1z m116 -163 c-3 -8 -6 -5 -6 6 -1 11 2 17 5 13 3 -3 4 -12
1 -19z m-150 -30 c-3 -8 -6 -5 -6 6 -1 11 2 17 5 13 3 -3 4 -12 1 -19z m130
-20 c-3 -7 -5 -2 -5 12 0 14 2 19 5 13 2 -7 2 -19 0 -25z m20 -60 c-2 -18 -4
-4 -4 32 0 36 2 50 4 33 2 -18 2 -48 0 -65z m-170 30 c-3 -8 -6 -5 -6 6 -1 11
2 17 5 13 3 -3 4 -12 1 -19z m40 -100 c-2 -24 -4 -5 -4 42 0 47 2 66 4 43 2
-24 2 -62 0 -85z m-40 -5 c-3 -10 -5 -2 -5 17 0 19 2 27 5 18 2 -10 2 -26 0
-35z m23 -91 c0 -3 -7 3 -15 14 -8 10 -14 26 -15 34 0 8 7 2 15 -14 8 -15 15
-31 15 -34z m142 -30 c8 -9 7 -11 -5 -6 -12 4 -15 0 -11 -24 4 -23 -1 -36 -17
-51 -13 -12 -27 -21 -31 -21 -5 0 -7 -4 -4 -8 2 -4 -3 -8 -13 -8 -9 0 -18 8
-18 18 -1 10 3 18 8 18 6 0 7 5 3 11 -4 8 0 9 15 4 19 -6 26 2 22 27 0 4 5 5
13 2 8 -3 13 2 13 13 0 10 1 32 3 48 2 22 4 25 7 10 3 -11 10 -26 15 -33z"/>
<path d="M2793 3510 c-13 -5 -23 -12 -23 -15 0 -9 16 -5 36 10 22 16 19 18
-13 5z"/>
<path d="M3049 4046 c-13 -14 -25 -30 -25 -35 -1 -6 -2 -16 -3 -22 0 -5 -6 -7
-11 -4 -6 4 -8 11 -4 16 3 5 0 16 -6 24 -9 11 -9 15 -1 15 6 0 11 5 11 11 0 6
-12 9 -27 7 l-28 -3 -3 -273 c-2 -218 0 -272 10 -266 9 5 8 2 -1 -10 -9 -11
-11 -20 -4 -27 23 -23 34 65 31 259 -2 123 1 192 7 192 6 0 5 3 -1 8 -6 4 -16
16 -22 28 -9 17 -8 21 4 21 8 0 13 -6 10 -12 -2 -7 0 -17 5 -22 14 -14 13
-410 0 -446 -14 -36 -14 -36 8 -30 18 5 19 18 20 243 0 131 3 245 7 253 8 21
41 28 55 11 7 -8 21 -13 33 -12 24 3 35 -27 16 -46 -9 -8 -10 -4 -5 19 l6 30
-16 -30 c-12 -23 -14 -25 -11 -7 2 12 0 22 -5 22 -6 0 -8 -99 -7 -242 l3 -243
33 -3 32 -3 0 255 c-1 160 -5 258 -11 262 -6 3 -8 12 -5 19 7 19 -31 65 -54
65 -10 0 -28 -11 -41 -24z m46 -3 c-19 -19 -11 -31 9 -14 17 15 26 3 16 -23
-4 -14 -9 -16 -14 -8 -4 7 -12 12 -17 12 -6 0 -7 -5 -3 -12 4 -7 3 -8 -5 -4
-6 4 -9 12 -6 17 8 13 -9 11 -22 -2 -8 -8 -13 -8 -18 0 -4 7 -1 10 7 9 7 -2
12 3 10 11 -2 9 3 11 14 7 11 -4 15 -2 11 7 -3 8 3 13 14 14 17 2 18 0 4 -14z
m-95 -33 c0 -5 -4 -10 -10 -10 -5 0 -10 5 -10 10 0 6 5 10 10 10 6 0 10 -4 10
-10z m127 -162 c-2 -13 -4 -5 -4 17 -1 22 1 32 4 23 2 -10 2 -28 0 -40z m-15
-215 c2 -72 0 -126 -4 -120 -4 7 -7 84 -6 172 2 176 6 153 10 -52z"/>
<path d="M3279 4051 c-19 -15 -20 -18 -6 -24 10 -4 16 -2 14 5 -1 7 7 13 18
15 l20 3 -20 -9 c-17 -8 -13 -10 23 -16 24 -4 42 -13 42 -20 0 -8 3 -15 8 -18
4 -2 1 -2 -5 -1 -10 3 -12 -22 -10 -98 1 -56 1 -94 -1 -85 -4 19 -62 25 -62 7
0 -5 -3 -10 -7 -10 -5 0 -8 31 -8 70 0 38 3 70 6 70 3 0 6 7 6 15 0 18 -13 20
-20 3 -3 -8 -6 -6 -6 5 -1 9 4 17 10 17 5 0 7 6 3 13 -6 9 -4 9 8 -1 11 -9 18
-10 23 -2 4 6 15 8 26 5 11 -4 19 -2 19 4 0 6 -6 11 -14 11 -8 0 -23 3 -33 6
-15 5 -15 4 -3 -5 20 -14 7 -14 -25 1 -22 10 -28 9 -36 -3 -15 -23 -10 -34 6
-13 15 19 15 19 8 -1 -3 -11 -11 -23 -17 -27 -13 -9 -18 -51 -22 -193 -3 -110
-2 -122 18 -150 15 -20 16 -25 5 -16 -15 12 -17 11 -17 -7 0 -11 4 -31 9 -44
5 -13 10 -27 11 -33 5 -24 23 -33 63 -29 44 4 42 0 -8 -11 -27 -7 -28 -8 -10
-15 30 -13 42 -12 59 6 9 8 16 13 16 9 0 -3 9 3 21 14 15 14 22 36 26 80 5 55
4 61 -13 61 -18 0 -33 -24 -49 -77 -4 -16 -2 -23 7 -23 7 0 0 -7 -16 -15 -20
-11 -32 -12 -41 -5 -9 8 -14 7 -18 -2 -2 -7 -8 -9 -13 -5 -5 4 -2 12 6 17 13
8 13 10 1 10 -8 0 -11 3 -8 6 4 4 14 1 24 -7 15 -13 16 -12 9 6 -17 43 -28
225 -13 225 4 0 7 -5 7 -11 0 -8 6 -7 17 2 11 10 14 10 9 2 -5 -10 5 -13 41
-13 l48 0 4 43 c9 81 3 178 -12 193 -3 3 -3 12 -1 19 3 7 -4 19 -15 27 -12 8
-18 18 -14 21 3 4 2 8 -3 8 -64 8 -74 7 -95 -10z m102 -22 c11 -5 17 -15 13
-20 -4 -6 -10 -5 -17 5 -7 8 -21 16 -32 19 -17 4 -17 5 -2 6 10 0 27 -4 38
-10z m7 -79 c-7 -10 -14 -17 -17 -15 -4 4 18 35 25 35 2 0 -1 -9 -8 -20z m13
-23 c-10 -9 -11 -8 -5 6 3 10 9 15 12 12 3 -3 0 -11 -7 -18z m-129 -71 c-7
-12 -20 21 -21 49 0 15 3 12 13 -10 7 -16 11 -34 8 -39z m-23 -55 c1 -61 -5
-48 -12 24 -3 36 -2 52 3 40 5 -11 9 -40 9 -64z m101 -6 c0 -8 -4 -15 -10 -15
-5 0 -7 7 -4 15 4 8 8 15 10 15 2 0 4 -7 4 -15z m-37 -12 c-7 -2 -19 -2 -25 0
-7 3 -2 5 12 5 14 0 19 -2 13 -5z m-43 -129 c0 -8 -5 -12 -10 -9 -6 4 -8 11
-5 16 9 14 15 11 15 -7z m134 -52 c-6 -4 -16 -16 -23 -27 l-11 -20 2 20 c3 21
16 35 33 35 6 0 6 -3 -1 -8z m-134 -36 c0 -3 -4 -8 -10 -11 -5 -3 -10 -1 -10
4 0 6 5 11 10 11 6 0 10 -2 10 -4z m124 -42 c3 -8 2 -12 -4 -9 -6 3 -10 10
-10 16 0 14 7 11 14 -7z"/>
<path d="M3571 4057 c-13 -16 -2 -67 15 -67 14 0 19 -39 14 -98 -1 -19 3 -23
21 -20 15 2 26 12 30 28 11 40 10 100 -2 100 -6 0 -8 8 -5 18 3 9 2 22 -2 29
-11 17 -59 24 -71 10z m32 -35 c-5 -14 -3 -15 8 -4 18 16 34 16 17 -1 -21 -21
-45 -17 -43 7 3 28 3 28 15 21 5 -3 6 -13 3 -23z m36 -80 c-1 -32 -6 -49 -15
-49 -9 0 -10 5 -3 18 5 10 9 31 9 48 0 17 2 31 5 31 3 0 5 -22 4 -48z"/>
<path d="M3883 4050 c-22 -13 -31 -25 -27 -35 3 -8 11 -12 17 -8 6 4 7 1 2 -7
-5 -8 -3 -11 6 -8 8 3 14 16 13 31 0 14 2 25 5 25 24 -2 41 4 36 12 -9 14 -15
13 -52 -10z"/>
<path d="M3955 4060 c3 -5 -6 -12 -20 -16 -22 -5 -24 -9 -13 -22 11 -14 10
-15 -7 -8 -11 4 -16 4 -12 0 7 -8 -10 -34 -24 -34 -4 0 -15 7 -24 16 -13 13
-16 14 -14 3 1 -8 -1 -26 -5 -41 -12 -40 0 -78 24 -78 22 0 39 22 22 28 -8 2
-8 9 -2 20 6 9 14 30 20 45 5 16 15 25 20 22 6 -3 15 4 20 17 8 19 9 20 8 3
-2 -11 1 -26 5 -32 15 -24 25 -13 22 25 -2 34 -2 35 5 7 4 -16 8 -24 9 -16 1
11 5 10 16 -5 15 -19 20 -8 9 20 -3 9 -11 13 -17 9 -6 -4 -8 0 -4 9 3 10 -3
19 -19 27 -14 6 -23 7 -19 1z m-78 -110 c-1 -10 -9 -21 -18 -23 -15 -4 -17 6
-10 45 3 16 30 -5 28 -22z"/>
<path d="M3850 3949 c0 -5 5 -7 10 -4 6 3 10 8 10 11 0 2 -4 4 -10 4 -5 0 -10
-5 -10 -11z"/>
<path d="M2029 4039 c-25 -45 -37 -91 -34 -127 2 -20 -1 -43 -7 -50 -10 -11
-6 -230 5 -272 2 -8 7 -30 11 -47 11 -47 23 -41 22 11 0 35 -3 43 -15 38 -14
-5 -14 -4 -2 12 11 13 16 14 22 4 5 -7 6 -21 3 -32 -4 -13 -2 -17 7 -14 8 3
12 14 10 24 -1 10 -3 40 -3 67 0 38 -3 47 -18 47 -10 0 -20 9 -23 20 -3 11 -1
20 4 20 5 0 9 -6 9 -13 0 -8 7 -14 15 -14 18 0 20 14 3 19 -7 3 -13 19 -14 37
-1 19 -7 37 -14 41 -8 5 -2 10 15 14 24 6 26 10 24 54 -1 27 1 53 5 60 4 7 4
16 1 22 -3 5 0 19 8 31 11 15 16 17 20 7 3 -7 6 -8 6 -3 0 6 -10 23 -23 39
l-24 29 -13 -24z m34 -19 c8 0 8 -3 -1 -12 -17 -17 -39 -18 -39 -2 0 11 4 11
14 2 12 -9 13 -7 10 13 -2 13 -2 18 0 12 3 -7 10 -13 16 -13z m-20 -73 c-3 -4
-11 -3 -19 4 -7 6 -11 15 -8 20 3 5 11 3 18 -4 8 -6 12 -16 9 -20z m-23 -12
c7 -9 8 -15 2 -15 -5 0 -12 7 -16 15 -3 8 -4 15 -2 15 2 0 9 -7 16 -15z m-5
-103 c-3 -3 -11 0 -18 8 -9 10 -9 11 1 6 8 -5 12 4 14 31 l1 38 4 -39 c3 -21
2 -41 -2 -44z m22 26 c-2 -13 -4 -5 -4 17 -1 22 1 32 4 23 2 -10 2 -28 0 -40z
m-17 -87 c0 -6 -4 -12 -8 -15 -5 -3 -9 1 -9 9 0 8 4 15 9 15 4 0 8 -4 8 -9z
m-16 -76 c3 -8 1 -15 -4 -15 -6 0 -10 7 -10 15 0 8 2 15 4 15 2 0 6 -7 10 -15z
m26 -40 c0 -8 -4 -15 -10 -15 -5 0 -10 7 -10 15 0 8 5 15 10 15 6 0 10 -7 10
-15z"/>
<path d="M3496 4051 c-7 -11 -7 -547 0 -564 3 -9 17 -17 30 -17 l24 0 0 229
c0 152 -4 232 -11 236 -7 5 -4 14 8 28 16 18 16 20 2 14 -12 -4 -18 1 -22 19
-2 13 -1 27 4 30 13 7 0 31 -17 31 -8 0 -16 -3 -18 -6z m27 -126 c4 -54 4 -61
-3 -30 -9 40 -13 112 -6 104 2 -2 6 -35 9 -74z m-6 -167 c-3 -8 -6 -5 -6 6 -1
11 2 17 5 13 3 -3 4 -12 1 -19z"/>
<path d="M3706 4053 c-4 -4 -6 -134 -6 -289 2 -246 4 -283 17 -288 22 -9 25
-3 13 28 -6 16 -9 108 -8 224 l2 197 6 -205 c5 -183 16 -271 32 -244 3 5 5
137 4 293 l-1 284 -26 4 c-14 2 -29 0 -33 -4z"/>
<path d="M2780 4008 c0 -12 3 -18 7 -14 11 10 12 36 2 36 -5 0 -9 -10 -9 -22z"/>
<path d="M2820 4019 c0 -5 5 -7 10 -4 17 11 32 -5 19 -21 -7 -9 -8 -14 -1 -14
16 0 23 16 16 34 -7 18 -44 22 -44 5z"/>
<path d="M3546 4005 c-3 -8 -1 -15 4 -15 6 0 10 7 10 15 0 8 -2 15 -4 15 -2 0
-6 -7 -10 -15z"/>
<path d="M3990 3977 c0 -10 -7 -17 -16 -17 -13 0 -15 -11 -12 -64 2 -42 -1
-67 -10 -75 -7 -7 -10 -16 -7 -22 8 -12 25 -12 25 2 0 5 -5 7 -12 3 -7 -4 -8
-3 -4 5 6 9 11 9 24 -1 13 -11 15 -10 9 4 -3 10 -3 20 2 22 4 3 7 -8 7 -24 0
-21 -4 -26 -14 -22 -10 3 -13 1 -9 -5 9 -15 -17 -11 -35 5 -12 9 -18 8 -32 -6
-9 -10 -13 -22 -9 -27 5 -4 2 -5 -5 -1 -13 8 -41 -18 -42 -38 0 -6 6 -2 13 8
8 11 20 16 28 13 10 -4 9 -6 -3 -6 -21 -1 -23 -14 -7 -43 10 -18 9 -20 -5 -15
-10 4 -16 1 -16 -8 0 -8 -4 -15 -10 -15 -6 0 -6 9 0 25 5 14 6 25 1 25 -14 0
-21 -28 -21 -85 0 -63 9 -115 21 -115 9 0 4 33 -7 52 -4 7 -3 8 5 4 8 -6 10 0
6 21 -3 15 -2 22 1 15 3 -6 10 -10 15 -7 5 4 6 -1 3 -9 -3 -9 5 -21 20 -31 14
-10 26 -22 25 -29 0 -7 -2 -6 -6 2 -2 6 -11 12 -19 12 -12 0 -12 -4 1 -24 12
-18 13 -26 4 -32 -8 -5 -9 -3 -4 6 6 10 4 12 -10 6 -15 -5 -16 -4 -5 9 7 8 8
15 2 15 -5 0 -15 -6 -21 -14 -10 -12 -8 -16 11 -22 46 -16 54 -12 49 19 -1 5
3 6 9 2 6 -3 7 -12 3 -18 -4 -7 0 -6 10 2 19 15 23 32 6 29 -6 -2 -14 4 -16
12 -3 10 -2 11 4 4 4 -6 18 -10 30 -9 16 1 20 -2 13 -10 -12 -14 7 -35 32 -35
17 0 18 15 18 238 0 225 -1 240 -20 262 -16 18 -20 20 -20 7z m7 -33 c-3 -3
-12 -4 -19 -1 -8 3 -5 6 6 6 11 1 17 -2 13 -5z m23 -237 c0 -151 -3 -187 -16
-203 -15 -18 -15 -18 -5 3 7 13 11 96 11 202 0 100 2 181 5 181 3 0 5 -82 5
-183z m-58 53 c26 0 41 -25 23 -40 -10 -9 -15 -9 -15 -1 0 6 5 11 11 11 5 0 7
5 4 10 -16 25 -21 3 -22 -87 -1 -78 -4 -100 -17 -108 -29 -18 -49 6 -54 63 -2
28 1 60 7 71 8 14 8 21 -2 24 -8 4 -7 6 3 6 20 1 40 45 29 63 -7 10 -9 8 -9
-6 0 -11 -3 -17 -6 -13 -4 3 -3 14 0 24 7 17 8 17 20 1 7 -10 20 -18 28 -18z
m31 -65 c-3 -9 -8 -14 -10 -11 -3 3 -2 9 2 15 9 16 15 13 8 -4z m-116 -82 c-3
-10 -5 -4 -5 12 0 17 2 24 5 18 2 -7 2 -21 0 -30z m120 -17 c0 -8 -6 -12 -15
-9 -11 5 -11 7 0 14 7 5 13 9 14 9 0 0 1 -6 1 -14z m-9 -41 c-3 -3 -9 2 -12
12 -6 14 -5 15 5 6 7 -7 10 -15 7 -18z m2 -21 c0 -2 -7 -4 -15 -4 -8 0 -15 4
-15 10 0 5 7 7 15 4 8 -4 15 -8 15 -10z"/>
<path d="M1416 3879 c-40 -32 -66 -90 -66 -151 0 -70 19 -98 67 -98 91 0 161
180 97 251 -23 25 -65 24 -98 -2z"/>
<path d="M2487 3818 c-5 -17 33 -108 45 -108 5 0 6 -4 3 -10 -3 -5 -2 -10 3
-10 5 0 12 9 15 20 3 11 1 18 -4 14 -5 -3 -10 1 -11 8 0 7 -2 18 -3 23 -2 6
-3 15 -4 22 -1 7 -8 10 -18 6 -15 -6 -16 -5 -3 9 9 9 17 12 19 6 2 -6 7 -4 12
3 5 9 7 0 6 -24 -2 -23 1 -36 7 -34 6 2 10 12 10 21 -1 10 1 15 4 11 3 -3 7
-22 7 -43 1 -20 4 -48 8 -62 4 -14 4 -19 1 -11 -5 10 -8 10 -14 1 -5 -7 4 -23
23 -41 16 -16 31 -29 31 -29 1 0 3 14 4 32 2 24 -4 38 -20 51 -17 14 -18 17
-5 13 22 -7 21 -1 -8 54 -14 25 -27 53 -31 63 -7 18 -54 24 -54 7 0 -5 -4 -10
-10 -10 -5 0 -7 7 -4 15 4 8 4 15 1 15 -3 0 -7 -6 -10 -12z m113 -113 c0 -5
-5 -3 -10 5 -5 8 -10 20 -10 25 0 6 5 3 10 -5 5 -8 10 -19 10 -25z m20 -80 c0
-5 -5 -3 -10 5 -5 8 -10 20 -10 25 0 6 5 3 10 -5 5 -8 10 -19 10 -25z"/>
<path d="M2557 3696 c-4 -10 -5 -21 -2 -24 9 -9 17 6 13 25 -3 17 -4 17 -11
-1z"/>
<path d="M2455 3651 c-10 -9 -5 -110 5 -116 6 -4 8 -11 5 -16 -4 -5 1 -12 9
-15 9 -3 13 -10 10 -15 -3 -5 3 -6 12 -2 11 4 15 3 10 -5 -12 -19 34 -24 70
-7 33 15 34 18 20 34 -18 20 -20 31 -6 31 6 0 9 -5 8 -11 -2 -6 3 -14 10 -16
7 -3 12 -1 11 4 -1 4 1 16 6 26 6 14 0 27 -24 50 l-31 32 4 -43 c2 -23 0 -40
-4 -37 -12 8 2 -39 14 -47 16 -11 -6 -10 -23 1 -7 5 -11 13 -7 19 3 6 2 13 -4
17 -6 4 -10 -5 -10 -19 0 -18 -5 -26 -17 -26 -15 0 -16 2 -3 10 10 6 11 10 3
10 -7 0 -13 5 -13 11 0 5 5 7 10 4 7 -4 7 2 1 17 -20 50 -24 64 -22 76 2 10
-4 12 -18 7 -12 -4 -21 -2 -21 4 0 6 3 10 8 10 16 -3 32 1 32 9 0 8 -38 11
-45 3z m40 -70 c3 -5 1 -12 -5 -16 -6 -4 -8 -11 -4 -16 3 -5 10 -7 15 -4 13 9
11 -9 -3 -23 -9 -9 -9 -12 2 -12 7 0 11 -2 8 -5 -3 -3 -13 -2 -22 1 -14 5 -15
9 -4 16 10 7 10 10 -4 19 -18 10 -25 30 -10 28 19 -3 25 2 12 11 -9 6 -10 10
-3 10 6 0 14 -4 18 -9z m118 -15 c4 -10 1 -13 -9 -9 -15 6 -19 23 -5 23 5 0
11 -7 14 -14z"/>
<path d="M2130 3621 c0 -29 13 -41 31 -28 24 18 20 45 -8 45 -15 0 -23 -6 -23
-17z"/>
<path d="M2125 3571 c3 -16 -2 -22 -21 -27 -13 -3 -30 -1 -38 5 -10 9 -17 7
-27 -6 -12 -15 -12 -16 6 -9 17 6 17 4 -4 -18 -21 -22 -22 -26 -7 -26 9 0 14
-4 11 -10 -7 -12 39 -24 61 -16 13 5 14 9 5 20 -9 10 -8 15 4 20 9 3 13 2 10
-3 -3 -5 0 -13 6 -17 8 -4 9 -3 5 4 -4 7 -1 12 8 12 9 0 19 16 26 41 12 44 7
60 -12 41 -8 -8 -15 -8 -24 -1 -10 8 -12 6 -9 -10z m15 -42 c0 -5 5 -7 12 -3
7 4 8 3 4 -5 -6 -8 -12 -9 -20 -2 -7 6 -17 7 -21 3 -5 -4 -5 -1 -1 6 9 15 26
16 26 1z m-40 -9 c0 -6 -7 -13 -15 -16 -14 -6 -14 -8 0 -18 15 -10 14 -12 -4
-12 -11 0 -18 3 -15 7 2 4 -4 10 -13 13 -14 6 -14 8 3 21 22 17 44 19 44 5z"/>
<path d="M2065 3510 c-3 -6 1 -7 9 -4 18 7 21 14 7 14 -6 0 -13 -4 -16 -10z"/>
<path d="M597 3559 c7 -7 15 -10 18 -7 3 3 -2 9 -12 12 -14 6 -15 5 -6 -5z"/>
<path d="M626 3543 c-5 -6 31 -56 84 -116 14 -16 25 -32 25 -35 1 -20 27 -52
37 -46 7 5 9 2 5 -9 -4 -11 -2 -14 8 -10 8 3 13 8 11 12 -3 4 0 13 5 21 9 13
10 13 6 0 -2 -8 0 -23 5 -34 6 -10 6 -16 1 -13 -5 3 -15 2 -23 -4 -12 -7 -11
-9 5 -9 15 0 17 -2 6 -9 -9 -6 -10 -11 -2 -15 14 -9 33 2 26 15 -4 5 -1 9 5 9
6 0 8 5 5 10 -3 6 0 10 7 11 7 0 4 4 -7 9 -11 5 -14 9 -6 9 9 1 5 9 -11 24
-13 12 -23 27 -21 33 2 6 -5 18 -16 28 -25 23 -40 2 -16 -24 11 -13 13 -20 5
-25 -6 -4 -14 -4 -17 -1 -4 3 0 6 7 6 9 0 8 5 -4 19 -10 11 -15 24 -11 30 7
13 -42 81 -59 81 -6 0 -3 -7 8 -15 18 -13 18 -14 -2 -12 -13 1 -19 7 -17 18 4
18 -38 53 -49 42z m93 -89 c4 3 8 -1 8 -9 0 -8 -4 -15 -9 -15 -4 0 -8 2 -8 4
0 2 -2 10 -3 18 -2 7 -2 10 0 5 3 -4 8 -5 12 -3z"/>
<path d="M3860 3540 c0 -5 5 -10 10 -10 6 0 10 5 10 10 0 6 -4 10 -10 10 -5 0
-10 -4 -10 -10z"/>
<path d="M3315 3530 c-3 -6 1 -7 9 -4 18 7 21 14 7 14 -6 0 -13 -4 -16 -10z"/>
<path d="M837 3286 c-21 -32 -21 -40 -1 -32 8 3 12 2 9 -4 -3 -5 5 -27 19 -49
14 -21 22 -41 19 -44 -3 -3 -2 -11 2 -17 11 -18 15 -90 5 -90 -10 0 -17 -49
-25 -161 -2 -42 -7 -83 -10 -92 -4 -8 -1 -18 5 -22 8 -5 7 -12 -3 -23 -18 -21
-32 -76 -17 -67 5 3 10 13 10 21 0 8 5 12 10 9 6 -3 15 -3 21 1 8 4 7 9 -2 15
-11 7 -10 11 6 23 11 9 16 16 11 16 -5 0 -3 7 4 15 7 9 10 18 7 22 -4 3 -1 15
4 26 14 24 23 240 10 233 -5 -3 -8 8 -6 25 2 30 -11 80 -29 108 -6 10 -5 12 2
7 8 -5 10 -1 5 11 -4 10 -12 22 -20 26 -7 4 -13 13 -13 20 0 7 4 6 10 -3 14
-22 11 1 -4 28 l-13 24 -16 -26z m23 -6 c0 -5 -5 -10 -11 -10 -5 0 -7 5 -4 10
3 6 8 10 11 10 2 0 4 -4 4 -10z m42 -322 c-6 -6 -7 0 -4 19 5 21 7 23 10 9 2
-10 0 -22 -6 -28z m-2 -108 c0 -5 -8 -10 -17 -10 -15 0 -16 2 -3 10 19 12 20
12 20 0z m-15 -50 c3 -5 1 -10 -4 -10 -6 0 -11 5 -11 10 0 6 2 10 4 10 3 0 8
-4 11 -10z"/>
<path d="M1373 3270 c-164 -33 -291 -208 -347 -480 -17 -86 -36 -271 -35 -345
l1 -50 13 50 c7 28 22 93 35 145 12 52 37 140 55 195 18 55 39 129 45 164 23
126 69 183 152 186 29 2 73 10 98 20 68 26 205 22 306 -10 24 -8 -24 36 -80
72 -73 47 -167 68 -243 53z"/>
<path d="M3828 3249 c0 -8 -2 -18 -2 -24 -1 -5 -6 -17 -11 -25 -5 -8 -11 -24
-12 -35 -2 -11 -8 -21 -13 -23 -6 -2 -10 -12 -10 -22 0 -10 -4 -21 -10 -25 -6
-3 -5 -15 2 -31 11 -24 13 -25 25 -8 7 10 13 25 13 35 0 9 7 19 15 23 8 3 15
10 15 17 0 6 9 24 21 40 18 25 18 30 5 35 -9 3 -14 9 -12 13 2 3 -2 15 -10 26
-10 14 -14 15 -16 4z m22 -50 c0 -5 6 -7 13 -3 6 4 5 -1 -5 -11 -18 -19 -40
-12 -31 10 6 17 23 20 23 4z m-10 -45 c0 -2 -7 -4 -15 -4 -8 0 -15 4 -15 10 0
5 7 7 15 4 8 -4 15 -8 15 -10z m-10 -17 c0 -2 -8 -11 -18 -20 -15 -14 -19 -15
-19 -2 0 8 4 12 9 9 4 -3 8 0 8 5 0 6 5 11 10 11 6 0 10 -2 10 -3z m-30 -56
c0 -6 -5 -13 -12 -17 -6 -4 -8 -3 -4 4 3 5 0 13 -6 15 -8 3 -6 6 5 6 9 1 17
-3 17 -8z"/>
<path d="M674 3188 c-37 -28 -45 -41 -35 -51 5 -5 20 -2 34 7 13 9 32 14 41
10 9 -3 16 -2 16 4 0 13 -29 24 -43 15 -7 -4 -5 1 3 11 8 11 16 14 18 7 2 -6
8 -11 13 -11 6 0 7 6 3 13 -6 9 -5 9 8 0 8 -7 19 -9 24 -5 4 4 2 -1 -5 -10
-13 -17 -8 -38 9 -38 5 0 7 8 4 18 -5 16 -5 16 6 -1 6 -10 16 -14 23 -10 9 5
9 3 0 -8 -8 -10 -33 -14 -91 -14 -52 0 -78 -4 -73 -10 10 -13 8 -56 -2 -73 -5
-7 -2 -14 7 -18 9 -3 14 -10 11 -14 -5 -7 37 -40 51 -40 3 0 4 17 0 38 -3 21
-2 29 2 18 8 -17 9 -17 25 -2 15 16 17 16 17 1 0 -8 -7 -18 -15 -21 -8 -4 -15
-12 -15 -19 0 -25 49 -11 80 23 37 41 42 110 10 142 -11 11 -20 24 -20 29 0 8
-52 31 -70 31 -4 0 -20 -10 -36 -22z m9 -179 c4 -13 1 -19 -6 -16 -7 3 -11 10
-9 16 1 6 -2 11 -8 11 -5 0 -10 4 -10 10 0 17 28 -1 33 -21z m97 10 c0 -5 -6
-9 -13 -9 -8 0 -14 6 -14 14 0 8 6 12 14 9 7 -3 13 -9 13 -14z m-25 -28 c3 -6
-3 -9 -14 -8 -11 0 -17 5 -15 9 7 11 22 10 29 -1z"/>
<path d="M1780 3164 c0 -23 3 -25 26 -20 17 5 23 3 19 -4 -3 -5 -1 -10 4 -10
6 0 11 14 11 30 0 27 -3 30 -30 30 -26 0 -30 -4 -30 -26z"/>
<path d="M3079 3188 c-7 -28 -7 -48 1 -43 5 3 10 1 10 -4 0 -6 -4 -11 -10 -11
-5 0 -9 -21 -8 -47 l1 -48 7 45 7 45 1 -42 c1 -23 -2 -45 -8 -48 -5 -3 -9 -16
-9 -28 1 -16 3 -17 6 -5 2 9 11 19 19 22 12 4 12 2 4 -14 -6 -11 -8 -25 -5
-30 3 -5 1 -11 -5 -15 -5 -3 -10 0 -10 7 0 10 -2 10 -9 -1 -7 -10 -11 -9 -22
7 -8 10 -23 18 -35 18 -26 -2 -68 -41 -60 -55 4 -5 2 -12 -3 -16 -6 -3 -11
-18 -11 -33 0 -15 -3 -98 -6 -186 -3 -90 -2 -156 4 -153 4 3 6 -7 4 -23 -2
-17 -1 -38 3 -47 5 -10 7 -22 6 -26 -1 -5 4 -5 10 -1 9 5 10 2 6 -10 -4 -10
-3 -15 3 -11 6 3 10 -1 10 -9 0 -8 5 -18 12 -22 6 -4 8 -3 5 3 -4 6 1 10 10 9
9 0 18 5 21 13 3 9 0 11 -7 6 -13 -8 -54 29 -44 39 9 8 23 7 22 -1 -3 -19 2
-33 11 -33 10 0 3 71 -9 80 -8 7 -8 360 1 360 4 0 5 6 2 13 -6 16 21 41 35 33
5 -4 16 2 23 11 13 19 44 31 34 14 -4 -5 -1 -13 5 -17 9 -5 10 0 7 14 -4 12
-2 22 3 22 14 0 7 -59 -8 -72 -8 -6 -12 -29 -11 -57 l1 -46 4 40 c3 22 8 44
12 48 4 4 4 -18 0 -50 -5 -32 -6 -92 -3 -133 12 -180 11 -225 -4 -247 -9 -15
-10 -23 -3 -23 6 0 11 -7 11 -15 0 -8 7 -15 15 -15 13 0 15 47 15 360 0 307
-2 360 -14 360 -10 0 -16 -14 -19 -42 l-4 -43 -1 48 c-2 39 1 47 16 47 12 0
18 8 18 28 1 24 -3 28 -27 30 -16 1 -29 1 -30 0z m33 -200 c-7 -7 -12 -8 -12
-2 0 6 3 14 7 17 3 4 9 5 12 2 2 -3 -1 -11 -7 -17z m-58 -39 c-3 -5 -16 -2
-30 7 -16 11 -24 12 -24 5 0 -7 -5 -9 -11 -5 -16 9 10 24 29 16 11 -4 13 -1 7
9 -5 8 1 6 13 -5 12 -10 19 -23 16 -27z m-54 -21 c0 -16 -20 -7 -30 12 -10 19
-10 20 9 8 12 -7 21 -16 21 -20z m-21 -62 c-3 -3 -11 5 -18 17 -13 21 -12 21
5 5 10 -10 16 -20 13 -22z m1 -37 c0 -6 -4 -7 -10 -4 -5 3 -10 11 -10 16 0 6
5 7 10 4 6 -3 10 -11 10 -16z m-30 -86 l-5 -68 -3 54 c-3 47 1 81 10 81 2 0 1
-30 -2 -67z m-3 -135 c-3 -7 -5 -2 -5 12 0 14 2 19 5 13 2 -7 2 -19 0 -25z
m23 -124 c0 -8 -5 -12 -10 -9 -6 4 -8 11 -5 16 9 14 15 11 15 -7z"/>
<path d="M3477 3183 c-4 -3 -7 -181 -7 -395 l0 -388 35 0 36 0 -1 389 c-1 337
-4 390 -17 395 -20 8 -38 8 -46 -1z m35 -90 c-5 -59 -10 -63 -11 -10 -1 26 3
47 7 47 4 0 6 -17 4 -37z m-25 -35 c-2 -13 -4 -3 -4 22 0 25 2 35 4 23 2 -13
2 -33 0 -45z m0 -160 c-2 -13 -4 -3 -4 22 0 25 2 35 4 23 2 -13 2 -33 0 -45z
m20 0 c-2 -13 -4 -3 -4 22 0 25 2 35 4 23 2 -13 2 -33 0 -45z m0 -220 c-2 -24
-4 -5 -4 42 0 47 2 66 4 43 2 -24 2 -62 0 -85z m6 -188 c3 -41 2 -54 -3 -35
-8 31 -13 112 -6 104 2 -2 6 -33 9 -69z m-26 8 c-2 -13 -4 -5 -4 17 -1 22 1
32 4 23 2 -10 2 -28 0 -40z"/>
<path d="M3616 3174 c-3 -7 -5 -184 -6 -393 l-1 -381 36 0 35 0 0 393 -1 394
-29 0 c-16 0 -31 -6 -34 -13z m41 -38 c-8 -8 -17 -12 -21 -9 -3 3 2 12 12 19
22 16 29 9 9 -10z"/>
<path d="M690 3140 c0 -5 5 -10 10 -10 6 0 10 5 10 10 0 6 -4 10 -10 10 -5 0
-10 -4 -10 -10z"/>
<path d="M726 3142 c-3 -5 1 -9 9 -9 8 0 12 4 9 9 -3 4 -7 8 -9 8 -2 0 -6 -4
-9 -8z"/>
<path d="M2300 2770 l0 -370 30 0 30 0 0 205 c0 130 -4 205 -10 205 -5 0 -10
-6 -10 -12 0 -7 -3 -24 -7 -37 -4 -17 -3 -22 5 -17 7 4 12 1 12 -8 0 -24 -19
-19 -25 7 -7 26 10 77 25 77 6 0 10 25 10 58 -1 56 -1 57 -16 30 -19 -36 -21
-35 -21 5 -1 26 1 28 7 12 5 -11 9 -15 9 -8 1 6 4 19 8 29 5 12 3 15 -6 9 -10
-6 -10 -2 0 16 13 23 14 22 25 -26 7 -27 13 -60 13 -72 1 -25 21 -32 21 -9 0
8 4 17 10 21 5 3 5 -7 -1 -25 -6 -17 -16 -27 -22 -23 -6 4 -8 0 -5 -9 3 -8 9
-45 13 -81 4 -37 11 -70 16 -72 4 -3 5 -13 2 -22 -5 -12 -3 -14 8 -8 11 7 12
6 3 -6 -16 -20 3 -139 22 -139 8 0 14 10 14 24 0 13 7 26 15 30 16 6 20 33 9
60 -3 9 -11 13 -17 9 -6 -4 -8 0 -4 10 4 11 1 17 -8 17 -8 0 -14 8 -13 18 1 9
0 43 0 75 -2 44 -5 56 -14 51 -10 -6 -9 -3 0 8 10 13 11 22 3 37 -6 11 -8 26
-5 35 3 8 2 21 -2 28 -5 7 -7 23 -5 36 1 13 -4 25 -13 28 -9 3 -16 16 -16 28
0 17 2 18 11 6 12 -18 3 48 -14 97 -16 48 -40 53 -35 8 2 -19 0 -35 -4 -35 -4
0 -8 16 -8 35 0 28 -4 35 -20 35 -20 0 -20 -7 -20 -370z m27 298 c-3 -7 -5 -2
-5 12 0 14 2 19 5 13 2 -7 2 -19 0 -25z m58 2 c3 -5 1 -10 -4 -10 -6 0 -11 5
-11 10 0 6 2 10 4 10 3 0 8 -4 11 -10z m-22 -33 c-3 -5 0 -13 7 -17 8 -5 9
-10 2 -14 -6 -3 -14 3 -17 15 -4 13 -12 18 -21 15 -8 -3 -12 -2 -9 3 3 6 14 9
25 8 10 -1 16 -5 13 -10z m-26 -39 c-3 -8 -6 -5 -6 6 -1 11 2 17 5 13 3 -3 4
-12 1 -19z m73 -61 c0 -7 -4 -6 -11 3 -8 11 -9 6 -5 -20 5 -31 5 -32 -4 -11
-12 28 -6 56 10 46 5 -3 10 -12 10 -18z m-60 -91 c0 -2 -7 -9 -15 -16 -13 -11
-14 -10 -9 4 5 14 24 23 24 12z m79 -106 c0 -10 -3 -8 -9 5 -12 27 -12 43 0
25 5 -8 9 -22 9 -30z m1 -24 c0 -3 -4 -8 -10 -11 -5 -3 -10 -1 -10 4 0 6 5 11
10 11 6 0 10 -2 10 -4z m-93 -123 c-3 -10 -5 -2 -5 17 0 19 2 27 5 18 2 -10 2
-26 0 -35z m108 36 c-4 -5 -1 -24 5 -40 14 -33 6 -50 -13 -29 -9 10 -9 11 1 6
15 -9 15 -1 1 25 -10 20 -6 49 6 49 4 0 3 -5 0 -11z"/>
<path d="M2530 3130 c-10 -6 -15 -25 -14 -60 0 -29 -3 -45 -8 -38 -10 16 -11
-6 -2 -39 7 -26 34 -31 34 -6 0 9 3 13 6 10 4 -3 7 -139 7 -302 l-1 -295 29 0
29 0 0 364 c0 323 -2 365 -16 370 -22 9 -47 7 -64 -4z m44 -6 c-6 -3 -9 -16
-6 -31 3 -17 1 -24 -6 -19 -6 4 -9 14 -6 24 3 9 -1 6 -10 -8 -12 -21 -12 -26
-1 -33 8 -4 12 -14 9 -22 -9 -22 -22 -18 -26 8 -5 30 22 87 41 86 9 0 11 -3 5
-5z m3 -626 c-2 -13 -4 -3 -4 22 0 25 2 35 4 23 2 -13 2 -33 0 -45z m20 0 c-2
-13 -4 -3 -4 22 0 25 2 35 4 23 2 -13 2 -33 0 -45z"/>
<path d="M1780 3051 c0 -52 4 -81 12 -83 7 -3 9 -12 4 -23 -6 -18 -9 -16 -23
13 -8 17 -18 32 -22 33 -38 5 -52 4 -63 -3 -10 -5 -8 -8 5 -8 10 0 16 -4 12
-10 -3 -5 -12 -7 -20 -4 -17 7 -39 -31 -32 -57 3 -10 1 -17 -4 -13 -5 3 -9
-78 -9 -195 0 -131 4 -202 11 -206 6 -4 8 -13 5 -21 -3 -7 3 -18 12 -23 12 -8
13 -10 3 -11 -15 0 33 -50 48 -50 5 0 23 16 41 36 29 34 33 35 48 20 9 -9 11
-16 5 -16 -6 0 -14 6 -16 13 -3 6 -5 0 -4 -15 1 -22 6 -28 23 -28 l22 0 1 290
c1 277 0 290 -18 290 -10 0 -21 9 -24 20 -3 11 -1 20 4 20 5 0 9 -7 9 -16 0
-9 6 -14 13 -12 7 3 13 27 15 63 3 60 -5 75 -40 75 -16 0 -18 -10 -18 -79z
m47 -33 c-3 -8 -6 -5 -6 6 -1 11 2 17 5 13 3 -3 4 -12 1 -19z m-85 -46 c-7 -2
-12 -10 -12 -18 0 -9 -5 -12 -12 -8 -6 4 -8 3 -5 -3 4 -6 0 -13 -7 -16 -8 -3
-17 -1 -20 6 -3 9 -8 8 -15 -3 -6 -8 -11 -10 -11 -4 0 6 7 17 15 24 12 10 15
10 15 0 0 -6 10 0 22 13 13 14 27 23 32 19 6 -3 5 -7 -2 -10z m86 -27 c-3 -3
-9 2 -12 12 -6 14 -5 15 5 6 7 -7 10 -15 7 -18z m-62 3 c4 -7 3 -8 -4 -4 -17
10 -15 -9 2 -23 11 -10 15 -49 16 -183 0 -93 1 -173 2 -177 1 -3 -1 -23 -6
-45 -7 -35 -10 -38 -36 -34 -16 2 -27 1 -24 -4 6 -9 -44 -23 -53 -14 -4 3 3 6
14 6 29 0 36 37 23 131 -12 88 -5 270 12 303 10 21 38 56 44 56 2 0 6 -5 10
-12z m54 -33 c0 -8 -2 -15 -4 -15 -2 0 -6 7 -10 15 -3 8 -1 15 4 15 6 0 10 -7
10 -15z m-126 -32 c-9 -36 -10 -38 -17 -13 -3 11 0 20 6 20 7 0 5 5 -3 10 -13
8 -12 10 3 10 14 0 16 -5 11 -27z m134 -49 l-3 -39 -5 47 c-3 26 -1 43 3 39 5
-5 7 -26 5 -47z m-1 -226 c-2 -24 -4 -7 -4 37 0 44 2 63 4 43 2 -21 2 -57 0
-80z m-154 -74 c-3 -9 0 -20 7 -24 7 -5 9 -13 5 -21 -6 -9 -10 -8 -16 7 -11
27 -11 54 1 54 5 0 7 -7 3 -16z m157 -22 c0 -15 -2 -15 -10 -2 -13 20 -13 33
0 25 6 -3 10 -14 10 -23z m0 -55 c0 -5 -7 -2 -15 7 -8 8 -15 20 -15 27 0 14
29 -20 30 -34z m-90 -2 c-7 -8 -19 -15 -26 -15 -8 0 -14 -8 -15 -17 0 -13 -2
-14 -6 -4 -3 8 5 22 18 32 29 22 46 25 29 4z m30 1 c0 -8 -52 -58 -56 -53 -3
3 7 17 23 31 27 26 33 29 33 22z"/>
<path d="M610 3071 c0 -5 5 -13 10 -16 6 -3 10 -2 10 4 0 5 -4 13 -10 16 -5 3
-10 2 -10 -4z"/>
<path d="M1241 2989 c-28 -30 -45 -115 -37 -182 9 -67 51 -154 89 -181 l27
-20 28 21 c39 29 55 84 50 173 -9 154 -94 256 -157 189z"/>
<path d="M1986 2985 c4 -8 11 -12 17 -8 6 3 7 1 3 -6 -4 -6 -12 -9 -17 -6 -5
4 -9 1 -9 -4 0 -15 25 -14 39 2 8 10 7 17 -1 25 -17 17 -38 15 -32 -3z"/>
<path d="M2043 2984 c10 -12 15 -28 11 -38 -4 -11 -1 -16 11 -16 10 0 13 -5 9
-12 -4 -7 -3 -8 4 -4 7 4 12 2 12 -3 0 -22 -26 -10 -44 20 -11 18 -14 29 -7
25 6 -4 11 -2 11 3 0 14 -17 14 -25 0 -4 -5 -18 -14 -31 -19 -24 -9 -34 -40
-13 -40 6 0 9 7 6 14 -4 10 -1 13 9 9 7 -3 14 1 14 7 0 9 7 7 20 -5 11 -10 17
-21 15 -26 -3 -4 1 -27 10 -51 8 -24 14 -50 14 -58 -1 -8 -5 -4 -10 10 -7 23
-8 22 -7 -10 0 -19 0 -44 -1 -55 -1 -18 -2 -19 -12 -2 -11 19 -45 23 -51 6 -2
-7 -15 -9 -35 -5 -30 7 -31 9 -21 32 6 13 19 24 30 24 15 0 18 8 18 43 -1 23
-7 53 -15 67 -18 31 -19 44 -3 34 7 -5 9 -2 5 8 -3 9 -1 20 5 26 6 6 6 12 -1
16 -6 4 -11 1 -11 -7 0 -8 -6 -20 -14 -27 -8 -6 -12 -18 -9 -26 3 -8 1 -14 -4
-14 -14 0 -17 -34 -17 -200 -1 -124 2 -154 12 -152 8 1 11 -2 7 -8 -3 -6 -11
-8 -16 -4 -6 3 -7 -5 -3 -23 9 -36 13 -43 26 -43 7 0 7 5 -1 14 -17 20 -3 50
15 35 8 -7 17 -9 21 -5 4 3 -2 13 -13 22 -16 13 -17 15 -1 10 15 -5 17 2 17
54 0 41 -4 60 -12 60 -9 0 -10 2 -2 8 7 4 14 16 17 27 5 20 5 20 6 0 1 -18 7
-20 52 -19 31 1 55 8 60 16 11 16 12 188 2 188 -5 0 -8 -37 -7 -82 l1 -83 -6
80 c-3 44 -2 87 3 96 12 21 -12 67 -44 88 -25 15 -25 15 -7 -5z m-83 -105 c0
-6 -4 -7 -10 -4 -5 3 -10 11 -10 16 0 6 5 7 10 4 6 -3 10 -11 10 -16z m-3 -66
c-3 -10 -5 -2 -5 17 0 19 2 27 5 18 2 -10 2 -26 0 -35z m115 -85 c-7 -7 -12
-8 -12 -2 0 14 12 26 19 19 2 -3 -1 -11 -7 -17z m1 -25 c-13 -2 -35 -2 -50 0
-16 2 -5 4 22 4 28 0 40 -2 28 -4z m-113 -13 c-8 -5 -22 -9 -30 -9 -10 0 -8 3
5 9 27 12 43 12 25 0z m-5 -29 c3 -5 1 -12 -5 -16 -5 -3 -10 1 -10 9 0 18 6
21 15 7z"/>
<path d="M2739 2982 c-23 -16 -52 -80 -45 -99 3 -7 1 -15 -4 -18 -10 -6 -12
-295 -3 -352 3 -20 10 -30 16 -26 6 4 8 0 4 -10 -3 -9 -1 -19 5 -23 7 -5 8 -2
3 6 -5 9 -4 11 4 6 6 -4 10 -14 9 -23 -2 -8 9 -24 24 -36 26 -20 27 -20 55 -1
15 10 31 17 36 16 9 -2 9 12 1 21 -4 3 -13 -1 -22 -9 -23 -23 -38 -1 -18 27 9
13 16 18 16 12 0 -7 -4 -15 -10 -18 -5 -3 -10 -11 -10 -17 0 -6 9 -3 20 7 16
14 17 21 8 32 -8 10 -8 17 0 25 15 15 15 38 1 38 -6 0 -9 -6 -6 -13 3 -7 -1
-21 -9 -31 -10 -15 -21 -17 -49 -13 -24 4 -33 2 -29 -5 4 -7 2 -8 -5 -4 -15
10 -3 29 15 22 15 -6 19 6 7 18 -5 4 -7 35 -5 69 2 39 -1 57 -6 49 -7 -11 -10
-9 -14 6 -4 15 -2 19 8 15 8 -3 14 0 14 6 0 6 -6 11 -12 11 -9 0 -9 3 1 9 11
7 11 10 -3 12 -14 4 -14 6 4 17 17 11 20 10 20 -7 0 -17 7 -20 49 -19 36 0 52
4 57 16 10 24 16 79 7 66 -13 -19 -31 8 -22 31 7 17 8 18 8 3 1 -10 5 -18 9
-18 14 0 8 110 -7 119 -11 7 -11 9 0 14 11 3 11 7 2 17 -8 9 -12 7 -18 -9 -3
-12 -13 -21 -22 -21 -11 0 -13 -5 -8 -17 4 -10 8 -42 8 -70 1 -39 5 -53 16
-53 8 0 11 -3 8 -7 -4 -3 -20 -6 -37 -5 -20 0 -30 -4 -30 -14 0 -8 5 -14 11
-14 5 0 7 6 3 13 -4 6 -3 8 1 4 12 -10 16 -39 5 -32 -5 3 -11 -1 -13 -7 -3 -7
-8 2 -12 20 -6 24 -10 30 -16 20 -10 -16 -11 -13 -11 84 0 37 3 72 7 78 3 5 0
12 -7 14 -7 3 -20 7 -28 9 -8 3 5 5 30 5 25 -1 51 -5 58 -11 7 -5 15 -7 19 -3
3 3 1 6 -5 6 -7 0 -12 4 -12 10 0 5 8 6 18 3 15 -6 15 -5 3 10 -7 9 -18 14
-25 10 -6 -4 -28 -9 -48 -10 -29 -1 -35 1 -25 10 16 16 68 39 74 33 3 -3 -10
-12 -28 -20 -29 -13 -30 -15 -9 -13 30 3 82 36 60 39 -49 5 -74 2 -91 -10z
m-4 -80 c-13 -9 -18 -28 -18 -69 -1 -17 -5 -29 -9 -27 -11 7 -5 87 7 96 6 4
15 8 20 8 7 0 7 -3 0 -8z m126 -22 c-7 -3 -9 -15 -6 -26 6 -18 6 -18 -6 1 -7
11 -17 23 -22 26 -5 4 3 7 18 7 15 0 22 -4 16 -8z m-124 -42 c-3 -7 -5 -2 -5
12 0 14 2 19 5 13 2 -7 2 -19 0 -25z m108 -7 c3 -5 1 -12 -5 -16 -5 -3 -10 1
-10 9 0 18 6 21 15 7z m-111 -111 c-6 -6 -10 -2 -11 12 -2 16 1 18 10 9 7 -7
8 -14 1 -21z m132 13 c-10 -10 -46 -11 -46 -1 0 4 12 8 27 8 14 0 23 -3 19 -7z
m-159 -75 c-2 -13 -4 -3 -4 22 0 25 2 35 4 23 2 -13 2 -33 0 -45z m27 -96 c-7
-18 -10 -27 -13 -52 -1 -13 -3 -12 -11 2 -11 18 -4 48 11 48 5 0 10 12 10 28
1 17 3 21 6 9 3 -10 1 -26 -3 -35z m53 -98 c-3 -3 -12 -4 -19 -1 -8 3 -5 6 6
6 11 1 17 -2 13 -5z m-17 -35 c0 -6 -4 -7 -10 -4 -5 3 -10 11 -10 16 0 6 5 7
10 4 6 -3 10 -11 10 -16z"/>
<path d="M3254 2973 c-26 -28 -48 -102 -42 -143 3 -16 1 -30 -3 -30 -8 0 -6
-178 3 -266 8 -73 17 -94 38 -94 10 0 22 -4 25 -10 4 -6 -1 -7 -12 -4 -16 5
-16 4 1 -10 19 -15 21 -14 32 14 8 18 23 32 38 36 21 5 25 10 20 30 -9 34 2
30 14 -6 8 -22 8 -29 -1 -27 -7 1 -12 -5 -12 -13 0 -8 -7 -20 -15 -27 -8 -6
-12 -14 -9 -17 3 -3 19 8 34 25 26 26 30 38 30 87 0 49 -3 57 -19 57 -12 0
-20 -8 -22 -21 -7 -42 -23 -72 -43 -79 -12 -3 -21 -12 -21 -18 -1 -7 -9 -3
-18 9 -10 11 -24 23 -32 27 -10 3 -10 6 -2 6 15 1 16 27 2 34 -6 3 -5 4 2 3 7
-1 16 -17 20 -34 5 -18 13 -32 18 -32 15 0 0 63 -18 78 -10 7 -11 12 -4 12 8
0 12 19 12 55 0 30 -4 55 -10 55 -5 0 -10 7 -10 16 0 9 -7 22 -15 28 -13 9
-11 11 10 11 21 0 25 -4 21 -20 -5 -19 0 -20 62 -20 l67 1 -1 41 c0 23 3 40 9
36 5 -3 6 20 2 58 -4 35 -7 72 -8 81 -1 9 -6 14 -11 11 -5 -4 -7 1 -3 10 4 10
-4 28 -19 46 -31 37 -78 39 -110 4z m91 -6 c7 -7 4 -8 -8 -4 -22 8 -70 -10
-65 -24 4 -13 24 -11 20 3 -1 5 2 7 8 3 5 -3 10 -1 10 4 0 6 5 11 11 11 8 0 8
-4 0 -14 -10 -11 -9 -19 4 -34 11 -12 17 -41 19 -83 1 -35 6 -73 10 -84 4 -11
4 -15 -1 -10 -4 6 -24 11 -43 13 -28 1 -31 0 -15 -7 16 -8 16 -10 4 -10 -18
-1 -49 40 -48 61 0 7 4 4 9 -7 7 -16 9 -13 9 16 1 22 -4 39 -13 42 -7 3 -16
15 -19 26 -3 12 -1 19 4 15 5 -3 9 0 9 5 0 6 -4 11 -10 11 -5 0 -10 5 -10 11
0 8 5 8 15 -1 8 -7 15 -9 15 -5 0 5 3 6 6 3 3 -4 1 -15 -5 -27 -6 -11 -7 -22
-2 -25 11 -7 19 13 15 39 -2 11 -5 32 -8 47 -2 15 -1 27 2 27 4 -1 14 -1 22 0
13 1 13 2 0 11 -11 8 -7 9 15 4 17 -4 35 -11 40 -17z m25 -49 c22 -52 22 -54
11 -38 -9 13 -11 13 -11 0 0 -10 -5 -8 -15 7 -8 12 -12 29 -8 39 5 13 3 15 -7
9 -9 -5 -11 -4 -6 3 12 19 21 14 36 -20z m6 -84 c-4 -9 -9 -15 -11 -12 -3 3
-3 13 1 22 4 9 9 15 11 12 3 -3 3 -13 -1 -22z m-136 -19 c0 -5 -5 -3 -10 5 -5
8 -10 20 -10 25 0 6 5 3 10 -5 5 -8 10 -19 10 -25z m150 -28 c0 -7 -4 -6 -11
3 -8 12 -10 9 -6 -12 2 -15 0 -25 -4 -22 -10 6 -12 38 -3 47 9 9 24 -1 24 -16z
m-161 -28 c-7 -4 -16 -5 -19 -2 -3 3 1 8 8 10 6 3 13 12 13 21 1 14 2 13 6 -2
3 -10 -1 -22 -8 -27z m31 -19 c0 -5 -4 -10 -10 -10 -5 0 -10 5 -10 10 0 6 5
10 10 10 6 0 10 -4 10 -10z m83 -37 c-13 -2 -33 -2 -45 0 -13 2 -3 4 22 4 25
0 35 -2 23 -4z m-104 -60 c13 3 17 -3 18 -22 0 -14 -1 -19 -4 -10 -2 10 -13
19 -24 22 -12 3 -19 13 -18 29 l2 23 4 -23 c3 -17 10 -23 22 -19z m0 -66 c0
-21 -1 -21 -9 -2 -12 28 -12 37 0 30 6 -3 10 -16 9 -28z m6 -107 c-3 -5 -1
-10 6 -10 7 0 10 -3 6 -6 -9 -9 -28 6 -22 17 4 5 8 9 11 9 3 0 2 -4 -1 -10z"/>
<path d="M3758 2994 c-4 -3 -7 -138 -8 -300 l0 -294 35 0 35 0 -2 298 -3 297
-25 3 c-14 2 -29 0 -32 -4z m32 -23 c5 -11 9 -37 9 -58 -2 -36 -2 -36 -8 10
-4 27 -14 53 -22 58 -9 5 -10 9 -2 9 7 0 17 -9 23 -19z m-13 -368 c-2 -21 -4
-4 -4 37 0 41 2 58 4 38 2 -21 2 -55 0 -75z m20 -95 c-3 -7 -5 -2 -5 12 0 14
2 19 5 13 2 -7 2 -19 0 -25z m-20 -80 c-2 -13 -4 -5 -4 17 -1 22 1 32 4 23 2
-10 2 -28 0 -40z"/>
<path d="M3906 2984 c-3 -8 -6 -144 -6 -300 l0 -284 30 0 30 0 1 243 c1 133 0
249 -1 257 -1 8 1 12 6 8 4 -4 13 0 20 10 10 13 17 15 31 6 23 -14 24 -18 23
-291 l-1 -233 31 0 30 0 0 268 c-1 244 -3 271 -20 299 -25 42 -60 39 -111 -9
-22 -21 -36 -38 -31 -38 4 0 13 5 19 11 8 8 13 7 18 -2 5 -8 4 -10 -4 -5 -6 4
-14 1 -17 -8 -11 -28 -32 -26 -30 4 0 16 4 26 8 24 5 -3 8 -2 9 3 0 4 2 18 5
31 2 12 -1 22 -7 22 -5 0 -7 -6 -3 -12 6 -10 4 -10 -8 0 -13 10 -17 10 -22 -4z
m147 -11 c4 -3 2 -12 -4 -20 -14 -17 2 -17 20 0 11 10 11 8 1 -12 -11 -21 -10
-23 3 -18 11 4 14 2 10 -9 -4 -12 -8 -12 -22 -2 -40 32 -42 36 -24 47 15 9 15
10 3 11 -9 0 -21 -5 -28 -12 -15 -15 -44 -20 -36 -6 12 19 65 34 77 21z m25
-86 c13 4 14 3 3 -5 -9 -7 -15 -54 -21 -168 l-8 -159 3 163 c2 100 -1 162 -7
162 -5 0 -6 5 -2 12 6 9 9 9 11 1 3 -7 12 -9 21 -6z m-1 -369 c-2 -24 -4 -5
-4 42 0 47 2 66 4 43 2 -24 2 -62 0 -85z"/>
<path d="M2485 2919 c-4 -35 -9 -75 -11 -89 -11 -70 -12 -109 -2 -107 6 1 13
-4 16 -12 2 -8 0 -11 -6 -7 -15 9 -20 -24 -8 -51 13 -32 26 -29 26 6 0 16 3
43 7 61 4 22 3 31 -4 27 -6 -4 -16 0 -22 7 -10 12 -8 13 8 9 14 -3 21 0 22 8
1 8 2 23 3 34 1 11 6 28 11 39 5 11 4 26 -3 36 -9 14 -8 19 3 24 8 3 15 17 15
32 0 19 -4 25 -15 20 -8 -3 -18 2 -23 11 -7 11 -11 -3 -17 -48z m27 -53 c7
-12 7 -16 0 -12 -6 4 -12 -6 -15 -21 -2 -16 -3 -3 -3 27 0 30 2 48 4 40 3 -8
9 -23 14 -34z"/>
<path d="M2835 2960 c3 -5 11 -10 16 -10 6 0 7 5 4 10 -3 6 -11 10 -16 10 -6
0 -7 -4 -4 -10z"/>
<path d="M3069 2933 c-5 -57 5 -421 12 -429 7 -9 1 -14 -20 -19 -17 -4 -33
-10 -36 -15 -8 -13 41 -5 58 9 12 9 16 9 19 0 2 -6 4 7 4 31 0 34 -2 39 -11
27 -9 -13 -12 6 -12 86 l0 102 7 -85 c6 -79 6 -81 8 -25 1 33 -3 106 -10 162
-10 92 -10 104 5 121 13 14 14 21 5 30 -14 14 -28 16 -29 5z m26 -23 c-3 -5
-12 -10 -18 -10 -7 0 -6 4 3 10 19 12 23 12 15 0z"/>
<path d="M1953 2774 c-17 -7 -4 -34 16 -33 11 0 12 2 3 6 -10 4 -10 8 -1 19
11 14 5 17 -18 8z"/>
<path d="M842 2673 c-14 -15 -22 -33 -19 -44 3 -10 0 -20 -6 -22 -5 -1 -16
-22 -22 -45 -7 -23 -9 -39 -4 -36 5 3 9 12 9 20 0 8 5 14 11 14 6 0 8 7 5 16
-3 8 -2 13 3 9 5 -3 15 12 22 32 6 21 19 48 27 61 19 29 3 26 -26 -5z"/>
<path d="M2051 2548 c-1 -57 -4 -67 -19 -73 -8 -3 -21 0 -28 6 -8 6 -14 7 -14
2 0 -5 10 -14 23 -20 17 -8 28 -7 42 4 13 10 16 17 8 20 -7 2 -9 11 -6 19 4
12 8 10 17 -8 10 -19 9 -26 -8 -39 -19 -15 -19 -16 0 -23 10 -4 15 -4 12 0 -4
3 -1 13 7 21 17 17 19 33 5 33 -5 0 -10 5 -10 11 0 5 4 7 10 4 11 -7 24 36 17
62 -3 12 -5 9 -6 -9 -1 -20 -6 -28 -18 -27 -11 0 -13 3 -5 6 15 6 16 43 1 43
-6 0 -8 -8 -5 -17 6 -17 5 -17 -8 0 -12 16 -14 15 -15 -15z"/>
<path d="M2827 2573 c-13 -12 -7 -23 14 -23 13 0 18 4 13 13 -5 9 -3 9 7 -1 9
-8 10 -15 4 -20 -18 -12 -35 -61 -24 -67 5 -4 7 -11 4 -16 -4 -5 -1 -9 4 -9 6
0 11 2 11 4 0 2 3 12 7 22 5 14 3 16 -13 11 -14 -6 -13 -2 6 14 14 11 19 18
12 14 -11 -6 -11 -3 -1 13 7 10 9 27 6 36 -6 16 -38 22 -50 9z"/>
<path d="M2471 2514 c0 -11 3 -14 6 -6 3 7 2 16 -1 19 -3 4 -6 -2 -5 -13z"/>
<path d="M1940 2511 c0 -6 5 -13 10 -16 6 -3 10 1 10 9 0 9 -4 16 -10 16 -5 0
-10 -4 -10 -9z"/>
<path d="M1963 2492 c-9 -15 -8 -19 3 -19 8 0 14 9 14 19 0 10 -1 18 -3 18 -1
0 -7 -8 -14 -18z"/>
<path d="M1933 2457 c3 -7 11 -10 18 -9 8 2 11 0 7 -3 -10 -10 11 -47 22 -40
5 3 11 1 15 -5 3 -5 11 -10 16 -10 6 0 7 4 4 10 -4 6 3 9 16 7 35 -3 33 20 -2
39 -41 21 -102 28 -96 11z m72 -17 c4 -6 9 -8 13 -6 4 2 12 -2 18 -8 9 -10 3
-12 -26 -12 -28 1 -36 4 -29 13 7 7 5 13 -3 16 -9 4 -7 6 4 6 9 1 20 -4 23 -9z"/>
<path d="M3076 2463 c-4 -5 -13 -8 -19 -8 -7 0 -11 -11 -10 -23 2 -13 -1 -21
-6 -18 -5 3 -14 -1 -20 -8 -10 -12 -8 -13 9 -9 11 3 26 15 32 27 6 11 16 24
22 28 6 4 8 9 5 12 -3 4 -9 3 -13 -1z"/>
<path d="M3317 2442 c-19 -20 -23 -52 -7 -52 6 0 10 8 10 18 0 10 5 23 12 30
6 6 9 14 6 17 -2 3 -12 -3 -21 -13z"/>
<path d="M594 2159 c-3 -6 -1 -16 5 -22 15 -15 15 -423 1 -432 -21 -13 3 -25
51 -25 50 0 50 0 72 48 30 66 37 263 12 348 -22 78 -38 94 -91 94 -24 0 -46
-5 -50 -11z m113 -66 c9 -23 18 -79 21 -139 7 -152 -19 -244 -70 -244 -17 0
-18 13 -18 210 l0 210 26 0 c19 0 28 -8 41 -37z"/>
<path d="M1214 2158 c-4 -6 0 -16 9 -23 13 -9 17 -28 17 -74 0 -57 -1 -60 -19
-50 -10 7 -25 9 -34 6 -48 -18 -72 -170 -43 -270 20 -68 45 -88 76 -57 15 15
20 17 20 5 0 -9 9 -15 25 -15 16 0 25 6 25 15 0 8 -7 15 -15 15 -13 0 -15 32
-15 230 0 221 -1 230 -19 230 -11 0 -23 -5 -27 -12z m13 -199 c13 -25 16 -166
4 -208 -8 -31 -36 -50 -51 -35 -22 22 -35 132 -22 191 18 85 43 104 69 52z"/>
<path d="M2100 2151 c0 -12 6 -21 15 -21 12 0 15 -15 15 -72 0 -68 -1 -70 -18
-55 -32 29 -52 21 -74 -30 -39 -87 -26 -245 23 -289 21 -18 21 -18 45 9 22 26
24 26 24 8 0 -16 6 -21 25 -21 16 0 25 6 25 15 0 8 -7 15 -15 15 -12 0 -15 34
-17 228 -3 227 -3 227 -25 230 -18 3 -23 -2 -23 -17z m12 -183 c16 -29 16
-192 -1 -231 -13 -34 -40 -33 -58 3 -7 14 -13 60 -13 103 0 119 38 185 72 125z"/>
<path d="M1700 2070 c0 -43 -3 -50 -20 -50 -11 0 -20 -7 -20 -15 0 -8 9 -15
20 -15 19 0 20 -7 20 -130 0 -155 16 -202 64 -184 29 11 53 124 26 124 -5 0
-10 -13 -10 -29 0 -42 -9 -61 -30 -61 -25 0 -30 27 -30 163 l0 117 35 0 c24 0
35 5 35 15 0 10 -11 15 -35 15 l-35 0 0 50 c0 28 -4 50 -10 50 -5 0 -10 -22
-10 -50z"/>
<path d="M3298 2114 c-5 -4 -8 -27 -8 -51 0 -36 -3 -43 -20 -43 -11 0 -20 -7
-20 -15 0 -8 9 -15 20 -15 19 0 20 -7 20 -124 0 -122 9 -173 33 -188 33 -21
67 18 67 78 0 27 -4 43 -10 39 -5 -3 -10 -18 -10 -33 -1 -68 -45 -68 -55 0 -3
24 -5 84 -3 133 l3 90 38 3 c49 4 44 26 -6 30 -36 3 -36 4 -39 53 -2 28 -6 47
-10 43z"/>
<path d="M832 2014 c-30 -21 -46 -78 -46 -164 0 -86 16 -143 46 -164 49 -35
88 39 88 164 0 125 -39 199 -88 164z m55 -64 c7 -19 12 -64 12 -100 0 -122
-43 -181 -75 -104 -20 48 -16 202 5 228 21 25 44 15 58 -24z"/>
<path d="M1372 2023 c-7 -3 -22 -24 -34 -46 -42 -83 -21 -268 34 -298 39 -21
88 36 75 88 -4 17 -4 17 -11 -2 -15 -39 -23 -50 -45 -53 -16 -3 -25 5 -36 32
-8 19 -15 49 -15 66 0 30 0 30 55 30 l55 0 0 50 c0 82 -38 147 -78 133z m45
-63 c7 -14 13 -40 13 -57 0 -32 -1 -33 -45 -33 -41 0 -45 2 -45 25 0 14 7 42
15 61 17 41 42 43 62 4z"/>
<path d="M1893 2015 c-42 -29 -60 -175 -34 -268 39 -135 123 -65 123 103 0
122 -42 198 -89 165z m53 -60 c17 -41 18 -156 1 -205 -29 -85 -77 -23 -77 100
0 78 20 140 45 140 9 0 23 -16 31 -35z"/>
<path d="M2241 2009 c-61 -66 -50 -308 15 -333 79 -30 114 238 42 329 -24 30
-32 31 -57 4z m58 -54 c19 -39 18 -172 0 -211 -37 -76 -84 3 -76 126 8 116 43
155 76 85z"/>
<path d="M2423 2020 c-28 -11 -43 -40 -43 -83 0 -41 28 -80 70 -97 45 -18 56
-100 18 -124 -27 -17 -52 4 -62 53 -13 61 -26 50 -26 -24 0 -37 4 -65 10 -65
6 0 10 5 10 10 0 6 11 3 24 -5 45 -30 86 11 86 84 0 49 -17 89 -41 96 -37 12
-69 46 -69 74 0 33 16 51 46 51 22 0 34 -17 34 -51 0 -10 5 -19 10 -19 6 0 10
25 10 56 0 47 -2 55 -14 45 -10 -8 -16 -9 -21 -1 -7 12 -12 12 -42 0z"/>
<path d="M2794 2020 c-53 -21 -76 -189 -40 -283 20 -54 46 -73 75 -58 17 9 41
58 41 82 0 21 -19 6 -29 -21 -7 -21 -17 -30 -31 -30 -30 0 -50 55 -50 140 0
90 19 140 54 140 19 0 26 -5 26 -20 0 -23 15 -27 24 -5 7 20 -3 44 -25 55 -20
11 -17 11 -45 0z"/>
<path d="M2957 2017 c-64 -48 -63 -302 3 -337 24 -13 56 12 71 58 16 49 15
177 -2 226 -17 49 -48 71 -72 53z m49 -62 c32 -77 8 -251 -33 -243 -57 11 -55
278 2 278 9 0 23 -16 31 -35z"/>
<path d="M3468 2018 c-16 -13 -22 -29 -19 -55 2 -21 21 -14 21 7 0 31 44 27
58 -5 22 -48 15 -72 -22 -85 -19 -6 -42 -22 -51 -36 -30 -46 -16 -154 22 -169
9 -3 27 2 41 11 18 12 27 13 30 6 2 -7 25 -12 53 -12 37 0 49 4 49 15 0 8 -5
15 -11 15 -13 0 -7 230 6 263 20 48 27 8 23 -138 l-3 -155 23 0 c13 0 22 6 22
15 0 8 -5 15 -11 15 -13 0 -8 232 6 263 20 47 27 9 23 -138 l-3 -155 23 0 c13
0 22 6 22 15 0 8 -4 15 -9 15 -5 0 -11 66 -13 149 -2 82 -7 153 -11 157 -4 5
-18 2 -30 -5 -15 -10 -22 -10 -25 -2 -6 17 -30 13 -41 -6 -10 -17 -10 -17 -11
0 0 9 -6 17 -12 17 -10 0 -12 -36 -10 -156 l4 -156 -24 4 c-23 3 -23 6 -28
136 -5 131 -5 134 -33 158 -32 28 -37 29 -59 12z m72 -214 c0 -63 -13 -94 -38
-94 -28 0 -42 21 -42 60 0 39 13 61 45 78 32 18 35 15 35 -44z"/>
<path d="M3836 2011 c-61 -67 -61 -265 0 -322 l24 -22 24 22 c61 57 61 255 0
322 -9 10 -20 19 -24 19 -4 0 -15 -9 -24 -19z m55 -53 c18 -42 18 -173 0 -215
-32 -78 -75 -16 -76 107 0 84 18 140 45 140 10 0 23 -13 31 -32z"/>
<path d="M4000 2012 c-26 -21 -36 -87 -18 -122 7 -14 29 -33 47 -42 43 -21 51
-34 51 -79 0 -76 -57 -80 -80 -6 -9 27 -19 45 -23 41 -11 -11 -8 -124 3 -124
6 0 10 5 10 10 0 6 11 3 24 -5 19 -13 29 -14 45 -5 30 16 41 42 41 99 0 55 -6
64 -70 104 -19 13 -36 32 -38 44 -5 33 15 63 42 63 24 0 36 -17 36 -51 0 -10
5 -19 10 -19 6 0 10 26 10 58 0 31 -4 52 -8 45 -5 -8 -13 -9 -22 -3 -22 14
-35 12 -60 -8z"/>
<path d="M945 2010 c-3 -6 1 -13 9 -16 24 -9 24 -279 0 -288 -25 -10 -6 -26
31 -26 38 0 53 14 29 28 -23 13 -17 243 8 268 9 9 21 13 27 10 14 -9 15 -276
1 -276 -5 0 -10 -7 -10 -15 0 -10 10 -15 34 -15 38 0 55 14 32 27 -10 6 -15
41 -18 144 -4 142 -12 169 -49 169 -10 0 -22 -8 -28 -17 -9 -17 -10 -17 -16 0
-8 18 -40 23 -50 7z"/>
<path d="M3070 2006 c0 -8 7 -16 15 -20 12 -4 15 -30 15 -141 0 -113 -2 -135
-15 -135 -8 0 -15 -7 -15 -15 0 -11 11 -15 40 -15 41 0 52 12 24 28 -25 14
-17 243 9 269 18 17 19 17 33 -1 21 -29 20 -266 -1 -266 -8 0 -15 -7 -15 -15
0 -11 11 -15 40 -15 29 0 40 4 40 15 0 8 -7 15 -15 15 -13 0 -15 21 -15 128 0
134 -10 174 -45 180 -10 3 -24 -3 -31 -12 -10 -15 -12 -15 -18 -1 -7 19 -46
20 -46 1z"/>
</g>
</svg>
