<?xml version="1.0" standalone="no"?>
<!DOCTYPE svg PUBLIC "-//W3C//DTD SVG 20010904//EN"
 "http://www.w3.org/TR/2001/REC-SVG-20010904/DTD/svg10.dtd">
<svg version="1.0" xmlns="http://www.w3.org/2000/svg"
 width="300.000000pt" height="367.000000pt" viewBox="0 0 300.000000 367.000000"
 preserveAspectRatio="xMidYMid meet">

<g transform="translate(0.000000,367.000000) scale(0.100000,-0.100000)"
fill="#000000" stroke="none">
<path d="M656 3542 c-4 -6 6 -12 21 -15 27 -4 27 -4 -4 -6 -17 0 -33 4 -35 10
-3 8 -17 7 -47 -4 -28 -9 -39 -17 -30 -21 8 -3 3 -4 -9 -2 -36 7 -137 -53
-207 -121 -50 -50 -105 -112 -105 -119 0 -4 -6 -15 -14 -23 -29 -34 -65 -111
-59 -128 4 -9 2 -14 -3 -10 -6 3 -17 -15 -25 -41 -19 -63 -20 -393 -1 -400 6
-2 12 -15 12 -28 0 -14 4 -23 9 -20 5 4 7 -4 3 -16 -4 -16 -2 -20 10 -15 12 4
14 1 11 -13 -11 -42 178 -273 208 -254 7 4 9 3 6 -3 -4 -6 12 -23 36 -39 23
-16 44 -32 45 -36 2 -5 8 -8 14 -8 5 0 24 -6 41 -14 53 -23 128 -48 132 -45 2
2 6 76 10 165 l8 161 -44 25 c-146 86 -223 233 -204 387 15 120 107 246 217
297 56 26 74 29 163 29 89 0 106 -3 156 -27 33 -17 80 -53 113 -88 l57 -60 90
0 c96 0 99 2 79 55 -6 15 -16 32 -23 40 -6 7 -21 26 -32 41 -57 81 -160 156
-275 203 -25 10 -25 10 7 10 17 1 38 -6 47 -14 8 -8 24 -15 34 -15 11 0 22 -6
24 -12 7 -20 58 7 58 30 0 26 10 33 31 21 29 -15 25 -49 -5 -49 -27 0 -44 -16
-24 -23 7 -2 2 -2 -12 0 -25 4 -25 4 5 -21 33 -28 55 -34 35 -11 -16 19 -1 19
24 0 11 -8 14 -15 8 -15 -15 0 -16 -27 -1 -36 6 -3 15 -1 19 6 5 8 10 9 14 2
3 -6 0 -12 -6 -15 -7 -2 -10 -8 -6 -12 4 -4 15 -2 24 6 16 13 17 11 11 -12 -5
-20 -1 -33 17 -52 13 -14 31 -45 40 -69 l17 -43 47 4 c26 2 50 8 54 15 6 8 8
8 8 0 0 -7 6 -14 13 -17 10 -4 13 2 9 19 -2 13 -8 24 -12 24 -4 0 -11 16 -14
35 -9 46 -21 44 -45 -5 -15 -32 -16 -40 -5 -40 8 0 14 -5 14 -11 0 -21 -34 -3
-40 22 -7 26 17 69 39 69 16 0 14 8 -16 57 -29 48 -152 183 -166 183 -5 0 -28
14 -52 30 -24 17 -51 30 -59 30 -9 0 -16 5 -16 10 0 6 -4 10 -10 10 -5 0 -10
-7 -10 -16 0 -8 -5 -12 -11 -9 -6 4 -8 13 -5 21 4 9 -2 14 -17 14 -13 0 -29 6
-35 13 -17 16 -346 24 -356 9z m317 -19 c-7 -2 -19 -2 -25 0 -7 3 -2 5 12 5
14 0 19 -2 13 -5z m-123 -13 c-19 -4 -29 -8 -21 -9 8 0 12 -4 8 -7 -3 -3 -16
1 -29 10 -22 16 -21 16 27 15 48 -2 48 -2 15 -9z m-243 -6 c-3 -3 -12 -4 -19
-1 -8 3 -5 6 6 6 11 1 17 -2 13 -5z m433 -4 c0 -5 -18 -10 -40 -10 -22 0 -40
5 -40 10 0 6 18 10 40 10 22 0 40 -4 40 -10z m-363 -33 c-1 -5 4 -12 12 -15
10 -3 11 0 5 9 -6 11 -3 10 11 -1 10 -8 16 -10 12 -3 -9 14 33 30 42 15 3 -5
15 -12 26 -14 11 -3 -5 -8 -35 -12 -33 -5 -66 -3 -82 3 -32 12 -37 30 -9 28
11 0 19 -5 18 -10z m263 3 c0 -5 -7 -7 -15 -4 -8 4 -15 8 -15 10 0 2 7 4 15 4
8 0 15 -4 15 -10z m-430 -10 c0 -5 12 -10 26 -10 22 0 25 -2 14 -15 -8 -9 -9
-15 -2 -15 6 0 14 5 17 10 3 6 16 10 28 9 14 0 16 -2 7 -6 -8 -2 -25 -9 -37
-15 -30 -15 -93 -2 -93 19 0 15 1 15 18 0 12 -11 22 -13 32 -7 13 8 13 10 -1
10 -9 0 -22 7 -29 15 -10 12 -10 15 4 15 9 0 16 -4 16 -10z m345 -11 c-6 -9 7
-13 32 -10 6 1 14 -3 18 -9 8 -13 25 -13 25 1 0 5 -4 8 -9 4 -6 -3 -15 4 -21
15 -11 20 -10 21 9 11 11 -6 22 -15 25 -20 5 -8 64 -5 94 4 6 3 12 -1 12 -8 0
-8 4 -7 10 3 7 12 12 12 21 3 25 -25 -47 -32 -246 -25 l-60 2 40 24 c39 22 62
25 50 5z m255 -3 c0 -3 -4 -8 -10 -11 -5 -3 -10 -1 -10 4 0 6 5 11 10 11 6 0
10 -2 10 -4z m20 -16 c0 -15 -6 -20 -27 -19 -28 0 -28 1 -5 11 12 6 22 15 22
20 0 4 2 8 5 8 3 0 5 -9 5 -20z m-395 -10 c4 -6 -7 -10 -27 -9 -31 1 -32 1 -8
9 14 4 26 8 27 9 1 1 5 -3 8 -9z m-282 -7 c-7 -2 -9 -11 -6 -20 5 -13 0 -15
-25 -11 -18 2 -32 1 -32 -4 0 -5 -4 -7 -10 -3 -17 11 20 40 53 41 17 1 27 -1
20 -3z m197 -3 c34 -1 10 -14 -57 -31 -29 -7 -53 -16 -53 -19 0 -3 -27 -24
-60 -45 -33 -21 -60 -42 -60 -46 0 -5 -11 -20 -25 -35 -14 -15 -35 -43 -46
-61 -12 -19 -24 -31 -27 -28 -3 3 0 11 6 17 17 17 15 25 -8 31 -15 4 -20 0
-20 -13 0 -10 -3 -25 -6 -34 -4 -11 -1 -16 11 -16 9 0 15 -3 13 -7 -2 -5 -12
-25 -21 -46 -10 -21 -22 -35 -27 -32 -6 3 -10 2 -10 -4 0 -5 6 -12 13 -15 10
-5 9 -7 0 -12 -15 -7 -19 -263 -5 -280 5 -5 15 -36 22 -69 7 -33 16 -62 19
-65 4 -3 21 -25 38 -50 17 -25 53 -66 81 -92 28 -27 46 -48 39 -49 -7 0 -5 -3
3 -6 8 -3 48 -21 88 -39 41 -19 80 -34 88 -34 8 0 14 -7 14 -15 0 -20 -1 -20
-59 14 -28 17 -48 24 -45 16 3 -7 -2 -15 -13 -17 -15 -3 -15 -5 5 -10 12 -3
20 -2 16 3 -7 11 7 11 25 0 14 -9 7 -31 -11 -31 -5 0 -26 7 -44 16 -28 13 -40
14 -60 6 -19 -10 -24 -9 -24 3 0 8 7 15 15 15 8 0 15 7 15 15 0 18 17 20 23 3
3 -9 8 -10 16 -3 8 8 -3 19 -39 40 -28 16 -50 35 -50 41 0 12 -28 29 -43 25
-5 -1 -6 3 -3 8 4 5 -6 22 -20 36 l-27 27 7 -27 c5 -20 3 -26 -6 -23 -8 3 -13
21 -13 46 0 28 -6 45 -18 54 -9 7 -20 30 -22 52 -3 21 -8 43 -12 49 -9 16 -22
-23 -17 -53 4 -22 3 -23 -5 -5 -8 18 -10 16 -10 -10 -1 -17 4 -36 10 -42 7 -7
6 -12 -5 -16 -11 -4 -16 -1 -16 11 0 10 -5 23 -12 30 -8 8 -8 15 1 26 9 11 9
17 -2 28 -8 8 -18 28 -21 44 -5 24 -3 31 8 31 10 0 18 -13 22 -34 3 -18 10
-33 15 -33 17 0 20 68 5 119 -8 28 -12 51 -9 51 3 0 0 7 -7 15 -10 13 -10 19
4 33 9 10 14 21 11 24 -11 11 -14 49 -3 42 6 -4 9 -1 6 7 -3 8 -13 13 -22 11
-15 -3 -16 0 -6 19 9 16 14 18 20 9 5 -8 8 1 7 23 0 20 -3 34 -6 32 -4 -2 -6
12 -6 31 0 23 4 33 13 29 6 -2 12 1 12 7 0 6 3 8 6 5 4 -4 1 -13 -6 -22 -17
-21 -5 -31 14 -12 13 12 14 25 7 63 -8 40 -6 50 7 60 9 7 20 10 24 8 4 -2 9 0
13 5 3 6 13 7 21 4 13 -5 15 -1 9 18 -10 31 -32 52 -46 43 -8 -5 -8 -1 0 14
13 25 14 43 1 22 -5 -8 -12 -12 -15 -9 -3 4 1 11 9 18 11 9 17 8 29 -3 8 -8
18 -12 23 -8 5 4 2 -1 -6 -11 -12 -16 -11 -21 10 -40 19 -19 22 -19 16 -4 -5
15 -2 17 14 12 14 -4 20 -2 20 9 0 9 9 21 19 28 15 9 17 15 9 25 -8 10 -6 13
5 13 10 0 14 6 11 15 -4 10 0 15 15 15 12 0 21 -6 21 -15 0 -8 5 -15 10 -15 6
0 10 7 10 15 0 15 35 39 48 32 4 -3 18 0 32 5 24 10 24 10 5 19 -17 8 -16 9 5
4 14 -2 36 -5 50 -5z m672 -108 c-17 -5 -15 -22 3 -22 8 0 15 -7 15 -15 0 -8
5 -15 10 -15 6 0 10 6 10 13 0 8 4 7 10 -3 5 -8 10 -19 10 -25 0 -5 -5 -3 -10
5 -8 12 -10 11 -10 -7 0 -17 -5 -22 -20 -20 -11 2 -23 6 -26 10 -4 4 -13 2
-21 -5 -7 -6 -16 -9 -18 -6 -8 8 6 39 15 33 4 -3 10 4 13 15 3 13 -8 31 -40
60 -24 22 -49 38 -54 35 -5 -4 -6 1 -3 9 6 16 24 22 24 8 0 -4 10 -12 23 -17
12 -6 21 -17 19 -24 -1 -7 2 -10 8 -6 5 3 10 -1 10 -9 0 -9 5 -16 10 -16 18 0
11 16 -20 46 -16 16 -29 34 -29 39 0 6 18 -10 41 -34 25 -27 37 -46 30 -49z
m-942 43 c0 -7 -6 -15 -14 -18 -9 -4 -13 2 -13 18 0 16 4 22 13 18 8 -3 14
-11 14 -18z m-88 -110 c0 -5 -5 -11 -11 -13 -6 -2 -11 4 -11 13 0 9 5 15 11
13 6 -2 11 -8 11 -13z m-56 -67 c0 -13 4 -32 8 -43 5 -13 5 -16 -1 -7 -12 15
-33 -26 -33 -63 0 -16 -6 -25 -15 -25 -10 0 -15 11 -15 35 0 24 5 35 15 35 15
0 32 46 21 57 -3 3 -1 12 5 20 14 17 14 17 15 -9z m-60 -184 c1 -19 -2 -34 -7
-34 -6 0 -7 -4 -4 -10 3 -5 2 -10 -3 -10 -15 0 -21 62 -8 82 14 22 20 15 22
-28z m40 -111 c-11 -11 -17 4 -9 23 7 18 8 18 11 1 2 -10 1 -21 -2 -24z m-59
-15 c-3 -7 -5 -2 -5 12 0 14 2 19 5 13 2 -7 2 -19 0 -25z m54 -71 c-13 -13
-15 1 -4 30 7 17 8 17 11 -1 2 -10 -1 -23 -7 -29z m-42 -17 c0 -9 -4 -8 -9 5
-5 11 -9 27 -9 35 0 9 4 8 9 -5 5 -11 9 -27 9 -35z m-11 -55 c0 -16 -2 -15 -8
5 -11 34 -11 60 0 35 5 -11 8 -29 8 -40z m62 -154 c0 -6 -4 -13 -10 -16 -5 -3
-10 1 -10 9 0 9 5 16 10 16 6 0 10 -4 10 -9z m97 -17 c-3 -3 -12 -4 -19 -1 -8
3 -5 6 6 6 11 1 17 -2 13 -5z m-36 -31 c1 -10 1 -23 0 -30 -1 -7 8 -17 20 -23
13 -8 19 -18 16 -30 -5 -21 38 -76 48 -61 9 15 28 14 22 -2 -3 -8 5 -12 22
-12 42 0 40 -20 -1 -21 -32 -1 -45 6 -83 45 -30 30 -44 52 -41 64 3 14 0 16
-14 12 -10 -3 -21 -1 -25 4 -4 7 1 8 11 4 17 -6 17 -5 1 17 -23 32 -21 50 3
50 12 0 20 -7 21 -17z m239 -244 c0 -5 -9 -9 -20 -9 -22 0 -27 16 -7 23 15 5
27 -1 27 -14z m124 7 c-7 -18 -34 -29 -34 -15 0 6 -4 7 -10 4 -5 -3 -7 0 -5 7
3 8 16 15 30 16 17 1 23 -2 19 -12z m-84 -36 c0 -5 -10 -10 -22 -10 -19 0 -20
2 -8 10 19 13 30 13 30 0z m67 -36 c-3 -3 -12 -4 -19 -1 -8 3 -5 6 6 6 11 1
17 -2 13 -5z m33 -8 c0 -3 -4 -8 -10 -11 -5 -3 -10 -1 -10 4 0 6 5 11 10 11 6
0 10 -2 10 -4z"/>
<path d="M1781 3513 c3 -19 -2 -23 -20 -14 -14 8 -27 6 -51 -5 -37 -19 -35
-29 4 -15 17 7 26 7 26 1 0 -6 -9 -10 -19 -10 -11 0 -23 -5 -27 -11 -11 -18
58 1 82 22 29 27 107 26 133 -2 15 -16 27 -20 48 -15 18 4 23 3 15 -2 -11 -7
-8 -15 12 -35 14 -14 26 -23 27 -19 0 4 4 -3 9 -15 6 -15 15 -21 25 -17 8 3
15 2 15 -4 0 -25 -28 -16 -65 23 -22 22 -53 46 -68 53 -39 17 -156 15 -190 -3
-32 -16 -58 -15 -80 3 -13 11 -19 8 -36 -17 -12 -16 -18 -36 -15 -45 5 -12 2
-15 -12 -9 -13 5 -16 3 -11 -10 4 -10 2 -16 -5 -14 -16 3 -26 -38 -27 -116 -1
-45 3 -66 9 -62 7 4 9 -2 5 -17 -4 -16 1 -38 16 -64 22 -40 78 -98 86 -90 3 3
-10 18 -29 34 -18 17 -30 33 -27 36 3 4 21 -9 40 -29 33 -34 59 -45 59 -25 0
6 -7 13 -16 17 -9 3 -28 17 -42 29 -14 13 -31 24 -39 24 -8 0 -13 6 -12 13 4
30 -2 58 -11 52 -12 -7 -12 -7 0 78 6 38 16 78 22 90 7 12 11 26 10 31 -4 11
17 35 42 48 20 10 20 10 5 -8 -43 -52 -61 -100 -62 -160 -1 -76 19 -119 75
-168 57 -49 62 -53 79 -59 8 -2 2 -3 -12 -1 -34 4 -70 -6 -63 -17 3 -5 21 -16
41 -24 40 -17 188 -21 198 -5 3 6 15 10 26 10 10 0 24 9 31 20 7 11 18 20 24
20 27 0 94 102 94 143 0 16 4 26 10 22 6 -4 10 19 9 62 0 37 -3 61 -6 53 -9
-22 -32 -42 -42 -36 -5 3 -11 18 -13 33 -3 16 -9 36 -13 46 -4 10 -3 17 4 17
6 0 11 -7 11 -15 0 -8 5 -14 12 -12 6 1 15 -9 19 -23 6 -18 8 -13 5 22 -2 34
-12 58 -35 87 -40 51 -93 90 -99 73 -4 -14 -42 -16 -42 -2 0 6 7 10 15 10 21
0 19 19 -2 20 -10 0 -49 3 -86 6 -37 3 -67 2 -66 -3z m167 -178 c28 -31 32
-41 32 -92 0 -98 -52 -154 -142 -153 -118 2 -190 108 -140 206 25 48 40 62 88
79 56 19 122 3 162 -40z m-371 -27 c-3 -8 -6 -5 -6 6 -1 11 2 17 5 13 3 -3 4
-12 1 -19z m533 -78 c0 -5 -6 -10 -13 -10 -7 0 -12 -12 -12 -27 0 -33 -19 -43
-23 -13 -2 12 4 30 14 41 19 21 34 25 34 9z m-530 -26 c0 -8 -4 -14 -10 -14
-5 0 -10 9 -10 21 0 11 5 17 10 14 6 -3 10 -13 10 -21z m491 -84 c5 0 9 -4 9
-10 0 -5 -7 -6 -17 -3 -10 4 -14 2 -10 -4 14 -22 -4 -43 -29 -37 -15 4 -24 2
-24 -6 0 -27 -59 -61 -103 -59 -14 0 -17 2 -7 6 46 15 100 48 105 64 4 11 10
19 14 19 3 0 15 15 26 33 15 25 20 28 23 15 2 -10 8 -18 13 -18z m-46 -80 c3
-5 1 -10 -4 -10 -6 0 -11 5 -11 10 0 6 2 10 4 10 3 0 8 -4 11 -10z m-170 -50
c-3 -5 -15 -10 -26 -10 -10 0 -19 -3 -19 -7 0 -5 -13 -8 -29 -8 -16 0 -27 3
-24 8 2 4 13 7 23 7 10 0 22 5 25 10 3 6 17 10 31 10 14 0 22 -4 19 -10z m50
-20 c-11 -5 -29 -9 -40 -9 -17 -1 -17 1 -5 9 8 5 26 9 40 9 23 0 23 -1 5 -9z"/>
<path d="M2072 3190 c0 -14 2 -19 5 -12 2 6 2 18 0 25 -3 6 -5 1 -5 -13z"/>
<path d="M2030 3084 c0 -8 5 -12 10 -9 6 4 8 11 5 16 -9 14 -15 11 -15 -7z"/>
<path d="M2345 3488 c-83 -45 -127 -137 -105 -218 44 -163 242 -204 340 -69
69 95 37 235 -67 288 -28 14 -142 14 -168 -1z m181 -82 c29 -29 34 -41 34 -80
0 -88 -51 -146 -127 -146 -55 0 -98 22 -123 63 -34 55 -23 127 26 172 23 21
37 25 91 25 61 0 67 -2 99 -34z"/>
<path d="M2394 3381 c3 -5 -2 -8 -12 -7 -11 0 -18 -7 -20 -22 -2 -12 -8 -20
-13 -17 -5 4 -9 -5 -9 -19 0 -14 5 -26 10 -26 6 0 10 -10 10 -21 0 -16 5 -20
20 -16 12 3 18 1 14 -5 -4 -6 4 -8 17 -7 13 2 30 0 37 -4 7 -5 12 -4 12 2 0 6
7 11 15 11 9 0 18 7 21 15 7 17 -14 76 -30 87 -7 5 -4 8 7 8 11 0 17 -8 18
-22 1 -20 2 -20 6 -4 7 26 -33 55 -75 56 -18 0 -31 -4 -28 -9z m51 -11 c3 -5
2 -10 -4 -10 -5 0 -13 5 -16 10 -3 6 -2 10 4 10 5 0 13 -4 16 -10z m-42 -18
c3 10 7 10 17 1 7 -6 9 -16 6 -22 -8 -12 -56 6 -56 22 0 5 6 4 14 -2 11 -9 15
-9 19 1z"/>
<path d="M1818 3483 c12 -2 32 -2 45 0 12 2 2 4 -23 4 -25 0 -35 -2 -22 -4z"/>
<path d="M1666 3457 c3 -10 9 -15 12 -12 3 3 0 11 -7 18 -10 9 -11 8 -5 -6z"/>
<path d="M1604 2946 c-3 -14 -3 -33 0 -44 4 -10 4 -27 0 -35 -5 -15 -8 -15
-27 -2 -48 33 -107 10 -127 -50 -32 -96 49 -178 132 -134 14 8 23 8 31 0 6 -6
17 -11 24 -11 10 0 13 34 13 150 0 143 -1 150 -20 150 -12 0 -22 -9 -26 -24z
m-20 -122 c22 -22 20 -77 -3 -98 -26 -23 -60 -17 -84 15 -43 58 36 134 87 83z"/>
<path d="M2290 2943 c-37 -25 -49 -43 -30 -43 17 0 90 39 90 49 0 19 -27 16
-60 -6z"/>
<path d="M759 2953 c-1 -5 -1 -69 -1 -143 l1 -135 25 -3 c26 -3 26 -2 26 62
l0 66 65 0 c58 0 65 2 65 20 0 18 -7 20 -65 20 l-65 0 0 44 0 45 70 -6 c67 -6
70 -5 70 16 0 20 -5 21 -95 21 -52 0 -95 -3 -96 -7z"/>
<path d="M2115 2930 c-9 -15 4 -30 26 -30 12 0 19 7 19 20 0 21 -33 29 -45 10z"/>
<path d="M1734 2868 c-12 -5 -30 -27 -39 -47 -32 -72 10 -151 80 -151 17 0 36
5 43 12 9 9 17 8 37 -2 14 -7 28 -10 31 -7 4 4 7 47 8 97 1 69 -2 91 -13 95
-8 3 -18 0 -22 -6 -5 -9 -13 -7 -30 5 -26 18 -63 20 -95 4z m100 -50 c46 -66
-28 -144 -86 -91 -22 20 -23 70 -1 95 23 25 68 23 87 -4z"/>
<path d="M1961 2854 c-39 -32 -49 -80 -26 -127 20 -43 50 -59 101 -55 27 2 40
8 42 21 3 13 -4 17 -30 17 -49 0 -78 24 -78 64 0 43 28 69 71 64 40 -4 50 18
14 32 -41 15 -61 12 -94 -16z"/>
<path d="M2251 2867 c-38 -19 -64 -71 -57 -112 16 -81 114 -114 169 -57 35 36
43 81 23 120 -30 57 -82 76 -135 49z m87 -49 c17 -15 15 -68 -5 -90 -44 -49
-119 9 -93 72 16 39 61 47 98 18z"/>
<path d="M1000 2860 c-24 -15 -21 -142 4 -169 21 -24 66 -28 96 -9 15 10 22
10 32 0 6 -6 20 -12 30 -12 17 0 18 9 16 98 -3 89 -5 97 -23 97 -18 0 -21 -8
-25 -70 -5 -65 -7 -70 -33 -79 -48 -17 -62 1 -62 79 0 69 -7 83 -35 65z"/>
<path d="M1236 2862 c-16 -3 -18 -10 -12 -49 3 -25 6 -68 6 -94 0 -42 3 -49
20 -49 18 0 20 7 20 69 0 72 8 88 49 96 38 7 53 -21 49 -94 -3 -62 -2 -66 20
-69 21 -3 22 -1 22 78 0 105 -8 120 -63 120 -24 0 -48 -5 -55 -12 -7 -7 -15
-8 -24 -1 -7 5 -21 8 -32 5z"/>
<path d="M2114 2857 c-3 -8 -4 -52 -2 -98 3 -78 4 -84 26 -87 22 -3 22 -1 22
97 0 95 -1 101 -20 101 -11 0 -23 -6 -26 -13z"/>
<path d="M2440 2770 c0 -73 3 -90 15 -90 12 0 15 15 15 74 0 46 4 76 11 78 6
2 0 9 -15 16 l-26 12 0 -90z m17 -52 c-3 -7 -5 -2 -5 12 0 14 2 19 5 13 2 -7
2 -19 0 -25z"/>
<path d="M2580 2765 c0 -47 4 -85 9 -85 5 0 9 38 9 85 0 47 -4 85 -9 85 -5 0
-9 -38 -9 -85z"/>
<path d="M758 2623 c-2 -5 -3 -82 -3 -173 l0 -165 28 -3 27 -3 0 120 c0 67 3
121 8 121 4 0 48 -54 97 -120 77 -102 94 -120 118 -120 l27 0 2 145 c1 80 2
157 2 173 1 24 -3 27 -29 27 l-30 0 2 -117 c2 -89 0 -118 -10 -118 -6 1 -34
33 -62 72 -92 131 -125 168 -150 168 -13 0 -25 -3 -27 -7z"/>
<path d="M2578 2613 c-17 -4 -26 -23 -10 -23 9 0 6 -205 -3 -220 -4 -6 -1 -18
6 -26 9 -11 9 -18 1 -26 -18 -18 -14 -28 8 -28 19 0 20 7 20 165 0 91 -1 164
-2 164 -2 -1 -11 -3 -20 -6z"/>
<path d="M1626 2595 c-22 -22 -9 -47 23 -43 29 3 42 35 19 49 -18 12 -24 11
-42 -6z"/>
<path d="M1459 2515 c-41 -22 -59 -58 -59 -117 0 -60 16 -90 60 -113 55 -29
129 -11 114 28 -5 13 -14 16 -38 12 -72 -14 -117 78 -65 134 18 19 28 22 59
17 30 -5 39 -2 44 11 15 38 -62 57 -115 28z"/>
<path d="M1163 2510 c-45 -18 -69 -115 -42 -172 12 -28 68 -68 93 -68 10 0 33
7 52 16 33 16 36 16 48 -1 8 -11 20 -16 29 -12 12 5 15 26 15 121 0 102 -2
116 -17 116 -9 0 -22 -5 -27 -10 -8 -8 -15 -6 -24 5 -14 17 -90 20 -127 5z
m117 -52 c26 -28 26 -78 -1 -112 -25 -32 -59 -33 -86 -3 -28 31 -34 53 -22 85
20 54 73 69 109 30z"/>
<path d="M1750 2490 c-56 -60 -45 -159 22 -200 53 -32 94 -27 139 19 34 34 39
44 39 86 0 85 -41 125 -126 125 -38 0 -51 -5 -74 -30z m127 -28 c35 -22 32
-100 -4 -128 -62 -47 -136 32 -98 105 13 26 21 31 53 31 20 0 42 -4 49 -8z"/>
<path d="M2081 2504 c-17 -12 -26 -13 -34 -5 -6 6 -21 11 -34 11 -22 0 -22 -1
-19 -107 2 -60 4 -111 5 -115 0 -5 12 -8 26 -8 25 0 25 1 25 78 0 89 14 112
67 112 39 0 43 -11 43 -111 0 -78 0 -79 25 -79 l25 0 0 100 c0 87 -3 103 -20
120 -24 24 -77 26 -109 4z"/>
<path d="M2297 2509 c-21 -12 -44 -54 -50 -94 -7 -43 18 -96 56 -122 41 -28
63 -29 104 -3 33 19 33 19 43 -1 6 -11 19 -19 28 -17 13 3 16 21 17 121 l1
119 -33 -5 c-18 -3 -35 -1 -38 4 -8 12 -105 11 -128 -2z m123 -54 c14 -15 23
-37 23 -55 0 -36 -37 -80 -68 -80 -32 0 -75 47 -75 82 0 35 40 78 73 78 13 0
34 -11 47 -25z"/>
<path d="M1618 2503 c-2 -5 -2 -56 0 -115 3 -107 4 -108 28 -108 24 0 24 1 24
93 0 50 3 102 6 115 6 19 3 22 -24 22 -17 0 -32 -3 -34 -7z"/>
<path d="M763 2028 l2 -213 38 -3 37 -3 0 55 0 56 79 0 c64 0 84 4 111 23 58
39 75 71 75 141 0 53 -4 68 -28 100 -16 20 -40 41 -54 47 -13 5 -78 9 -143 9
l-118 0 1 -212z m242 127 c34 -33 35 -103 2 -141 -20 -23 -34 -28 -83 -31 -32
-2 -64 0 -71 4 -13 9 -17 50 -15 136 l2 57 70 0 c62 0 74 -3 95 -25z"/>
<path d="M2544 2205 c3 -11 6 -102 6 -202 l0 -183 25 0 25 0 0 205 0 205 -31
-2 c-25 -2 -29 -6 -25 -23z m35 -133 c-2 -96 -6 -86 -11 25 -2 39 0 69 4 67 4
-3 7 -44 7 -92z m0 -209 c0 -29 -2 -33 -8 -18 -7 18 -4 55 5 55 2 0 4 -17 3
-37z"/>
<path d="M2323 2111 c-50 -9 -68 -23 -94 -72 -59 -118 23 -247 149 -234 69 7
121 50 93 78 -8 8 -20 6 -46 -6 -48 -23 -87 -21 -119 4 -52 41 -23 59 99 59
74 0 90 13 81 64 -8 44 -41 85 -82 102 -19 8 -35 13 -36 13 -2 -1 -22 -5 -45
-8z m77 -78 c20 -26 20 -28 4 -40 -20 -14 -120 -18 -128 -5 -3 5 4 23 14 40
26 43 78 45 110 5z"/>
<path d="M1197 2090 c-39 -31 -57 -71 -57 -130 0 -60 18 -100 58 -129 47 -33
76 -35 127 -11 43 21 47 21 59 5 7 -10 22 -15 35 -13 23 3 23 5 24 143 0 129
-1 140 -18 144 -10 2 -25 -5 -32 -15 -14 -18 -15 -18 -29 1 -11 14 -29 20 -77
23 -52 3 -66 1 -90 -18z m130 -39 c6 -1 21 -17 33 -36 29 -47 21 -94 -21 -129
-23 -20 -37 -24 -57 -20 -39 9 -72 45 -79 87 -5 32 -1 41 30 72 25 25 42 34
59 31 12 -3 28 -5 35 -5z"/>
<path d="M1520 2101 c-15 -5 -23 -13 -20 -22 3 -8 6 -70 7 -139 l2 -125 33 0
33 0 -3 96 c-4 107 7 132 57 129 46 -3 51 -1 51 30 0 27 -3 30 -31 30 -17 0
-40 -5 -51 -11 -17 -9 -24 -8 -33 5 -7 9 -14 16 -16 15 -2 -1 -15 -4 -29 -8z"/>
<path d="M1770 2097 c-64 -33 -89 -148 -47 -221 41 -72 118 -92 185 -48 23 15
25 15 37 -1 7 -9 24 -17 38 -17 l25 0 -1 128 c0 70 1 134 4 142 6 21 -49 27
-57 6 -5 -14 -9 -13 -31 4 -30 23 -113 27 -153 7z m148 -73 c41 -46 20 -132
-38 -153 -41 -14 -72 -1 -100 43 -27 45 -20 86 22 121 37 31 82 27 116 -11z"/>
<path d="M755 1768 c-3 -8 -4 -77 -3 -153 l3 -140 93 -3 93 -3 34 34 c58 58
67 142 23 215 -26 42 -45 49 -152 58 -70 5 -87 4 -91 -8z m188 -69 c22 -24 27
-38 27 -80 0 -43 -5 -55 -29 -80 -25 -24 -37 -29 -80 -29 l-51 0 0 109 c0 122
0 122 70 113 22 -2 45 -15 63 -33z"/>
<path d="M2217 1774 c-4 -4 -7 -74 -7 -155 0 -128 2 -148 17 -153 9 -4 20 -3
24 1 9 10 17 303 7 303 -3 0 -13 2 -20 5 -8 3 -17 2 -21 -1z"/>
<path d="M2334 1772 c-20 -3 -21 -8 -20 -152 1 -146 6 -169 33 -152 11 7 23
297 13 304 -3 2 -14 2 -26 0z"/>
<path d="M1098 1668 c-30 -25 -48 -63 -48 -101 0 -31 7 -46 34 -73 42 -42 97
-47 140 -13 38 30 21 44 -32 28 -35 -10 -45 -10 -67 5 -38 25 -31 34 33 41 31
3 64 7 72 8 9 1 16 15 18 33 4 45 -38 84 -92 84 -23 0 -49 -6 -58 -12z m96
-44 c10 -26 -2 -34 -50 -34 -45 0 -57 13 -32 38 18 18 75 15 82 -4z"/>
<path d="M1292 1657 c-33 -35 -28 -64 13 -88 42 -25 48 -59 10 -59 -27 0 -44
-25 -29 -40 16 -16 79 8 94 35 17 32 1 70 -35 87 -29 13 -34 48 -7 48 24 0 32
8 25 26 -8 22 -47 17 -71 -9z"/>
<path d="M1441 1656 c-49 -52 -42 -130 14 -174 32 -26 55 -27 94 -7 25 12 31
13 41 0 6 -7 18 -11 26 -8 11 4 14 28 14 104 0 91 -2 99 -19 99 -11 0 -23 -5
-27 -11 -5 -8 -10 -6 -16 5 -15 27 -99 22 -127 -8z m123 -38 c46 -65 -25 -141
-89 -94 -20 15 -23 62 -5 95 15 30 73 29 94 -1z"/>
<path d="M1683 1673 c-9 -3 -13 -34 -13 -104 0 -99 0 -99 25 -99 24 0 25 2 25
69 0 74 13 98 48 87 14 -5 21 -1 25 13 7 30 -10 41 -46 28 -23 -8 -32 -7 -35
1 -4 13 -9 14 -29 5z"/>
<path d="M1834 1672 c-7 -5 -9 -41 -5 -107 5 -84 9 -100 24 -103 15 -3 17 5
17 71 0 81 10 100 48 90 24 -6 39 16 29 41 -5 12 -13 13 -42 5 -24 -7 -40 -7
-49 0 -6 5 -16 7 -22 3z"/>
<path d="M1998 1653 c-49 -52 -45 -119 8 -168 34 -31 77 -32 121 -2 36 24 45
42 45 92 0 67 -36 105 -101 105 -39 0 -52 -5 -73 -27z m114 -30 c22 -20 23
-70 1 -95 -36 -40 -103 -10 -103 45 0 58 60 88 102 50z"/>
<path d="M2443 1645 c-37 -39 -45 -92 -17 -119 8 -9 12 -16 7 -16 -4 -1 3 -10
16 -20 24 -20 91 -28 91 -11 0 5 9 13 20 16 11 3 20 13 20 21 0 8 5 14 10 14
6 0 10 17 10 39 0 37 -14 59 -64 99 -26 21 -60 13 -93 -23z m113 -22 c20 -22
25 -35 21 -61 -7 -43 -28 -62 -69 -63 -31 -1 -31 -1 -8 -9 19 -6 20 -8 6 -9
-34 -2 -96 84 -76 105 4 5 10 18 12 29 3 18 31 32 71 34 10 1 29 -11 43 -26z"/>
<path d="M1254 1412 c-12 -8 -104 -246 -104 -269 0 -25 44 -11 50 17 6 23 10
25 70 25 61 0 66 -2 78 -27 15 -32 52 -39 52 -10 0 10 -4 22 -8 27 -5 6 -17
33 -26 60 -64 181 -77 201 -112 177z m41 -105 c4 -17 12 -38 18 -45 16 -20 -5
-34 -44 -30 -38 3 -41 19 -14 84 17 41 30 38 40 -9z"/>
<path d="M967 1283 c1 -71 2 -134 2 -140 1 -7 10 -13 21 -13 19 0 20 7 20 140
0 139 0 140 -22 140 -23 0 -23 -1 -21 -127z"/>
<path d="M2326 1273 c4 -76 8 -140 10 -142 2 -2 10 -1 19 2 12 5 15 29 15 142
l0 135 -25 0 -25 0 6 -137z"/>
<path d="M1580 1351 c0 -29 -2 -31 -39 -31 -22 0 -43 -5 -47 -11 -4 -8 -9 -8
-17 0 -6 6 -19 11 -29 11 -16 0 -18 -10 -18 -95 0 -95 0 -95 25 -95 24 0 25 2
25 70 0 70 3 75 39 70 8 -1 17 3 21 10 4 6 14 8 23 4 13 -5 17 -19 17 -64 0
-83 4 -90 56 -90 37 0 44 3 44 19 0 15 -5 18 -21 14 -28 -8 -39 11 -39 69 0
44 2 47 27 50 17 2 29 10 31 21 3 13 -3 17 -28 17 -28 0 -30 3 -28 28 2 21 -2
28 -19 30 -20 3 -23 -1 -23 -27z"/>
<path d="M784 1307 c-36 -31 -45 -111 -18 -145 27 -33 90 -45 132 -25 34 16
39 40 6 35 -76 -14 -80 -13 -98 7 -22 24 -18 26 67 36 63 7 71 20 42 74 -24
48 -86 56 -131 18z m80 -23 c9 -3 16 -15 16 -25 0 -16 -8 -19 -45 -19 -49 0
-50 1 -35 31 11 19 35 24 64 13z"/>
<path d="M1743 1315 c-12 -8 -27 -31 -33 -50 -25 -76 18 -139 96 -139 50 1 87
25 67 45 -8 8 -16 8 -31 0 -30 -16 -57 -13 -75 7 -10 10 -17 21 -17 24 0 3 28
8 61 11 34 3 65 9 71 15 10 10 -6 59 -29 84 -20 22 -81 24 -110 3z m87 -40
c18 -22 3 -35 -41 -35 -25 0 -39 5 -39 13 0 34 57 50 80 22z"/>
<path d="M2009 1313 c-5 -45 7 -93 33 -130 31 -46 31 -83 -1 -83 -25 0 -33
-11 -20 -27 32 -37 91 13 149 126 27 54 25 116 -4 116 -16 0 -20 -7 -21 -41
-1 -40 -26 -94 -44 -94 -16 0 -45 55 -51 95 -3 27 -11 41 -22 43 -10 2 -18 0
-19 -5z"/>
<path d="M2440 1300 c0 -6 22 -9 51 -8 34 2 53 -2 59 -12 7 -12 12 -11 29 5
12 10 19 21 16 24 -4 3 -10 -1 -15 -9 -8 -12 -13 -13 -30 -2 -24 14 -110 16
-110 2z"/>
<path d="M2426 1283 c-11 -11 -6 -109 5 -120 6 -6 18 -9 27 -6 10 4 13 2 8 -5
-4 -7 -2 -13 3 -13 6 -1 17 -2 24 -4 6 -1 27 7 45 17 40 22 42 22 42 3 0 -8 5
-15 10 -15 6 0 10 30 10 71 0 50 -3 70 -12 67 -7 -3 -12 -23 -13 -45 -2 -68
-61 -104 -108 -65 -25 19 -35 76 -18 96 9 10 8 15 -3 19 -8 3 -17 3 -20 0z"/>
<path d="M864 1071 c-72 -33 -109 -111 -102 -214 5 -79 31 -132 79 -164 73
-48 169 -41 224 17 l29 30 -22 22 -22 22 -24 -23 c-15 -14 -42 -25 -69 -28
-40 -5 -48 -2 -82 29 -30 27 -38 43 -42 80 -8 67 3 112 36 147 38 41 99 43
153 6 27 -18 38 -21 45 -12 21 27 21 45 0 65 -48 45 -133 55 -203 23z"/>
<path d="M1460 874 l0 -205 32 3 32 3 1 203 0 202 -32 0 -33 0 0 -206z"/>
<path d="M1607 1043 c-4 -3 -7 -26 -7 -49 0 -33 -5 -46 -20 -54 -11 -6 -20
-18 -20 -26 0 -9 9 -18 20 -21 18 -5 20 -14 20 -103 0 -117 4 -122 87 -118 54
3 58 5 58 28 0 22 -4 25 -28 22 -46 -6 -57 12 -57 94 l0 74 39 0 c44 0 55 10
46 40 -5 16 -15 20 -46 20 l-39 0 6 40 c6 36 4 40 -20 50 -32 12 -31 12 -39 3z"/>
<path d="M1143 938 c-16 -20 -25 -103 -18 -163 13 -98 82 -134 163 -85 40 25
42 25 42 -1 0 -17 5 -20 33 -17 l32 3 3 115 c4 146 0 162 -36 158 -26 -3 -27
-5 -30 -78 -3 -102 -8 -117 -42 -135 -39 -20 -56 -19 -81 6 -19 19 -21 30 -18
113 4 86 3 91 -17 94 -11 2 -25 -3 -31 -10z"/>
<path d="M1812 938 c-8 -8 -12 -46 -12 -114 0 -87 3 -105 21 -128 26 -33 89
-36 134 -6 38 25 45 25 45 0 0 -16 7 -20 30 -20 l30 0 0 141 0 140 -27 -3
c-28 -3 -28 -4 -33 -93 -3 -49 -8 -95 -13 -102 -4 -6 -23 -17 -42 -23 -68 -23
-90 15 -83 147 3 62 1 68 -17 71 -11 1 -26 -3 -33 -10z"/>
<path d="M2124 913 c3 -21 6 -84 6 -140 l0 -103 30 0 30 0 0 94 c0 104 5 112
60 118 30 3 35 7 38 31 4 35 -15 43 -62 23 -32 -13 -38 -14 -43 -1 -3 9 -18
15 -35 15 -30 0 -30 -1 -24 -37z"/>
<path d="M2364 917 c-19 -17 -29 -37 -35 -77 -6 -35 -5 -56 1 -58 6 -2 8 -8 5
-13 -9 -13 14 -49 31 -49 8 0 13 -4 9 -9 -6 -11 33 -41 55 -41 23 0 120 52
119 64 -4 35 4 36 16 1 18 -48 17 -45 4 -45 -5 0 -8 4 -4 9 3 5 1 12 -5 16 -6
4 -10 -4 -10 -18 0 -20 4 -24 20 -20 26 7 35 22 21 36 -12 12 -16 159 -4 171
4 3 8 15 10 26 3 21 -21 28 -32 10 -9 -15 -42 -12 -49 5 -4 11 -21 15 -65 15
-48 0 -65 -5 -87 -23z m136 -12 c7 -8 23 -15 36 -15 19 0 24 -5 23 -22 -1 -17
-2 -19 -6 -5 -2 9 -9 17 -14 17 -6 0 -6 -7 1 -19 5 -11 10 -32 10 -47 0 -31
-44 -94 -66 -94 -8 0 -13 -4 -9 -10 3 -5 -8 -4 -27 2 -24 9 -33 8 -36 0 -2 -7
-8 -12 -14 -12 -7 0 -6 5 1 14 9 10 7 17 -5 27 -64 53 -33 160 51 172 17 2 33
5 36 6 4 0 12 -6 19 -14z m-120 -9 c0 -3 -4 -8 -10 -11 -5 -3 -10 -1 -10 4 0
6 5 11 10 11 6 0 10 -2 10 -4z m187 -88 c-3 -8 -6 -5 -6 6 -1 11 2 17 5 13 3
-3 4 -12 1 -19z m-197 -58 c0 -5 -4 -10 -10 -10 -5 0 -10 5 -10 10 0 6 5 10
10 10 6 0 10 -4 10 -10z m75 -50 c3 -5 1 -10 -4 -10 -6 0 -11 5 -11 10 0 6 2
10 4 10 3 0 8 -4 11 -10z"/>
<path d="M2798 805 c-5 -38 -8 -122 -8 -185 0 -104 -2 -116 -20 -128 -11 -7
-20 -21 -20 -32 0 -11 9 -29 20 -40 16 -16 20 -33 20 -96 0 -56 3 -75 12 -72
9 3 12 26 10 77 -3 64 -1 76 17 92 26 25 26 40 1 71 -18 23 -20 44 -22 204 -2
145 -4 166 -10 109z"/>
<path d="M1308 464 c-5 -4 -8 -11 -8 -16 0 -10 536 -9 635 2 52 5 15 8 -145 9
-118 1 -273 4 -345 7 -71 4 -133 3 -137 -2z"/>
</g>
</svg>
