<?xml version="1.0" standalone="no"?>
<!DOCTYPE svg PUBLIC "-//W3C//DTD SVG 20010904//EN"
 "http://www.w3.org/TR/2001/REC-SVG-20010904/DTD/svg10.dtd">
<svg version="1.0" xmlns="http://www.w3.org/2000/svg"
 width="411.000000pt" height="539.000000pt" viewBox="0 0 411.000000 539.000000"
 preserveAspectRatio="xMidYMid meet">

<g transform="translate(0.000000,539.000000) scale(0.100000,-0.100000)"
fill="#000000" stroke="none">
<path d="M1870 5345 l0 -45 43 0 c39 0 45 -3 60 -34 l16 -34 -52 0 c-29 0 -59
-1 -67 -1 -8 -1 -43 1 -77 5 -56 6 -65 4 -105 -21 -53 -34 -78 -65 -85 -110
-10 -63 23 -80 92 -46 44 21 61 18 90 -18 34 -42 37 -69 9 -87 -13 -9 -24 -22
-24 -28 0 -7 -6 -21 -14 -32 -14 -19 -15 -19 -40 5 -26 24 -46 25 -115 5 -23
-7 -23 -6 -17 42 10 70 11 113 3 121 -4 3 -19 1 -34 -6 l-28 -11 27 22 c29 25
45 84 29 108 -8 12 -15 13 -42 3 -18 -7 -33 -12 -33 -10 -6 21 -28 43 -46 45
-32 5 -50 -22 -50 -72 l0 -41 -23 29 c-25 31 -57 31 -57 2 0 -12 -7 -14 -29
-10 -16 3 -32 1 -35 -5 -11 -17 20 -76 50 -95 31 -20 64 -51 64 -61 0 -3 -15
-5 -33 -5 -26 0 -35 6 -46 31 -15 33 -43 36 -49 5 -5 -23 17 -66 33 -66 23 0
46 -36 38 -58 -10 -26 -22 -18 -47 31 -11 22 -29 40 -43 43 -25 7 -30 23 -10
43 10 10 8 15 -7 26 -10 8 -24 11 -30 8 -6 -4 0 -10 14 -13 l24 -6 -22 -22
c-12 -12 -28 -19 -37 -16 -17 7 -20 20 -5 29 16 10 12 25 -5 19 -19 -8 -19 7
0 32 19 25 19 63 0 83 -8 9 -24 27 -36 40 l-22 24 -13 -26 c-10 -18 -19 -24
-34 -20 -16 4 -20 1 -20 -18 1 -31 22 -59 50 -64 26 -5 49 -32 50 -59 0 -12
-5 -16 -16 -12 -9 3 -18 6 -20 6 -2 0 -4 6 -4 13 0 17 -32 47 -50 47 -9 0 -11
-11 -7 -39 3 -26 0 -46 -9 -58 -7 -10 -14 -26 -14 -37 0 -15 5 -17 28 -11 15
3 30 12 34 18 22 39 37 52 48 41 8 -8 7 -14 -5 -24 -18 -15 -21 -79 -2 -76 22
3 38 17 49 44 l12 27 4 -25 c2 -14 8 -30 13 -36 5 -6 4 -15 -2 -21 -6 -6 -8
-20 -4 -32 5 -17 11 -20 33 -14 24 6 26 5 13 -10 -18 -22 -33 -21 -54 3 -18
21 -71 27 -82 10 -4 -6 1 -22 9 -35 16 -24 15 -25 -4 -25 -12 0 -18 -4 -15
-10 8 -13 -1 -13 -25 2 -10 7 -23 9 -27 5 -4 -5 -1 -12 7 -17 11 -7 8 -10 -12
-10 -27 0 -41 -20 -15 -20 7 -1 5 -6 -5 -14 -26 -19 -22 -24 15 -22 21 1 32 7
32 16 0 8 12 21 28 28 15 7 27 17 27 21 0 5 10 11 23 13 20 4 22 1 20 -35 -1
-39 -1 -39 30 -34 28 4 34 1 47 -27 9 -19 31 -39 57 -51 35 -17 40 -23 31 -38
-8 -16 -12 -17 -26 -4 -10 7 -34 23 -54 34 -39 23 -48 18 -48 -28 0 -21 -29
-26 -47 -8 -17 17 -36 -27 -30 -67 5 -27 2 -34 -10 -34 -33 0 -99 -40 -118
-72 -12 -20 -22 -59 -25 -98 l-5 -65 -23 32 c-21 30 -21 33 -6 60 18 30 14
101 -6 133 -14 22 -42 1 -56 -40 l-11 -33 -16 23 c-13 19 -13 26 -1 56 16 38
10 107 -11 124 -9 8 -20 2 -40 -22 l-28 -33 7 32 c5 22 2 39 -9 57 -20 30 -33
33 -51 9 -23 -31 -17 -61 16 -78 16 -9 30 -20 30 -24 0 -5 3 -17 6 -25 5 -14
2 -15 -21 -6 -14 5 -36 10 -47 10 -18 0 -20 -4 -14 -32 3 -18 16 -43 29 -56
19 -21 29 -23 68 -19 36 5 47 2 56 -12 9 -15 7 -17 -18 -15 -25 2 -29 -2 -29
-24 0 -18 10 -36 30 -52 22 -19 28 -30 24 -47 -4 -13 -11 -20 -17 -16 -6 3 -7
1 -3 -5 8 -13 -10 -52 -23 -52 -11 0 -21 38 -14 56 3 8 12 14 20 14 8 0 11 5
8 11 -14 21 -47 -23 -43 -58 4 -32 4 -32 -17 -14 -11 10 -29 21 -40 25 -18 7
-18 8 4 19 33 16 65 62 58 81 -13 33 -69 8 -97 -43 -7 -15 -15 -20 -19 -13 -4
6 -24 18 -45 27 l-38 16 7 -38 c8 -45 18 -53 65 -53 25 0 31 -3 21 -9 -8 -5
-16 -18 -17 -28 -2 -10 -12 -24 -23 -32 -13 -8 -21 -24 -21 -41 0 -15 -7 -33
-15 -40 -10 -9 -15 -9 -15 -1 0 6 -4 11 -9 11 -10 0 -9 -26 2 -36 12 -12 47
28 47 52 0 13 10 34 23 47 12 14 29 35 37 47 12 17 22 21 37 16 27 -9 33 -33
16 -68 -12 -25 -48 -46 -60 -35 -11 12 10 48 35 62 26 14 26 14 4 15 -22 0
-62 -49 -62 -78 0 -35 79 -18 98 21 10 20 11 19 11 -14 1 -19 7 -43 14 -53 12
-16 14 -15 36 8 20 22 23 32 19 73 -7 65 -2 77 25 58 55 -38 81 12 32 61 -27
27 -25 44 3 44 28 0 55 -55 46 -93 -4 -18 -6 -42 -5 -54 1 -15 -3 -23 -12 -23
-9 0 -14 -10 -15 -25 0 -29 -18 -55 -38 -55 -8 0 -14 6 -14 14 0 25 12 46 26
46 8 0 14 5 14 10 0 6 -4 10 -8 10 -38 0 -65 -91 -29 -98 23 -5 55 23 59 52 2
13 11 22 26 24 28 4 29 -17 2 -41 -14 -11 -20 -29 -20 -56 0 -32 6 -44 31 -64
l31 -24 -18 -57 c-15 -47 -21 -56 -41 -56 -18 0 -27 -9 -39 -40 -18 -45 -46
-53 -64 -19 -11 20 -9 92 5 171 6 31 4 37 -14 43 -26 8 -72 -23 -99 -68 -24
-39 -72 -192 -72 -231 0 -38 17 -66 40 -66 11 0 20 -7 20 -15 0 -10 -10 -15
-32 -15 -17 0 -29 3 -26 6 4 3 -1 25 -9 50 -23 69 -73 53 -73 -24 0 -16 -7
-35 -15 -42 -21 -18 -19 -35 15 -107 38 -80 67 -84 92 -10 10 28 16 34 28 27
12 -8 13 -13 3 -30 -18 -28 -16 -53 7 -83 40 -50 62 -118 67 -201 6 -92 14
-107 42 -82 23 21 47 90 56 160 3 27 8 54 11 58 12 19 38 2 49 -32 10 -29 17
-36 43 -38 21 -2 30 -8 30 -20 -1 -9 2 -43 6 -74 4 -32 4 -58 -1 -58 -21 -1
-103 -87 -107 -114 -5 -30 -23 -49 -38 -40 -16 10 -8 38 19 66 23 24 25 31 17
60 -13 43 -46 50 -70 14 -11 -18 -25 -26 -45 -26 -24 0 -29 -4 -29 -26 0 -14
-4 -23 -9 -19 -5 3 -12 1 -16 -4 -3 -5 -16 1 -30 15 -13 13 -29 24 -35 24 -13
0 -13 -65 0 -90 7 -13 6 -19 -5 -24 -47 -18 14 -54 68 -41 14 4 28 2 31 -4 5
-7 -4 -11 -24 -11 -49 0 -143 -102 -107 -116 15 -5 20 -74 6 -90 -5 -7 -14
-26 -19 -43 -7 -26 -6 -31 9 -31 10 0 21 3 25 8 4 4 34 7 67 7 l59 0 -6 -30
c-11 -52 -37 -72 -47 -35 -4 15 -14 20 -37 20 -30 0 -31 -1 -25 -37 6 -38 6
-38 -12 -17 -25 30 -43 34 -75 17 -36 -18 -35 -27 7 -53 24 -15 35 -29 35 -45
0 -36 19 -40 50 -10 20 19 29 23 33 13 8 -23 41 6 54 48 l11 39 1 -41 c1 -46
9 -58 26 -44 9 8 14 -10 19 -74 6 -79 14 -116 31 -158 10 -25 -16 -23 -49 3
-15 12 -26 30 -26 45 0 14 -5 23 -12 22 -8 -2 -14 9 -16 26 -3 23 0 28 13 22
11 -4 15 -2 13 6 -8 22 -36 20 -43 -2 -3 -11 -10 -18 -15 -15 -5 3 -7 12 -3
20 3 8 0 15 -6 15 -6 0 -11 -5 -11 -11 0 -5 -4 -7 -10 -4 -5 3 -10 15 -10 27
0 15 4 18 16 14 14 -5 15 -4 4 9 -15 17 -24 11 -34 -22 -7 -21 -1 -29 39 -58
18 -12 16 -13 -22 -8 -35 5 -43 2 -52 -16 -7 -12 -9 -25 -6 -30 8 -14 53 -6
74 13 25 22 27 21 61 -25 l29 -41 -75 -39 c-42 -21 -82 -43 -89 -49 -14 -12
-11 -50 6 -82 8 -14 6 -18 -8 -19 -11 0 -13 -3 -5 -6 16 -6 -3 -33 -24 -33
-17 0 -18 12 -2 29 11 11 9 12 -8 3 -12 -6 -24 -21 -27 -33 -5 -19 -2 -21 33
-17 43 4 42 -7 -5 -51 -32 -29 -35 -81 -5 -81 11 0 27 11 36 25 13 21 19 22
35 12 23 -14 39 2 39 40 0 30 61 60 93 45 22 -10 22 -10 -5 -21 -19 -7 -28
-18 -28 -32 0 -19 4 -21 35 -16 34 6 34 5 28 -26 -3 -18 -11 -35 -17 -39 -17
-12 -54 -9 -62 4 -5 8 -10 5 -15 -9 -5 -13 -21 -24 -39 -28 -37 -8 -48 -1 -30
20 8 10 9 15 2 15 -12 0 -32 -31 -32 -49 0 -17 67 -13 85 6 17 16 75 26 75 13
0 -12 -40 -43 -46 -37 -4 4 -1 14 7 23 12 15 12 17 -1 12 -17 -5 -41 -48 -34
-59 10 -16 67 15 86 47 12 21 25 31 34 27 17 -6 17 -8 2 -50 -9 -26 -9 -36 0
-45 10 -10 17 -8 33 8 11 11 21 30 22 41 1 14 6 19 19 15 14 -3 16 -11 11 -48
-4 -35 -3 -44 9 -44 17 0 42 26 51 53 4 9 15 17 25 17 25 0 26 37 1 53 -10 6
-19 17 -19 24 0 7 -5 13 -11 13 -5 0 -7 -5 -4 -10 9 -15 -14 -40 -36 -40 -21
0 -25 15 -8 26 7 4 9 21 5 44 -3 22 -1 43 7 52 15 20 64 29 94 17 19 -7 22
-13 17 -35 -6 -22 0 -32 35 -64 22 -21 41 -44 41 -52 0 -8 -13 -27 -30 -41
-23 -20 -30 -36 -30 -62 0 -40 17 -46 45 -15 11 12 16 29 13 45 -6 32 14 51
32 30 12 -15 31 -19 128 -30 59 -6 69 8 32 45 l-21 21 22 18 c22 18 22 18 -29
24 -28 3 -61 11 -73 17 -21 12 -20 13 17 52 28 30 33 39 19 35 -11 -3 -38 -12
-60 -18 -57 -17 -121 5 -153 52 -20 29 -22 42 -18 94 3 33 5 63 6 68 0 4 7 7
15 7 8 0 15 6 15 13 0 20 72 85 103 93 25 6 28 4 25 -12 -2 -10 -19 -29 -38
-42 -39 -25 -90 -119 -90 -164 0 -17 10 -34 28 -48 53 -43 147 -3 168 72 7 23
23 38 64 60 30 16 61 35 69 42 11 12 20 9 58 -18 37 -26 54 -31 98 -30 29 0
60 6 69 13 12 10 10 1 -6 -32 -13 -26 -25 -41 -29 -35 -5 8 -20 7 -54 -3 l-46
-15 37 -27 c29 -20 41 -24 56 -16 11 6 21 9 22 7 18 -25 126 -228 126 -238 0
-7 20 7 45 31 25 24 45 51 45 60 0 9 9 24 20 34 11 10 20 22 20 28 0 5 11 18
25 29 14 11 25 28 25 38 0 9 7 23 16 31 13 10 17 10 25 -2 14 -23 11 -36 -18
-61 -55 -48 -66 -65 -53 -87 6 -12 18 -21 28 -22 10 0 6 -5 -10 -11 -22 -7
-28 -16 -28 -38 0 -36 22 -54 73 -59 4 -1 5 -12 1 -26 -7 -29 2 -31 49 -9 33
16 34 15 62 -10 16 -15 38 -29 50 -32 32 -8 89 19 116 55 18 24 26 28 40 20
14 -7 29 -4 59 13 44 25 51 51 20 68 -11 6 -20 14 -20 18 0 7 61 45 64 40 1
-2 7 -15 14 -30 15 -37 26 -35 37 4 9 29 19 37 80 61 96 38 105 48 105 117 0
50 -4 62 -29 89 -16 17 -36 31 -45 31 -37 0 -54 22 -49 62 5 30 2 38 -10 38
-9 0 -17 10 -19 23 -4 26 -1 26 -97 -8 -40 -14 -85 -25 -100 -23 -20 3 -13 7
34 21 64 19 159 50 188 62 11 5 17 3 17 -6 0 -38 25 -94 56 -127 33 -35 38
-37 98 -37 55 0 64 -2 73 -22 13 -28 8 -33 -25 -24 -34 10 -49 5 -62 -20 -14
-25 3 -58 27 -55 10 1 22 12 28 24 5 12 17 22 25 22 21 1 53 27 42 34 -12 7
-21 65 -12 71 3 2 15 -10 25 -28 10 -18 31 -49 47 -69 20 -26 27 -44 24 -62
-4 -23 -3 -25 16 -15 27 14 32 6 20 -30 -11 -31 -6 -46 12 -32 6 4 21 10 33
13 29 8 37 -25 12 -48 -10 -9 -16 -20 -14 -24 10 -17 61 7 80 37 24 38 80 59
80 31 -2 -54 -60 -118 -108 -118 -10 0 -16 -4 -13 -8 3 -5 19 -7 36 -4 22 3
30 0 30 -11 0 -30 23 -31 47 -2 19 21 24 38 22 69 -1 22 -2 55 -1 71 l2 30 30
-32 c35 -37 35 -40 14 -81 -19 -38 -15 -87 6 -87 8 0 22 14 31 31 15 30 16 31
25 10 12 -29 27 -26 38 7 8 22 7 35 -6 58 -19 32 -14 61 8 52 8 -3 14 -18 14
-34 0 -25 4 -29 26 -29 21 0 25 4 21 20 -3 11 -1 20 4 20 5 0 9 -7 9 -15 0
-22 -40 -98 -56 -108 -16 -9 -19 -63 -4 -72 18 -11 40 16 40 47 0 26 2 29 15
18 8 -7 15 -21 15 -31 0 -26 34 -43 50 -24 14 17 -3 55 -24 55 -20 0 -38 26
-34 49 3 19 7 18 48 -17 44 -38 84 -50 96 -31 11 19 -29 51 -57 45 -29 -5 -69
23 -69 50 0 12 4 13 21 3 29 -15 40 3 27 47 -5 20 -5 41 0 50 14 25 52 -33 45
-68 -3 -18 2 -37 17 -58 20 -28 23 -29 34 -14 9 12 20 15 38 11 18 -5 28 -2
31 7 9 22 -20 54 -55 61 l-31 7 31 14 c37 15 40 29 13 44 -28 14 -39 12 -18
-4 18 -14 17 -15 -3 -21 -28 -9 -52 11 -30 25 11 7 7 10 -16 10 -19 0 -34 6
-38 15 -3 8 -2 15 2 16 4 0 17 2 30 3 23 3 72 42 72 58 0 17 -62 0 -87 -24
-24 -22 -25 -22 -15 -2 6 12 9 24 5 27 -3 3 0 20 6 38 7 20 8 36 1 43 -6 8 -2
22 10 41 29 44 26 57 -7 39 -16 -7 -41 -14 -58 -14 l-30 0 38 33 c32 27 41 42
52 97 23 108 17 140 -17 83 -9 -16 -30 -45 -46 -65 l-29 -38 0 63 c0 61 -16
113 -47 152 -14 19 -15 15 -17 -52 -2 -84 -1 -77 -18 -124 -8 -20 -22 -41 -33
-48 -16 -10 -19 -8 -24 19 -9 40 -22 47 -30 15 -7 -26 -24 -35 -24 -11 0 17
-36 63 -44 56 -3 -3 -7 -20 -11 -37 -3 -18 -10 -44 -15 -58 -9 -25 -11 -25
-35 -9 -24 16 -25 16 -26 -7 -1 -13 -2 -28 -4 -34 -1 -5 -3 -18 -3 -27 -1 -11
-10 -18 -22 -18 -12 0 -26 -12 -36 -32 -40 -79 -67 -86 -94 -25 -27 58 -25 68
17 97 20 14 55 42 76 63 34 33 38 43 33 70 -9 45 -35 70 -67 63 -18 -3 -29 0
-33 9 -3 8 -14 15 -24 15 -15 0 -6 14 36 55 37 37 64 55 80 55 68 0 172 64
172 105 0 25 19 17 58 -24 44 -45 95 -69 115 -52 10 8 17 7 25 -1 9 -9 12 -8
12 4 0 9 -6 18 -12 21 -7 2 -9 8 -5 13 4 5 12 2 17 -5 11 -18 40 -6 47 19 3
11 9 17 14 14 5 -3 9 2 9 10 0 9 4 16 8 16 17 0 71 -67 80 -100 l10 -35 1 37
c1 30 -6 44 -36 73 -28 27 -32 35 -18 35 10 0 33 -11 52 -26 24 -18 33 -33 33
-55 0 -16 5 -29 10 -29 6 0 10 10 10 21 0 18 2 19 15 9 9 -7 18 -10 21 -8 7 7
-72 75 -110 95 -16 8 -39 13 -52 10 -18 -3 -25 2 -35 25 -16 40 -3 50 45 36
36 -11 40 -10 58 12 19 23 19 25 2 37 -22 16 -31 9 -15 -11 10 -12 8 -16 -8
-21 -24 -7 -61 2 -61 16 0 5 5 10 10 10 6 1 14 2 19 3 5 0 13 5 18 10 5 5 -6
6 -24 3 -35 -7 -46 8 -14 18 30 9 47 33 33 47 -16 16 -15 28 1 28 8 0 24 11
37 24 24 27 22 52 -7 64 -12 4 -18 18 -18 37 0 41 -35 46 -71 10 -20 -21 -32
-25 -54 -20 -16 4 -38 1 -49 -5 -19 -10 -20 -9 -11 15 10 26 13 92 3 68 -8
-21 -48 -15 -71 10 -28 29 -27 36 3 77 17 23 23 41 19 57 -9 33 4 73 22 73 14
0 15 -10 9 -74 -7 -81 4 -118 51 -161 19 -18 31 -21 52 -16 35 10 38 32 13 91
-32 75 -28 92 54 234 28 48 28 50 12 78 -23 39 -21 48 6 48 24 0 56 -29 50
-47 -5 -15 45 -53 62 -47 8 3 17 16 21 27 3 12 15 41 27 64 l21 43 -21 22
c-12 13 -23 32 -25 42 -2 13 -13 21 -33 23 -16 3 -32 7 -35 10 -3 3 7 3 23 1
27 -5 37 5 17 17 -19 12 -48 -6 -69 -40 -13 -22 -28 -35 -41 -35 -11 0 -20 2
-20 4 0 2 -3 11 -6 20 -4 10 -1 16 9 16 27 0 39 28 39 98 0 74 -10 115 -49
200 -22 47 -27 52 -58 52 -51 0 -59 -17 -51 -118 4 -48 4 -95 1 -105 -13 -31
-32 -18 -51 36 -16 44 -24 53 -46 55 -24 3 -30 11 -47 65 -16 52 -17 64 -6 76
10 10 18 11 27 4 16 -14 54 -21 56 -10 6 26 1 39 -10 29 -8 -5 -22 -6 -34 -2
-27 10 -72 65 -80 96 -3 13 -10 24 -16 24 -13 0 0 -38 27 -81 29 -45 19 -59
-42 -59 -52 0 -100 38 -87 68 4 9 8 30 8 46 1 25 -4 31 -30 38 -60 15 -72 71
-17 76 16 1 48 15 73 30 36 22 52 42 80 97 26 53 43 73 67 84 17 8 37 26 43
41 6 15 29 37 51 49 l39 22 -1 -43 c0 -71 -19 -112 -56 -123 -18 -5 -35 -16
-38 -25 -3 -9 -21 -24 -40 -33 -25 -12 -35 -23 -35 -39 1 -21 2 -21 11 -5 5 9
26 24 45 32 18 8 34 19 34 25 0 17 43 28 66 18 27 -12 44 -48 44 -91 1 -30 1
-31 15 -13 14 18 15 16 15 -31 0 -53 12 -68 48 -57 14 5 14 3 -3 -11 -13 -11
-31 -15 -52 -11 -31 4 -31 4 -12 -15 10 -10 19 -23 19 -29 0 -13 -36 -13 -61
0 -19 11 -25 0 -20 -37 3 -20 -7 -15 -43 22 -32 33 -56 45 -56 28 1 -11 40
-60 40 -50 0 4 9 -1 21 -12 23 -21 62 -32 79 -21 8 5 4 9 -9 13 -12 3 -21 13
-21 22 0 15 7 17 46 12 43 -4 45 -4 40 18 -4 17 0 25 18 33 24 10 44 48 32 59
-3 3 -12 0 -20 -6 -25 -21 -36 -3 -36 61 0 49 -3 59 -15 54 -8 -3 -15 -1 -15
3 0 5 -3 17 -6 26 -6 14 -3 14 20 3 17 -7 29 -22 33 -40 8 -40 27 -49 21 -9
-6 40 10 40 25 1 13 -34 27 -40 27 -11 0 11 5 23 10 26 16 10 12 28 -5 21 -18
-6 -45 2 -45 15 0 5 11 9 25 9 14 0 25 5 25 10 0 14 -16 12 -50 -5 -16 -8 -31
-11 -34 -6 -3 5 8 14 24 21 30 12 41 30 19 30 -6 0 -29 -10 -50 -22 -21 -12
-41 -19 -45 -16 -11 11 71 77 96 78 23 1 22 3 -15 25 -22 14 -55 25 -72 25
-37 0 -39 6 -18 57 8 20 14 37 13 39 -3 2 -52 -15 -92 -31 -17 -7 -18 -4 -14
33 2 23 2 42 0 42 -8 0 -67 -44 -79 -58 -10 -12 -16 -12 -40 6 -15 10 -39 23
-51 27 -21 6 -23 4 -17 -14 3 -12 3 -30 0 -42 -7 -21 -7 -21 -28 -1 -30 27
-62 42 -89 42 -13 0 -29 9 -36 21 -9 14 -22 20 -40 18 -15 -2 -39 5 -53 14
-20 13 -32 15 -52 8 -19 -8 -28 -6 -37 5 -10 11 -9 14 5 14 52 0 116 63 103
102 -3 7 -10 -3 -17 -23 -13 -40 -43 -59 -94 -59 -61 0 -82 55 -26 67 19 3 35
15 41 29 16 35 -4 53 -53 50 -48 -4 -99 -47 -99 -85 0 -39 35 -102 91 -161
122 -132 200 -240 174 -240 -3 0 -20 17 -37 38 -18 20 -78 84 -134 142 -137
141 -162 194 -132 277 9 25 25 40 62 58 86 43 164 25 199 -46 9 -19 17 -28 17
-21 0 7 -5 22 -10 32 -15 28 7 36 34 11 12 -11 36 -24 54 -27 26 -5 32 -3 32
10 0 10 -4 26 -10 36 -8 15 -6 18 8 15 9 -2 23 -4 30 -4 6 -1 12 -11 12 -24 0
-27 38 -67 63 -67 20 0 31 16 17 25 -18 11 -10 25 14 25 35 0 42 18 18 43 -15
16 -18 27 -12 37 16 25 12 30 -24 30 -25 0 -40 -7 -54 -25 -29 -37 -49 -33
-44 10 4 33 2 35 -24 35 -15 0 -36 7 -46 16 -15 14 -20 15 -34 3 -12 -10 -15
-24 -10 -55 5 -38 3 -42 -19 -47 -29 -5 -30 0 -10 27 21 28 19 35 -21 73 -35
33 -35 34 -20 58 14 21 24 25 65 25 41 0 49 -3 59 -25 9 -20 19 -25 48 -25 34
0 36 2 30 25 -5 21 -2 27 19 35 20 8 24 15 20 32 -4 17 0 26 16 33 33 15 34
32 2 49 -19 10 -22 15 -11 16 20 0 50 39 41 53 -3 5 -21 7 -39 4 -27 -5 -34
-2 -39 14 -9 27 -43 24 -57 -5 -11 -25 -9 -30 16 -74 8 -13 11 -33 8 -45 -6
-21 -6 -21 -10 -2 -6 29 -22 45 -43 45 -29 0 -27 -65 3 -81 22 -12 22 -12 3
-20 -41 -16 -55 -11 -55 20 0 17 -5 33 -10 36 -17 10 -40 -15 -40 -42 0 -14
-10 -33 -24 -44 -19 -15 -23 -28 -24 -79 0 -33 -4 -65 -7 -70 -15 -24 -21 -6
-17 51 3 44 14 79 39 126 18 36 31 68 29 70 -3 3 -25 -2 -50 -10 -37 -13 -46
-13 -46 -3 0 8 -6 19 -13 25 -20 16 -45 -15 -49 -61 -3 -38 -3 -38 -30 -24
-16 8 -28 11 -28 6 0 -4 -14 -13 -31 -19 -28 -10 -30 -9 -24 7 4 9 10 29 13
45 4 26 3 27 -22 17 -24 -9 -26 -7 -26 15 0 32 -62 102 -108 121 -41 17 -115
18 -143 3 -15 -7 -24 -7 -35 2 -8 7 -30 9 -54 6 -37 -5 -39 -3 -38 18 1 13 5
22 9 19 4 -2 9 0 11 5 1 5 21 11 43 13 l40 4 0 44 0 45 -50 3 c-40 2 -55 -2
-72 -18 -28 -25 -45 -25 -63 0 -12 16 -26 20 -72 20 l-58 0 0 -45z m127 -4
c32 -16 56 -14 81 9 12 11 35 20 52 20 27 0 30 -3 30 -30 l0 -30 -61 0 c-33 0
-70 -5 -81 -11 -15 -8 -19 -8 -14 0 5 8 -12 11 -53 11 -58 0 -61 1 -61 24 0
21 5 25 38 28 20 2 39 0 42 -3 3 -3 15 -11 27 -18z m67 -56 c-4 -9 -18 -14
-38 -14 -27 2 -28 2 -6 6 14 3 29 9 35 14 13 13 15 11 9 -6z m-16 -32 c-10 -2
-26 -2 -35 0 -10 3 -2 5 17 5 19 0 27 -2 18 -5z m-1 -34 c1 -14 -3 -19 -14
-17 -22 4 -26 38 -4 38 10 0 17 -8 18 -21z m898 -9 c8 -24 -1 -40 -21 -40 -15
0 -18 18 -8 44 8 22 21 20 29 -4z m-1098 -9 c26 -14 48 -50 44 -71 -5 -24 -21
-39 -37 -33 -19 7 -18 23 1 23 8 0 15 7 15 16 0 25 -28 46 -68 51 -51 6 -95
-24 -121 -82 -24 -55 -47 -56 -45 -1 2 43 24 70 79 97 43 20 95 20 132 0z
m128 -1 c50 -25 64 -25 114 2 36 19 44 20 65 8 23 -12 24 -15 11 -34 -8 -11
-15 -35 -15 -53 0 -17 -5 -35 -10 -38 -6 -4 -8 -11 -4 -16 4 -6 10 -6 19 1 7
6 20 7 29 4 15 -6 15 -9 1 -30 -8 -13 -15 -45 -15 -74 0 -28 -5 -60 -11 -72
-8 -14 -7 -28 2 -49 15 -38 3 -51 -20 -21 -15 20 -19 22 -29 9 -18 -21 -52
-28 -59 -11 -3 7 2 21 11 29 9 9 16 22 16 28 0 8 -4 7 -12 -1 -15 -15 -51 -15
-66 0 -19 19 -27 0 -9 -20 18 -20 23 -52 8 -52 -4 0 -20 10 -35 21 -15 12 -28
20 -29 18 -19 -35 -26 -44 -37 -47 -10 -4 -11 1 -5 19 4 13 7 38 7 54 -2 46
-18 158 -26 176 -8 18 19 35 29 19 4 -6 11 -10 16 -10 6 0 7 5 3 12 -5 7 -7
25 -6 41 1 16 -4 42 -12 57 -10 20 -11 31 -3 39 15 15 27 14 72 -9z m384 -1
c53 -29 84 -79 72 -112 -14 -35 -35 -26 -50 21 -15 51 -54 77 -114 77 -32 0
-51 -5 -57 -15 -15 -23 -12 -50 6 -50 13 0 14 -3 4 -14 -16 -20 -39 -9 -46 20
-7 28 7 49 51 76 39 24 89 23 134 -3z m-875 -14 c10 -16 14 -34 10 -50 -4 -15
-2 -25 5 -25 6 0 11 5 11 12 0 16 31 48 47 48 24 0 14 -47 -17 -77 -16 -15
-30 -38 -30 -50 0 -12 -4 -25 -10 -28 -5 -3 -10 1 -10 9 0 8 -14 31 -31 51
-34 38 -43 91 -20 119 18 22 26 20 45 -9z m1517 -6 c-13 -11 -26 -17 -29 -14
-8 8 20 35 37 35 12 -1 11 -5 -8 -21z m-1881 -35 c6 -15 7 -32 1 -41 -7 -14
-10 -13 -20 6 -11 19 -7 61 5 61 2 0 9 -12 14 -26z m270 -34 c7 -17 10 -33 7
-37 -8 -7 -46 37 -47 55 0 24 28 11 40 -18z m-316 14 c9 -3 16 -15 16 -26 0
-28 -34 -19 -38 10 -4 24 -2 25 22 16z m1821 -15 c11 -34 -12 -48 -25 -15 -13
35 -13 36 4 36 8 0 18 -9 21 -21z m109 15 c13 -5 14 -9 5 -20 -15 -18 -33 -18
-48 0 -9 11 -9 15 1 19 19 8 24 8 42 1z m-1144 -110 c19 -56 22 -77 16 -142
-5 -60 -3 -79 9 -92 15 -16 11 -19 -45 -33 -60 -15 -60 -15 -55 7 3 11 -3 39
-14 60 l-20 39 24 31 c14 17 33 39 42 49 23 24 20 83 -6 118 -12 15 -21 38
-21 50 l0 22 23 -21 c13 -12 34 -52 47 -88z m388 37 c-29 -57 -27 -101 3 -101
12 0 19 -7 19 -18 0 -10 5 -23 12 -30 9 -9 9 -17 0 -34 -17 -34 -32 -100 -26
-110 4 -5 -10 -6 -33 -2 -48 8 -55 13 -46 27 4 7 9 57 10 112 3 102 14 148 47
198 13 19 22 25 29 18 8 -8 3 -26 -15 -60z m-1088 35 c0 -13 -7 -29 -15 -36
-12 -10 -15 -9 -15 8 0 27 10 52 21 52 5 0 9 -11 9 -24z m166 14 c22 0 49 -49
36 -62 -9 -9 -19 -7 -38 8 -32 24 -54 70 -28 60 8 -3 22 -6 30 -6z m144 -82
c0 -20 -34 -25 -45 -7 -5 7 -13 4 -26 -7 -17 -15 -19 -15 -25 -1 -7 19 4 40
17 32 5 -4 12 8 15 25 l7 31 28 -27 c16 -15 29 -36 29 -46z m1270 66 c0 -3
-11 -15 -25 -26 -14 -11 -25 -24 -25 -30 0 -6 7 -5 17 3 15 13 15 12 4 -8 -13
-26 -20 -28 -56 -11 -34 15 -28 28 25 56 45 23 60 27 60 16z m-385 -18 c38
-26 65 -29 87 -9 26 22 15 -1 -16 -35 -20 -22 -20 -24 -4 -36 22 -16 13 -60
-11 -50 -41 17 -63 16 -85 -5 -24 -23 -36 -19 -36 11 0 11 -7 18 -19 18 -11 0
-23 4 -26 10 -9 14 24 78 49 95 25 19 36 19 61 1z m139 -10 c-3 -9 -10 -16
-15 -16 -6 0 -5 9 1 21 13 24 24 20 14 -5z m312 -13 c-11 -11 -19 6 -11 24 8
17 8 17 12 0 3 -10 2 -21 -1 -24z m159 11 c13 -5 14 -8 3 -15 -20 -13 -38 -11
-38 6 0 16 9 19 35 9z m-1385 -27 c0 -32 -9 -38 -32 -26 -19 10 -19 12 -2 30
23 25 34 24 34 -4z m-506 -18 c-10 -16 -24 -9 -24 12 0 18 2 19 15 9 8 -7 12
-16 9 -21z m1394 0 c-2 -6 -8 -10 -13 -10 -5 0 -11 4 -13 10 -2 6 4 11 13 11
9 0 15 -5 13 -11z m461 -8 c15 -26 -12 -36 -33 -12 -21 23 -20 31 4 31 10 0
24 -9 29 -19z m-320 -8 c6 -10 11 -12 11 -5 0 20 38 14 54 -10 20 -28 21 -78
2 -103 -10 -14 -21 -17 -50 -12 -22 3 -34 2 -31 -4 8 -12 1 -11 -30 3 -14 6
-28 23 -31 37 -3 14 -6 29 -7 32 -1 4 -10 3 -21 0 -17 -7 -17 -8 -2 -24 22
-22 12 -22 -25 0 -38 23 -37 35 8 72 44 36 105 43 122 14z m-1309 -29 c0 -8
-4 -14 -10 -14 -12 0 -31 35 -23 44 9 8 33 -14 33 -30z m127 5 c-7 -11 -15
-15 -21 -9 -13 13 1 41 18 34 12 -5 13 -9 3 -25z m-343 9 c-13 -23 -37 -48
-46 -48 -14 0 -9 19 12 40 22 22 45 27 34 8z m465 -14 c35 -45 28 -70 -28 -98
-44 -23 -50 -24 -70 -10 -26 19 -28 73 -5 109 23 35 75 34 103 -1z m-399 -28
c0 -25 -12 -46 -26 -46 -17 0 -18 14 -4 41 12 22 30 25 30 5z m246 -3 c17 -17
16 -18 -17 -24 -39 -6 -54 3 -46 25 8 21 41 20 63 -1z m-162 1 c9 -4 21 -14
26 -24 8 -16 5 -18 -25 -18 -30 0 -35 3 -35 24 0 25 7 28 34 18z m1235 -44
c44 -22 82 -43 85 -48 3 -5 -4 -18 -15 -28 -32 -29 -49 -69 -49 -116 -1 -34
-3 -39 -11 -25 -10 17 -7 56 6 90 4 10 3 17 -4 17 -6 0 -11 -8 -12 -17 -1 -12
-4 -9 -9 7 -5 18 -9 21 -13 10 -15 -41 -17 -42 -12 -11 4 28 3 32 -9 21 -8 -6
-17 -19 -19 -28 -2 -9 -2 -1 0 18 3 19 1 31 -4 27 -4 -5 -8 -12 -9 -15 -1 -21
-17 -73 -20 -69 -2 2 0 24 4 48 7 34 5 48 -5 58 -11 10 -17 5 -33 -31 -23 -50
-27 -34 -5 19 8 19 15 41 15 47 -1 14 -25 -35 -44 -89 -8 -23 -15 -32 -15 -20
0 11 8 39 19 63 10 23 15 42 9 42 -5 0 -16 -18 -25 -40 -9 -23 -19 -39 -21
-36 -7 7 41 109 61 129 26 25 48 21 135 -23z m305 7 c8 -12 8 -22 0 -34 -21
-33 -34 -26 -34 17 0 43 13 50 34 17z m86 3 c11 -21 5 -60 -10 -60 -10 0 -20
49 -13 67 7 18 10 16 23 -7z m-1145 -26 c26 -28 62 -111 52 -120 -3 -4 -9 7
-13 22 -4 16 -14 36 -23 44 -13 13 -14 13 -7 -5 5 -11 10 -33 12 -50 3 -25 2
-23 -9 9 -7 22 -18 41 -26 44 -10 3 -11 0 -1 -18 20 -37 29 -79 19 -85 -5 -4
-9 7 -9 24 0 18 -10 41 -25 58 l-25 28 21 -48 c11 -26 18 -53 16 -60 -2 -7
-10 7 -16 30 -6 23 -17 45 -23 49 -7 5 -9 2 -5 -9 3 -8 8 -33 11 -54 l6 -38
-16 43 c-9 23 -20 42 -25 42 -12 0 -12 -17 1 -25 6 -3 10 -18 9 -33 -1 -26 -1
-26 -10 5 -5 18 -15 35 -21 39 -7 5 -9 2 -5 -9 13 -35 19 -87 9 -87 -6 0 -13
18 -17 40 -4 22 -12 43 -17 47 -8 4 -9 -2 -4 -18 15 -52 15 -81 0 -35 -12 36
-18 45 -25 35 -7 -12 -9 -12 -10 1 -1 8 0 20 1 25 1 6 -2 7 -6 2 -8 -7 -54 30
-54 44 0 10 82 57 128 74 55 20 80 18 107 -11z m1198 6 c-3 -10 -12 -25 -21
-32 -13 -11 -14 -10 -7 12 6 20 21 39 32 40 0 0 -1 -9 -4 -20z m-1515 2 c17
-11 4 -42 -17 -42 -9 0 -23 5 -31 10 -13 9 -12 12 4 25 23 17 26 18 44 7z
m-128 -6 c0 -12 -34 -36 -51 -36 -17 0 -18 3 -9 20 9 17 60 30 60 16z m1770
-7 c0 -5 -13 -15 -30 -20 -41 -15 -38 -27 6 -25 22 1 39 -4 41 -11 6 -17 -29
-17 -45 -1 -9 9 -12 6 -12 -13 0 -14 5 -30 12 -37 9 -9 8 -12 -5 -12 -38 0
-49 73 -17 108 22 23 50 30 50 11z m-1760 -23 c0 -2 -8 -10 -17 -17 -16 -13
-17 -12 -4 4 13 16 21 21 21 13z m155 -16 c3 -6 -1 -7 -9 -4 -18 7 -21 14 -7
14 6 0 13 -4 16 -10z m-116 -4 c-9 -9 -80 -56 -84 -56 -16 0 0 21 28 38 28 18
69 30 56 18z m-147 -29 c4 -6 2 -15 -5 -19 -13 -8 -49 12 -55 32 -6 16 49 4
60 -13z m1191 -25 c-3 -23 -10 -42 -14 -42 -12 0 -11 21 2 59 15 42 19 36 12
-17z m519 31 c28 -25 21 -35 -12 -18 -30 16 -40 35 -18 35 6 0 20 -7 30 -17z
m-1424 -13 c79 -48 96 -151 40 -236 -38 -56 -85 -87 -125 -82 -27 4 -27 5 14
22 103 44 121 194 32 259 -38 28 -97 27 -120 -2 -23 -28 -13 -51 31 -78 53
-31 30 -74 -28 -52 -45 17 -62 39 -62 79 0 31 7 44 40 74 35 32 46 36 93 36
34 0 63 -7 85 -20z m492 0 c0 -11 -7 -20 -15 -20 -17 0 -18 2 -9 24 9 23 24
20 24 -4z m187 5 c8 -22 -6 -33 -17 -15 -13 20 -12 30 0 30 6 0 13 -7 17 -15z
m-47 -7 c0 -4 -1 -8 -2 -8 -82 -14 -133 -8 -113 12 8 8 115 4 115 -4z m-870
-36 c0 -33 -16 -52 -43 -52 -16 0 -18 5 -13 28 7 26 31 52 48 52 4 0 8 -13 8
-28z m1469 9 c19 -12 6 -29 -35 -46 -19 -8 -34 -21 -34 -30 0 -13 -3 -13 -20
-3 -27 17 -25 32 7 63 28 26 57 31 82 16z m-1273 -42 c31 -29 30 -43 -5 -68
-31 -22 -46 -27 -36 -12 3 6 -12 26 -34 46 -50 47 -46 70 11 62 22 -3 51 -16
64 -28z m853 2 c101 -27 236 -92 252 -123 11 -22 11 -22 -7 -6 -39 35 -194
100 -280 118 -109 23 -315 21 -408 -5 -86 -23 -215 -81 -258 -116 -35 -28 -37
-28 -27 -7 22 49 208 126 389 162 59 11 257 -2 339 -23z m188 -28 c-3 -10 -5
-2 -5 17 0 19 2 27 5 18 2 -10 2 -26 0 -35z m-30 15 c-3 -8 -6 -5 -6 6 -1 11
2 17 5 13 3 -3 4 -12 1 -19z m-863 -23 c5 -22 4 -26 -4 -15 -5 8 -10 24 -10
34 0 26 6 18 14 -19z m602 15 c108 -16 238 -67 338 -133 99 -64 245 -206 286
-275 14 -24 40 -62 57 -85 18 -23 33 -52 33 -64 0 -12 5 -25 10 -28 38 -24
130 -288 151 -436 15 -108 15 -341 -1 -444 -31 -207 -149 -495 -255 -625 -146
-178 -296 -288 -479 -350 -108 -36 -128 -39 -268 -41 -96 -2 -127 2 -207 25
-225 65 -403 195 -550 401 -156 220 -241 494 -245 790 -2 202 20 351 75 505
30 84 113 261 136 290 6 8 30 40 53 70 218 296 549 449 866 400z m596 -168
c76 -73 177 -206 165 -218 -10 -10 -50 27 -80 73 -16 23 -80 91 -143 151 -63
59 -114 113 -114 120 0 20 84 -42 172 -126z m-1322 99 c0 -4 -38 -54 -85 -109
-46 -56 -111 -142 -145 -191 -52 -79 -83 -111 -104 -111 -25 0 41 112 128 216
28 34 62 76 76 94 30 39 34 42 85 80 45 33 45 33 45 21z m-690 -52 c0 -23 -28
-25 -36 -4 -4 8 -3 22 0 31 5 13 9 14 21 4 8 -7 15 -21 15 -31z m508 -9 c33
-20 42 -40 19 -40 -7 0 -18 5 -25 12 -9 9 -12 9 -12 -3 0 -8 5 -20 12 -27 22
-22 -1 -12 -26 12 -25 23 -33 46 -19 59 10 10 15 9 51 -13z m1544 -7 c14 -13
21 -13 32 -3 13 10 20 7 39 -14 13 -14 34 -26 46 -26 35 0 76 -26 111 -70 17
-22 36 -40 42 -40 5 0 2 7 -7 16 -12 13 -15 26 -10 58 4 22 9 43 11 45 9 10
57 -35 71 -66 13 -33 13 -37 -1 -45 -33 -18 -56 -53 -71 -105 -13 -44 -23 -58
-58 -80 -77 -49 -161 -29 -159 38 1 44 10 52 38 35 24 -17 61 -20 89 -10 26
10 37 51 25 96 -9 31 -18 43 -46 54 -19 8 -45 13 -57 12 -17 -2 -44 16 -98 66
-64 60 -70 68 -44 62 17 -4 38 -15 47 -23z m-1973 -65 c1 -61 -29 -61 -45 0
-4 13 1 33 12 49 16 26 18 26 25 8 4 -11 8 -37 8 -57z m596 48 c-9 -13 -24
-27 -33 -31 -10 -4 -5 6 12 24 36 37 42 39 21 7z m1398 -157 c46 -62 29 -64
-20 -2 -26 32 -66 79 -90 105 -24 26 -43 51 -43 55 0 10 118 -112 153 -158z
m-1623 129 c40 -27 48 -46 24 -55 -12 -4 -24 2 -41 23 -12 16 -23 24 -23 17 0
-6 12 -25 26 -42 33 -39 16 -40 -25 -2 -36 34 -43 81 -12 81 10 0 33 -10 51
-22z m2003 -15 c-7 -2 -21 -2 -30 0 -10 3 -4 5 12 5 17 0 24 -2 18 -5z m-7
-26 c4 -4 -5 -7 -20 -7 -15 0 -25 4 -22 9 7 10 31 9 42 -2z m-2415 -20 c27
-17 19 -41 -13 -45 -28 -3 -78 34 -78 59 0 13 62 4 91 -14z m379 -25 c13 -10
19 -23 15 -33 -5 -14 -12 -14 -46 -5 -52 13 -87 -4 -113 -57 -25 -53 -13 -95
35 -121 45 -24 81 -16 120 27 27 29 29 30 29 10 0 -78 -89 -126 -157 -84 -46
29 -65 63 -65 119 1 67 15 97 63 132 47 34 87 38 119 12z m140 -25 c-19 -18
-27 -23 -19 -12 29 40 43 54 48 49 3 -2 -10 -19 -29 -37z m35 -22 c-30 -36
-66 -83 -81 -105 -15 -22 -29 -40 -31 -40 -7 0 7 54 15 60 4 3 29 32 56 65 52
64 75 85 88 85 5 0 -16 -29 -47 -65z m-405 -21 c0 -12 -6 -27 -14 -33 -12 -10
-18 -7 -31 13 -17 26 -14 57 8 85 9 11 14 8 24 -15 7 -16 12 -39 13 -50z
m2030 53 c0 -2 -17 -1 -37 1 -30 4 -34 6 -18 12 16 6 55 -3 55 -13z m420 3
c17 -9 15 -13 -17 -45 -21 -21 -45 -35 -59 -35 -28 0 -29 7 -10 45 23 44 49
55 86 35z m-440 -20 c13 -8 13 -10 -2 -10 -9 0 -20 5 -23 10 -8 13 5 13 25 0z
m-1815 -24 c17 -12 16 -14 -17 -25 -40 -13 -51 -36 -37 -83 12 -42 3 -52 -23
-26 -46 46 -14 133 53 147 3 0 14 -5 24 -13z m145 -10 c0 -2 -8 -10 -17 -17
-16 -13 -17 -12 -4 4 13 16 21 21 21 13z m-412 -32 c26 -18 28 -30 6 -38 -20
-8 -50 9 -64 34 -9 17 -8 20 12 20 13 0 34 -7 46 -16z m262 -23 c-14 -27 -30
-35 -42 -23 -11 11 16 42 38 42 11 0 12 -4 4 -19z m-365 -11 c7 -11 -47 -70
-64 -70 -19 0 -12 30 14 55 26 27 40 31 50 15z m-121 -51 c32 -25 33 -39 2
-39 -24 0 -38 12 -49 43 -9 24 14 22 47 -4z m241 -40 c4 -11 5 -23 2 -25 -8
-8 -38 27 -32 37 10 15 23 10 30 -12z m141 -43 c49 -33 111 -38 152 -13 15 10
15 5 1 -26 -8 -17 -17 -23 -30 -20 -10 3 -26 -2 -34 -11 -15 -15 -15 -17 7
-26 l23 -11 -23 5 c-18 3 -22 1 -18 -10 4 -12 1 -14 -14 -9 -27 9 -25 -9 3
-23 19 -11 18 -11 -13 -6 -24 4 -32 3 -25 -4 6 -6 24 -12 40 -15 24 -3 21 -4
-13 -6 -29 0 -41 -5 -36 -12 3 -6 19 -9 35 -7 16 3 29 0 29 -5 0 -5 -20 -7
-45 -5 -33 2 -45 0 -45 -11 0 -11 -3 -11 -15 -1 -8 7 -15 8 -15 2 0 -15 57
-35 85 -30 13 3 22 1 19 -3 -11 -18 -81 -9 -115 14 -42 28 -51 73 -19 102 24
21 26 57 5 75 -20 16 -19 50 1 79 14 19 18 21 25 9 5 -9 20 -23 35 -32z m-206
-66 c0 -15 -8 -35 -19 -44 -18 -16 -19 -16 -25 10 -4 15 -2 40 5 56 9 22 14
26 25 17 8 -6 14 -24 14 -39z m2160 -36 c0 -8 -4 -12 -10 -9 -5 3 -10 13 -10
21 0 8 5 12 10 9 6 -3 10 -13 10 -21z m-1907 -121 c-7 -2 -21 -2 -30 0 -10 3
-4 5 12 5 17 0 24 -2 18 -5z m1975 -41 c6 -20 21 -94 34 -165 18 -100 26 -128
40 -133 10 -3 32 -17 48 -31 40 -33 42 -82 4 -112 -15 -12 -35 -21 -45 -21
-16 0 -19 -8 -20 -42 -1 -86 -26 -247 -50 -323 -10 -33 -19 -67 -19 -75 0 -23
-54 -151 -105 -248 -63 -122 -131 -209 -266 -342 -65 -63 -123 -128 -129 -145
-26 -68 25 -147 89 -137 40 6 61 38 31 47 -28 9 -25 31 6 52 26 16 27 16 45
-6 40 -49 10 -110 -65 -131 -39 -11 -49 -10 -83 6 -47 23 -78 81 -76 141 2 53
21 82 81 121 82 54 238 216 296 306 93 145 162 320 198 498 19 93 23 145 23
293 0 157 -4 197 -28 312 -15 73 -32 144 -37 157 -7 19 -6 24 4 20 7 -3 18
-22 24 -42z m82 6 c26 -101 30 -108 60 -108 25 0 30 -6 45 -50 19 -56 49 -75
73 -44 13 19 13 36 -4 155 -7 50 10 79 47 79 27 0 25 -36 -3 -51 -13 -6 -24
-13 -26 -14 -1 -1 7 -23 18 -49 14 -34 20 -70 20 -126 0 -57 4 -83 15 -94 8
-8 15 -24 15 -35 0 -16 8 -20 38 -23 29 -2 37 -7 37 -23 0 -15 -9 -21 -39 -26
-24 -4 -46 -15 -57 -30 -10 -13 -19 -22 -19 -19 0 3 -2 33 -4 67 -4 72 -31
126 -65 131 -29 5 -51 -14 -51 -44 0 -29 -19 -31 -50 -4 -13 11 -29 20 -37 20
-7 0 -13 2 -13 4 0 28 -39 206 -66 298 -3 11 2 18 18 21 13 2 26 5 30 6 4 0
12 -18 18 -41z m-2310 0 c0 -11 -18 -42 -41 -69 -45 -53 -58 -95 -59 -176 0
-42 3 -53 16 -53 10 0 14 6 10 15 -3 8 0 15 6 15 9 0 9 3 0 12 -15 15 -16 32
-2 23 14 -9 13 8 -2 23 -8 8 -8 12 -1 12 6 0 14 -7 17 -16 4 -9 9 -14 12 -11
3 3 -2 19 -11 37 -9 18 -14 34 -11 37 3 3 10 -6 15 -20 5 -14 15 -28 21 -32 7
-4 5 7 -4 23 -9 17 -16 37 -16 44 1 7 10 -6 22 -30 19 -40 23 -43 57 -40 29 2
39 9 51 35 15 33 33 42 45 23 14 -22 23 -7 30 47 9 74 13 83 37 83 17 0 19 -4
13 -27 -4 -16 -8 -33 -9 -40 -1 -7 -5 -15 -9 -19 -3 -4 -9 -33 -13 -65 -4 -38
-13 -64 -25 -75 -11 -9 -19 -23 -19 -31 0 -7 -10 -18 -22 -23 -13 -6 -30 -15
-40 -22 -19 -14 -48 4 -48 29 0 10 -9 13 -27 11 -42 -5 -66 -57 -60 -131 6
-74 27 -107 67 -107 23 0 33 6 40 25 11 28 31 32 50 10 7 -8 19 -15 26 -15 8
0 14 -7 14 -15 0 -9 11 -26 23 -39 18 -18 23 -32 20 -57 -9 -72 -13 -80 -36
-77 -16 2 -24 13 -31 41 -8 31 -14 37 -37 37 -38 0 -50 -20 -53 -92 -3 -60
-30 -138 -48 -138 -4 0 -8 18 -8 40 0 49 -19 141 -32 158 -6 6 -8 12 -4 12 4
0 -9 23 -29 52 -32 48 -34 54 -20 75 19 29 19 63 0 63 -17 0 -20 25 -5 35 5 3
7 0 5 -7 -4 -9 2 -14 15 -15 14 -1 20 4 20 20 0 20 -6 22 -55 24 -30 1 -55 -1
-55 -5 0 -3 12 -16 28 -29 21 -18 23 -22 10 -23 -12 0 -18 -8 -18 -23 0 -13
-7 -32 -15 -43 -15 -19 -15 -19 -30 0 -8 11 -15 30 -15 42 0 12 -7 27 -15 34
-19 16 -19 46 -1 53 9 4 16 23 18 49 4 58 30 59 42 1 10 -42 10 -43 53 -43 30
0 43 4 43 14 0 27 -12 46 -30 46 -10 0 -22 9 -25 21 -18 56 39 232 92 285 35
36 63 36 63 2z m2566 -26 c-3 -5 -16 -12 -28 -15 -22 -6 -22 -6 2 13 25 19 37
20 26 2z m-2310 -17 c-19 -51 -47 -248 -50 -355 -7 -256 26 -434 119 -649 51
-118 60 -150 33 -123 -18 18 -49 14 -91 -11 -46 -28 -77 -72 -77 -111 0 -38
35 -99 70 -119 36 -22 100 -23 100 -2 0 8 7 15 15 15 8 0 15 -8 15 -18 0 -63
-104 -53 -177 17 -34 33 -51 97 -39 145 8 33 70 93 112 108 19 7 34 17 34 23
0 6 -16 44 -37 85 -77 159 -94 223 -98 360 -1 81 -6 125 -14 128 -6 2 -11 11
-11 20 0 10 -18 33 -41 53 -39 33 -42 40 -42 83 1 48 23 86 50 86 7 0 13 5 13
12 0 6 9 21 19 32 11 12 22 42 25 69 7 47 10 59 40 130 15 34 45 55 32 22z
m2320 -43 c-13 -14 -18 -14 -28 -3 -8 8 -8 11 -2 8 7 -4 18 0 25 9 11 13 9 14
-17 9 l-29 -7 25 14 c21 12 26 12 34 0 5 -9 2 -20 -8 -30z m19 -22 c-3 -5 -14
-10 -23 -9 -14 0 -13 2 3 9 27 11 27 11 20 0z m9 -31 c-3 -5 -12 -9 -20 -9 -8
0 -14 -5 -14 -11 0 -6 9 -9 20 -6 11 3 20 1 20 -4 0 -5 -9 -9 -21 -9 -11 0
-17 -4 -14 -10 4 -6 16 -8 27 -4 14 4 18 2 14 -5 -4 -6 -16 -11 -27 -11 -11 0
-17 -5 -14 -10 4 -6 15 -8 26 -5 31 10 22 -2 -11 -14 l-30 -10 0 57 c0 54 1
57 25 58 14 1 22 -2 19 -7z m-20 -131 c-5 -8 -1 -9 12 -4 15 6 16 4 7 -5 -13
-13 -43 -6 -43 11 0 5 7 10 16 10 9 0 12 -5 8 -12z m-105 -22 c21 -25 32 -80
25 -128 -7 -57 -23 -82 -48 -72 -11 4 -14 9 -7 13 20 13 29 96 15 137 -7 22
-18 40 -24 42 -5 2 -10 8 -10 13 0 14 36 11 49 -5z m-2479 -22 c-2 -10 -5 -44
-5 -74 0 -50 2 -55 22 -54 12 0 20 -3 17 -8 -3 -4 -12 -8 -20 -8 -9 0 -14 -6
-11 -12 2 -7 10 -12 16 -10 7 1 10 -2 6 -8 -11 -18 -44 -10 -61 14 -22 34 -22
128 0 161 19 29 44 28 36 -1z m59 -78 c0 -22 -3 -35 -6 -28 -2 6 -12 12 -21
12 -15 0 -15 2 -2 10 12 8 10 10 -10 11 -23 1 -21 2 19 15 11 3 11 7 1 19 -11
13 -10 14 4 9 11 -4 16 -18 15 -48z m2391 -1 c0 -24 -4 -47 -10 -50 -5 -3 -10
-1 -10 4 0 6 -7 11 -15 11 -23 0 -21 77 3 83 27 6 32 -1 32 -48z m308 26 c19
-11 11 -45 -11 -49 -19 -4 -32 20 -23 43 6 17 15 19 34 6z m-61 -17 c-3 -3
-12 -4 -19 -1 -8 3 -5 6 6 6 11 1 17 -2 13 -5z m-17 -24 c-12 -8 -10 -10 10
-11 14 0 19 -3 12 -6 -18 -7 -44 5 -37 17 3 5 12 10 18 10 7 0 6 -4 -3 -10z
m-100 -42 c0 -6 8 -20 17 -30 15 -17 15 -21 0 -51 -10 -17 -32 -54 -50 -82
-38 -60 -43 -126 -13 -193 21 -45 13 -68 -18 -56 -12 5 -14 10 -6 19 9 11 6
12 -12 9 -20 -5 -21 -4 -6 6 14 9 15 14 6 24 -7 7 -20 11 -30 8 -26 -6 -22 7
5 18 l22 9 -22 0 c-30 1 -40 21 -11 22 l23 0 -22 11 c-13 6 -23 14 -23 19 0 4
10 5 23 2 19 -4 20 -3 5 7 -21 13 -24 32 -4 24 11 -4 9 5 -6 35 -34 70 -85 47
-76 -33 5 -38 2 -48 -18 -65 -13 -12 -24 -29 -24 -38 0 -14 -8 -18 -35 -18
-19 0 -35 2 -35 5 0 3 4 21 10 40 10 37 17 92 27 201 5 64 6 66 47 87 52 28
64 28 71 -1 12 -45 67 -57 80 -17 3 10 17 21 30 24 14 4 25 11 25 16 0 6 5 10
10 10 6 0 10 -5 10 -12z m125 2 c-9 -14 8 -12 25 3 12 10 12 9 1 -5 -16 -22
-35 -23 -51 -3 -10 13 -9 15 9 15 12 0 19 -4 16 -10z m-346 -404 c8 -9 29 -16
47 -16 19 0 34 -4 34 -9 0 -19 -54 -51 -86 -51 -23 0 -37 -6 -44 -19 -12 -24
-13 -41 0 -21 5 8 25 15 49 15 22 0 37 -3 35 -7 -2 -3 0 -9 6 -13 13 -8 13
-82 0 -87 -7 -2 -7 -14 -1 -35 12 -41 -9 -68 -45 -59 -21 6 -23 3 -26 -41 -2
-35 -7 -48 -18 -48 -9 0 -16 11 -18 27 -2 14 -10 32 -17 38 -13 11 -13 8 -4
-19 30 -85 -57 -181 -165 -181 -42 0 -47 -3 -110 -73 -36 -41 -102 -103 -145
-138 -78 -62 -89 -79 -51 -79 16 0 18 -5 14 -30 -4 -17 -1 -36 5 -44 16 -19
-1 -28 -32 -17 -32 12 -57 48 -57 81 0 36 26 69 98 129 76 63 176 178 249 288
30 45 62 85 72 88 61 19 100 -73 53 -127 -8 -9 -40 -23 -71 -30 -49 -11 -52
-13 -25 -16 43 -4 98 20 120 52 12 19 15 38 11 68 -6 47 -27 68 -69 68 l-28 0
27 55 c21 42 33 56 55 60 22 5 28 12 28 34 0 15 -5 32 -10 37 -17 17 1 103 27
135 23 27 26 28 52 15 15 -8 33 -22 40 -30z m-2314 -47 c0 -28 -29 -38 -39
-13 -7 19 11 47 28 41 6 -2 11 -14 11 -28z m193 -87 c56 -138 56 -138 38 -145
-11 -5 -21 8 -37 53 -12 33 -26 60 -30 60 -11 0 -12 5 10 -66 l18 -60 -38 -37
-37 -37 -12 36 c-11 32 -10 39 10 66 18 24 20 36 13 66 -6 25 -15 38 -28 40
-11 2 -27 10 -36 18 -9 8 -19 11 -22 7 -11 -10 -8 16 3 38 11 20 77 68 95 68
6 0 30 -48 53 -107z m2382 93 c0 -19 -35 -68 -64 -90 -36 -27 -67 -25 -95 9
-19 22 -8 30 37 28 31 -1 44 4 67 28 25 27 55 40 55 25z m-2626 -37 c20 -29
20 -58 1 -58 -20 0 -65 45 -65 65 0 23 46 19 64 -7z m-122 -44 c2 -19 3 -34 2
-34 -12 0 -34 36 -34 55 0 38 27 20 32 -21z m50 -24 c5 -32 -8 -36 -25 -8 -11
17 -2 52 12 44 5 -3 11 -19 13 -36z m2718 30 c12 -7 12 -12 -3 -28 -18 -20
-91 -44 -101 -34 -5 4 73 72 84 72 3 0 12 -4 20 -10z m-186 -22 c20 -29 20
-57 0 -79 -14 -16 -14 -20 7 -48 21 -29 21 -31 5 -55 -10 -16 -26 -26 -41 -26
-14 0 -29 -8 -35 -20 -13 -23 -30 -18 -30 9 0 11 12 24 30 31 33 14 45 44 37
88 -3 15 -1 35 5 45 6 12 6 28 -1 48 -12 34 1 38 23 7z m-225 -39 c-29 -18
-36 -10 -18 23 11 20 12 20 21 3 8 -12 7 -20 -3 -26z m-2245 25 c9 -4 21 -15
27 -26 10 -19 8 -19 -23 -13 -39 8 -53 19 -44 34 8 13 18 14 40 5z m116 -9 c0
-3 -6 -16 -14 -28 -8 -12 -18 -44 -21 -70 -9 -60 -19 -52 -22 16 -2 43 2 55
20 69 22 18 37 23 37 13z m-214 -20 c18 -13 17 -14 -18 -15 -36 0 -47 8 -31
23 10 11 28 8 49 -8z m2640 -22 c28 -65 29 -98 5 -122 -31 -31 -46 -22 -43 23
2 20 -1 43 -7 50 -7 8 -7 23 -2 44 5 17 7 33 3 36 -3 3 2 6 12 6 10 0 23 -15
32 -37z m-2368 -1 c2 -12 -6 -34 -18 -50 -21 -28 -21 -30 -4 -95 17 -71 14
-120 -11 -153 -13 -16 -16 -17 -25 -4 -8 12 -10 9 -10 -12 0 -29 22 -39 36
-16 11 18 23 -21 17 -55 -7 -33 24 -107 44 -107 11 0 18 26 14 53 -2 11 17 9
24 -3 4 -6 11 -7 17 -4 5 4 -7 24 -30 48 -23 22 -45 55 -51 71 -9 25 -9 27 2
10 54 -89 186 -136 237 -85 19 19 20 19 70 -37 49 -56 64 -93 36 -93 -7 0 -21
11 -30 26 -18 27 -53 44 -73 37 -20 -8 -52 -67 -48 -88 2 -11 4 -23 4 -27 1
-3 24 -31 51 -61 l50 -55 -35 -31 c-27 -24 -45 -31 -75 -31 -22 0 -40 2 -40 4
0 3 11 17 25 32 40 43 30 58 -39 62 -48 3 -62 7 -81 30 -19 21 -22 35 -18 65
3 21 2 45 -1 54 -6 14 -9 14 -29 -4 -12 -12 -32 -24 -45 -28 -47 -14 -63 -77
-38 -150 3 -11 -6 5 -21 35 -30 61 -32 85 -18 245 7 85 11 102 29 115 12 8 25
15 31 15 13 0 26 64 20 101 -3 17 -14 39 -25 49 -28 26 -22 121 10 147 28 22
44 19 48 -10z m2433 -2 c15 0 10 -27 -7 -34 -22 -8 -34 1 -34 26 0 14 5 18 16
14 9 -3 20 -6 25 -6z m-2589 -17 c24 -22 23 -33 -5 -33 -25 0 -47 17 -47 37 0
18 30 16 52 -4z m-62 -28 c0 -10 -40 -24 -54 -19 -28 11 -17 24 19 24 19 0 35
-2 35 -5z m80 -36 c0 -5 -11 -13 -23 -18 -27 -10 -72 -61 -82 -91 -4 -12 -15
-20 -30 -20 -26 0 -39 22 -22 39 6 6 16 26 21 43 7 22 22 38 44 49 34 16 92
14 92 -2z m-150 -2 c0 -19 -21 -37 -42 -37 -22 0 -23 13 -2 34 19 19 44 21 44
3z m178 -43 c58 -12 71 -96 21 -138 -40 -34 -82 -34 -116 0 -32 33 -26 77 17
117 33 30 34 30 78 21z m298 -6 c4 -7 9 -23 10 -35 2 -13 20 -47 40 -76 45
-61 173 -197 187 -197 5 0 -26 37 -69 83 -110 116 -155 193 -125 211 5 3 33
-27 62 -67 63 -86 203 -227 283 -287 91 -67 121 -160 74 -230 -50 -72 -127
-97 -186 -60 -42 26 -66 79 -52 115 5 14 17 25 26 25 13 0 15 -7 10 -35 -6
-31 -3 -40 23 -65 34 -34 58 -37 108 -13 73 34 82 146 17 211 -36 36 -50 35
-65 -5 -9 -24 -9 -24 -41 -6 -49 28 -298 278 -298 300 0 15 -48 68 -56 61 -4
-4 9 -28 28 -53 32 -40 35 -48 24 -70 -15 -34 -48 -32 -90 5 -48 43 -59 79
-37 122 31 57 108 97 127 66z m-492 -21 c-9 -24 -34 -30 -34 -7 0 10 8 20 18
22 22 5 24 4 16 -15z m2647 -15 c3 -45 -14 -74 -37 -65 -10 3 -13 12 -8 22 4
9 6 25 6 36 -2 26 37 32 39 7z m43 -11 c13 -25 13 -31 2 -40 -17 -14 -22 -7
-24 37 -3 40 3 41 22 3z m-94 6 c0 -22 -26 -51 -38 -43 -13 8 -16 39 -5 49 11
12 43 7 43 -6z m-2597 -64 c-3 -7 -9 -10 -14 -7 -11 6 -12 38 -2 48 9 9 22
-25 16 -41z m2499 22 c3 -16 1 -25 -7 -25 -13 0 -27 35 -17 44 11 12 20 5 24
-19z m42 -1 c4 -11 1 -14 -11 -12 -9 2 -18 9 -21 16 -6 18 25 15 32 -4z
m-2479 -29 c0 -22 -22 -30 -44 -16 -12 8 -13 12 -1 26 17 21 45 15 45 -10z
m2535 0 c10 -13 9 -15 -9 -15 -12 0 -21 6 -21 15 0 8 4 15 9 15 5 0 14 -7 21
-15z m-2625 -4 c3 -6 -4 -15 -15 -21 -20 -11 -21 -10 -10 9 12 23 16 25 25 12z
m2585 -11 c0 -16 -21 -22 -36 -9 -11 9 -12 14 -3 20 14 8 39 1 39 -11z m110
10 c0 -5 -7 -10 -16 -10 -8 0 -12 5 -9 10 3 6 10 10 16 10 5 0 9 -4 9 -10z
m-70 -40 c0 -5 -4 -10 -9 -10 -6 0 -13 5 -16 10 -3 6 1 10 9 10 9 0 16 -4 16
-10z m-2432 -45 c3 -22 -35 -86 -55 -92 -17 -6 -26 57 -14 90 9 23 16 28 39
25 18 -2 28 -10 30 -23z m-150 -29 c3 -12 -1 -17 -10 -14 -7 3 -15 13 -16 22
-3 12 1 17 10 14 7 -3 15 -13 16 -22z m-73 -30 c0 -25 -16 -30 -39 -13 -24 17
-12 39 17 35 14 -2 22 -10 22 -22z m228 -98 l-6 -123 31 -62 c17 -34 39 -63
48 -65 14 -3 14 -6 -4 -28 -10 -14 -22 -42 -26 -62 -8 -42 -24 -48 -51 -18
-10 11 -24 20 -32 20 -18 0 -16 10 7 40 11 14 20 33 20 42 0 9 5 18 11 20 9 3
9 9 1 24 -12 22 -32 156 -32 212 0 30 28 122 37 122 2 0 0 -55 -4 -122z m167
58 c0 -18 -4 -26 -9 -20 -12 13 -22 60 -14 68 10 10 23 -16 23 -48z m-293 2
c-7 -10 -15 -18 -19 -18 -13 0 -9 48 5 53 18 6 27 -14 14 -35z m-63 13 c10
-15 -13 -63 -27 -58 -17 5 -21 35 -7 52 14 17 26 19 34 6z m2621 -89 c0 -54
-4 -73 -24 -100 -23 -33 -25 -56 -2 -28 7 8 18 13 25 10 8 -3 33 21 60 57 41
57 46 60 46 36 0 -62 -64 -147 -111 -147 -24 0 -24 -2 1 -42 45 -74 12 -173
-67 -199 -35 -11 -38 -10 -60 15 -27 31 -28 45 -9 72 12 15 17 17 28 6 11 -11
10 -14 -2 -22 -27 -16 20 -25 49 -9 29 16 36 44 26 96 -14 77 -87 107 -142 58
l-28 -25 30 6 c37 6 71 -16 62 -40 -5 -12 -14 -15 -30 -11 -16 4 -30 1 -41
-10 -21 -21 -13 -33 9 -15 11 9 19 10 26 3 7 -7 5 -14 -6 -23 -17 -14 -21 -80
-5 -80 6 0 10 -5 10 -11 0 -7 7 -17 15 -23 12 -9 12 -14 0 -29 -13 -18 -14
-18 -25 2 -6 12 -19 21 -29 21 -23 0 -35 28 -20 46 8 10 5 21 -13 46 -24 34
-46 103 -55 173 -5 38 -4 39 11 20 16 -20 16 -20 31 -1 8 10 17 38 21 62 8 55
24 47 24 -12 0 -52 21 -60 44 -16 13 23 15 24 17 7 1 -11 1 -23 0 -27 -3 -18
19 -6 47 27 30 33 52 88 52 130 0 11 3 30 6 43 12 43 29 4 29 -66z m-445 33
c0 -8 -4 -15 -9 -15 -5 0 -14 7 -21 15 -10 13 -9 15 9 15 12 0 21 -6 21 -15z
m-1565 -23 c6 -4 36 -35 68 -68 l57 -60 -16 -33 c-9 -17 -14 -41 -11 -52 3
-10 1 -19 -4 -19 -12 0 -11 57 1 81 6 11 7 19 1 19 -11 0 -32 -56 -24 -64 4
-3 1 -6 -5 -6 -15 0 -15 35 0 63 10 20 10 21 -5 8 -10 -7 -17 -22 -17 -32 0
-11 -4 -19 -9 -19 -9 0 -3 30 14 73 13 31 -12 18 -29 -15 -10 -22 -16 -27 -16
-15 0 10 5 27 10 38 8 13 7 19 0 19 -6 0 -15 -10 -20 -22 -5 -14 -9 -17 -9 -8
-1 9 6 26 16 39 12 18 13 23 2 19 -8 -2 -18 -14 -24 -26 -5 -12 -13 -22 -18
-22 -4 0 -1 13 8 30 19 37 19 46 0 30 -18 -15 -20 0 -2 19 10 12 9 13 -7 7
-16 -5 -17 -4 -6 9 14 16 29 19 45 7z m1535 -13 c0 -6 -4 -7 -10 -4 -5 3 -10
11 -10 16 0 6 5 7 10 4 6 -3 10 -11 10 -16z m115 -11 c7 -18 11 -37 7 -42 -3
-5 -9 -1 -13 10 -4 11 -14 26 -23 33 -20 17 -21 31 -1 31 9 0 22 -15 30 -32z
m-150 -18 c-5 -8 -11 -8 -21 1 -12 10 -12 14 -2 20 16 10 33 -5 23 -21z m107
13 c21 -25 28 -48 18 -63 -6 -10 -13 -2 -26 26 -10 21 -20 42 -22 47 -7 14 15
7 30 -10z m-1404 -55 c26 -16 30 -23 21 -34 -9 -11 -9 -14 1 -14 6 0 19 18 27
40 9 22 19 40 23 40 21 0 44 -46 48 -95 5 -59 -8 -85 -53 -106 -11 -6 -8 -1 8
11 15 12 27 28 27 35 0 9 -9 5 -25 -10 -13 -14 -29 -25 -36 -25 -6 0 0 9 15
21 39 31 31 42 -10 14 -20 -14 -42 -25 -48 -25 -6 1 -1 6 12 13 22 13 59 57
47 57 -4 0 -20 -11 -37 -25 -31 -26 -48 -32 -48 -15 0 6 6 10 13 10 7 0 22 6
32 14 18 13 16 15 -26 36 -24 12 -58 36 -76 53 -26 24 -30 34 -22 49 10 19 11
19 42 -2 18 -12 47 -31 65 -42z m1392 -18 c0 -10 -4 -22 -10 -25 -5 -3 -10 0
-10 8 0 8 -9 26 -21 41 -11 14 -17 31 -13 38 9 15 54 -36 54 -62z m-1858 35
c-5 -28 -42 -56 -42 -33 0 17 28 58 39 58 5 0 6 -11 3 -25z m1726 6 c3 -8 -1
-12 -9 -9 -7 2 -15 10 -17 17 -3 8 1 12 9 9 7 -2 15 -10 17 -17z m-248 -1 c0
-14 -72 -49 -160 -78 -91 -29 -145 -37 -155 -23 -4 7 6 11 27 11 38 0 165 41
235 75 57 29 53 27 53 15z m210 -20 c0 -5 -7 -7 -15 -4 -8 4 -12 10 -9 15 6
11 24 2 24 -11z m-1750 -8 c0 -10 -6 -26 -13 -37 -13 -17 -14 -17 -20 4 -3 12
1 28 10 36 19 19 23 19 23 -3z m830 -21 c47 -17 106 -33 133 -37 26 -4 47 -11
47 -16 0 -23 -265 52 -294 83 -13 14 -6 12 114 -30z m1034 26 c19 -19 25 -65
10 -78 -10 -8 -15 -3 -22 23 -6 18 -13 41 -17 51 -8 20 10 23 29 4z m-144 -17
c0 -5 -2 -10 -4 -10 -3 0 -8 5 -11 10 -3 6 -1 10 4 10 6 0 11 -4 11 -10z m88
2 c21 -14 34 -74 18 -90 -11 -11 -14 -8 -19 24 -3 20 -14 45 -23 55 -13 15
-14 19 -3 19 8 0 20 -4 27 -8z m-2088 -27 c-7 -8 -21 -15 -32 -15 -17 0 -18 3
-8 15 7 8 21 15 32 15 17 0 18 -3 8 -15z m1115 -30 c17 -4 56 -12 88 -17 50
-10 57 -13 51 -30 -3 -12 1 -27 11 -38 10 -11 15 -26 11 -35 -7 -19 -26 -10
-26 12 0 53 -101 75 -137 31 -15 -19 -28 -23 -77 -23 -49 -1 -61 -4 -77 -24
-11 -13 -19 -19 -19 -14 0 5 11 20 25 33 31 29 48 81 40 120 l-6 30 43 -20
c24 -10 57 -22 73 -25z m-749 10 c15 -23 15 -27 1 -43 -16 -18 -57 -126 -57
-152 0 -32 -14 -41 -43 -27 -21 10 -25 17 -20 37 9 39 33 80 49 87 21 8 17 20
-10 27 -26 6 -44 56 -20 56 8 0 14 5 14 10 0 11 34 28 57 29 7 1 20 -10 29
-24z m1109 -25 c18 -11 43 -36 56 -55 13 -19 30 -37 37 -40 13 -5 66 5 140 26
23 6 46 9 49 5 4 -3 -1 -22 -10 -42 -20 -42 -71 -67 -136 -68 -41 -1 -45 1
-52 29 -10 35 -64 103 -74 93 -4 -4 4 -21 19 -38 25 -30 36 -80 17 -80 -16 0
-31 27 -25 44 3 9 1 16 -5 16 -6 0 -11 -7 -11 -15 0 -8 -3 -15 -7 -16 -96 -6
-111 -1 -81 29 18 18 0 27 -19 10 -13 -11 -25 -13 -40 -7 -33 12 -29 44 7 59
17 7 30 16 30 21 0 15 -20 10 -51 -12 -31 -22 -52 -18 -42 7 9 24 75 53 122
54 27 0 56 -8 76 -20z m265 -14 c0 -17 -93 -56 -136 -56 -44 0 -53 17 -11 25
18 4 57 15 87 25 30 10 56 19 58 19 1 1 2 -5 2 -13z m-1347 -28 c-11 -13 -28
-34 -37 -48 l-18 -25 7 25 c8 28 43 70 58 70 6 0 1 -10 -10 -22z m2142 -20
c22 -26 26 -39 21 -66 -7 -46 -9 -47 -40 -19 -22 21 -24 26 -11 31 25 9 15 58
-15 73 -24 12 -24 13 -3 13 12 0 33 -14 48 -32z m170 2 c-21 -23 -60 -26 -68
-6 -4 11 4 16 31 19 20 2 41 4 46 5 5 1 1 -7 -9 -18z m-2545 -8 c0 -11 -9 -27
-20 -37 -11 -10 -20 -24 -20 -32 0 -7 -9 -13 -19 -13 -17 0 -19 5 -14 35 4 27
2 36 -12 42 -18 6 -17 7 1 14 10 4 34 8 52 8 25 1 32 -3 32 -17z m509 4 c9
-11 5 -19 -20 -40 -17 -15 -49 -36 -70 -47 -22 -11 -39 -24 -39 -29 0 -22 -44
-8 -76 24 -19 19 -34 38 -34 43 0 4 28 7 62 5 57 -3 67 -1 103 27 46 34 58 37
74 17z m549 1 c6 -7 15 -25 21 -40 10 -25 8 -27 -13 -27 -15 0 -27 9 -34 25
-13 29 -37 33 -46 8 -16 -41 81 -70 130 -38 31 20 40 15 22 -14 -27 -44 -111
-54 -152 -16 -31 29 -37 88 -8 104 24 15 68 13 80 -2z m912 -36 c0 -9 9 -31
21 -50 21 -34 22 -45 3 -33 -19 13 -66 101 -59 112 9 15 35 -7 35 -29z m198
-13 c2 -27 -1 -48 -5 -49 -42 -4 -133 -3 -133 3 0 3 12 11 28 17 38 14 65 38
57 50 -10 17 5 32 28 29 19 -3 22 -11 25 -50z m-2258 3 c0 -22 -6 -30 -24 -35
-13 -3 -31 -8 -39 -12 -8 -3 -17 2 -21 12 -9 23 30 64 61 64 19 0 23 -5 23
-29z m1012 10 c11 -2 31 -65 28 -91 -1 -14 -7 -28 -13 -32 -19 -11 -47 11 -47
38 0 14 -4 22 -10 19 -16 -10 -11 -44 10 -65 17 -17 29 -19 65 -9 22 6 65 -14
65 -30 0 -41 -51 -54 -95 -25 -23 15 -25 15 -25 -1 0 -9 13 -22 30 -28 40 -15
39 -37 -2 -37 -32 0 -68 24 -68 45 0 7 -7 18 -15 25 -8 7 -15 23 -15 36 0 13
-4 24 -10 24 -18 0 -11 -40 15 -84 32 -55 60 -80 80 -73 11 5 15 0 15 -18 0
-17 -9 -29 -29 -39 -27 -14 -29 -14 -42 12 -7 15 -26 46 -42 70 -42 64 -69
131 -63 156 14 55 92 119 136 112 14 -2 28 -5 32 -5z m1628 -21 c-13 -25 -50
-36 -61 -19 -14 22 -11 27 19 37 37 12 54 5 42 -18z m-1536 4 c3 -8 2 -12 -4
-9 -6 3 -10 10 -10 16 0 14 7 11 14 -7z m-1202 -19 c0 -14 1 -30 2 -37 1 -6
-4 -13 -11 -15 -14 -5 -28 40 -19 62 9 24 26 18 28 -10z m1800 -7 c-7 -7 -12
-25 -12 -40 0 -21 7 -31 28 -40 15 -7 29 -13 30 -14 2 -1 1 -12 -3 -24 -10
-30 -95 -66 -95 -39 0 5 4 8 10 4 10 -6 50 15 50 28 0 4 -9 3 -19 -3 -26 -14
-38 -13 -23 2 16 16 15 38 -4 59 -15 16 -14 20 12 53 16 19 30 33 33 30 3 -2
-1 -10 -7 -16z m-345 -23 c36 2 54 -2 57 -11 3 -8 20 -14 38 -14 18 0 40 -4
48 -10 15 -9 16 -9 -35 -25 -8 -2 -21 -19 -28 -38 -16 -36 -94 -107 -119 -107
-8 0 -27 9 -41 20 -14 11 -29 20 -34 20 -14 0 -43 67 -43 98 0 17 13 41 37 66
35 37 37 38 52 18 13 -15 26 -19 68 -17z m-973 -10 c21 -19 46 -35 57 -35 49
0 3 -51 -54 -60 -53 -8 -69 3 -69 45 0 21 20 85 27 85 1 0 19 -16 39 -35z
m1397 25 c22 -12 49 -60 49 -88 0 -38 -73 -102 -116 -102 -7 0 -26 -14 -43
-31 -17 -17 -31 -25 -31 -17 1 20 31 51 75 75 62 33 86 103 36 103 -27 0 -47
36 -30 56 14 17 33 18 60 4z m-1785 -52 c-8 -58 -56 -108 -56 -58 0 10 -5 31
-12 46 -11 23 -10 28 7 40 10 8 30 14 43 14 22 0 23 -3 18 -42z m2289 32 c3
-5 1 -10 -4 -10 -6 0 -11 5 -11 10 0 6 2 10 4 10 3 0 8 -4 11 -10z m345 2 c0
-14 -23 -32 -42 -32 -18 0 -25 20 -11 33 9 10 53 9 53 -1z m-2538 -19 c26 -23
22 -40 -12 -58 -33 -17 -70 -20 -70 -5 0 6 9 10 19 10 11 0 23 5 27 11 5 8 -1
10 -20 7 -22 -4 -26 -2 -26 17 0 12 3 25 7 28 12 13 56 7 75 -10z m1814 -20
c-11 -11 -17 4 -9 23 7 18 8 18 11 1 2 -10 1 -21 -2 -24z m336 27 c10 0 16 -4
13 -10 -4 -6 7 -10 24 -10 38 0 40 -17 4 -32 -22 -9 -24 -12 -10 -15 26 -7 21
-32 -8 -39 -15 -4 -28 -16 -31 -29 -3 -13 -12 -26 -20 -29 -10 -4 -13 3 -11
27 2 31 0 32 -31 29 l-33 -2 18 30 c18 32 28 37 38 20 7 -12 25 -13 25 -2 0 4
-7 15 -15 26 -13 17 -15 17 -37 2 -30 -21 -70 -22 -62 -1 10 24 56 46 88 40
16 -3 37 -5 48 -5z m-1102 -30 c22 -1 23 -2 7 -11 -24 -14 -64 -4 -77 21 -10
18 -9 18 17 4 16 -7 39 -14 53 -14z m500 -6 c14 -35 13 -41 -8 -39 -34 2 -42
14 -30 40 14 32 26 32 38 -1z m1069 22 c-2 -2 -15 -9 -29 -15 -24 -11 -24 -11
-6 3 16 13 49 24 35 12z m-1129 -14 c0 -16 -37 -43 -65 -48 -15 -3 -31 -6 -35
-7 -5 -1 -8 3 -9 8 -1 6 12 13 28 17 16 5 34 15 41 23 13 16 40 20 40 7z
m-1376 -23 c33 -26 34 -49 1 -49 -15 0 -25 6 -25 14 0 7 -7 19 -15 26 -14 12
-12 30 4 30 5 0 20 -9 35 -21z m-287 -1 c16 -26 13 -48 -6 -48 -21 0 -30 16
-23 43 5 20 18 22 29 5z m883 -3 c0 -8 -6 -15 -14 -15 -17 0 -28 14 -19 24 12
12 33 6 33 -9z m1810 -1 c0 -22 -66 -84 -89 -84 -10 0 -24 7 -32 16 -11 14 -7
20 27 49 43 37 94 47 94 19z m-2457 -25 c5 -9 7 -27 4 -41 -6 -22 -14 -27 -48
-30 -35 -3 -40 -1 -36 14 3 10 1 18 -4 18 -19 0 -8 26 19 42 32 20 51 19 65
-3z m1393 -34 c0 -19 8 -43 18 -54 16 -18 16 -20 -10 -40 -31 -24 -50 -21
-103 15 -40 27 -48 25 -31 -6 20 -37 9 -73 -29 -92 -19 -9 -37 -22 -41 -28 -7
-11 -88 29 -109 53 -11 14 -10 55 2 74 12 20 35 4 29 -19 -3 -14 -1 -19 6 -14
8 5 12 0 12 -13 0 -12 5 -21 10 -21 5 0 9 3 9 8 -1 4 -1 13 0 20 2 20 21 3 21
-19 0 -10 4 -19 8 -19 5 0 6 15 4 33 l-5 32 22 -19 c18 -16 21 -17 21 -3 0 9
-5 19 -10 22 -14 8 -7 18 38 54 37 28 40 29 67 15 16 -8 32 -11 37 -6 5 5 -3
15 -18 22 l-25 14 38 12 c21 7 38 12 38 13 0 0 0 -15 1 -34z m47 6 c-2 -6 8
-18 22 -27 19 -12 22 -18 12 -29 -6 -7 -18 -10 -25 -8 -17 7 -44 61 -36 74 8
13 30 5 27 -10z m867 -5 c0 -8 -5 -18 -10 -21 -6 -3 -15 -27 -22 -53 l-12 -47
-8 34 c-7 24 -5 42 7 67 16 34 45 47 45 20z m-2552 -9 c9 -11 10 -22 3 -56 -3
-14 -31 26 -31 45 0 26 12 31 28 11z m1272 -29 c-11 -12 -17 -24 -12 -27 51
-38 7 -168 -45 -135 -26 17 -22 39 7 39 34 0 42 49 10 58 -17 4 -20 10 -15 29
10 31 36 57 58 57 16 1 16 -1 -3 -21z m1430 -15 c0 -20 -28 -15 -40 6 -8 16
-6 20 8 23 18 4 32 -8 32 -29z m-2750 7 c0 -11 -10 -30 -22 -42 -21 -21 -23
-21 -26 -5 -4 20 23 67 38 67 6 0 10 -9 10 -20z m180 10 c-20 -13 -33 -13 -25
0 3 6 14 10 23 10 15 0 15 -2 2 -10z m1165 -19 c-3 -6 -11 -11 -17 -11 -6 0
-6 6 2 15 14 17 26 13 15 -4z m-1074 -1 c27 -15 25 -58 -3 -69 -51 -19 -78 21
-41 61 19 21 19 21 44 8z m261 -15 c43 0 40 -6 -12 -21 -32 -9 -43 -9 -59 3
-31 21 -27 37 7 27 15 -4 44 -8 64 -9z m2123 5 c3 -5 1 -10 -4 -10 -6 0 -11 5
-11 10 0 6 2 10 4 10 3 0 8 -4 11 -10z m189 -29 c-6 -6 -24 19 -24 34 1 6 7 1
15 -9 8 -11 12 -22 9 -25z m51 13 c9 -9 13 -19 10 -22 -3 -3 -15 4 -27 16 -13
12 -17 22 -11 22 6 0 19 -7 28 -16z m-1538 -16 c-3 -8 -6 -5 -6 6 -1 11 2 17
5 13 3 -3 4 -12 1 -19z m1089 -36 c-20 -20 -22 -1 -4 31 11 20 12 21 16 3 2
-10 -3 -26 -12 -34z m160 13 c1 -8 -1 -15 -6 -15 -8 0 -20 25 -20 43 0 16 23
-9 26 -28z m-1991 -15 c40 -18 35 -24 -18 -20 -29 2 -97 26 -97 35 0 12 79 2
115 -15z m1014 -23 c25 -51 25 -57 8 -57 -17 0 -37 42 -37 75 0 35 5 31 29
-18z m900 -11 c-9 -8 -10 -7 -5 7 3 10 7 26 7 35 1 9 4 6 6 -7 3 -13 -1 -28
-8 -35z m-832 -21 c-5 -6 -17 0 -33 18 -32 38 -21 53 14 19 17 -16 25 -31 19
-37z m-276 -20 c57 -43 79 -49 79 -21 0 13 69 50 78 42 11 -11 -23 -69 -50
-86 -37 -22 -64 -16 -105 23 -32 29 -33 30 -65 14 -31 -15 -33 -15 -36 3 -2
11 4 30 12 42 9 12 17 32 17 43 1 16 2 17 6 3 2 -10 31 -38 64 -63z m-1037 50
c6 -17 4 -18 -18 -9 -20 8 -21 24 -2 24 8 0 16 -7 20 -15z m231 -25 c17 0 40
-7 51 -15 17 -13 15 -14 -31 -15 -56 0 -91 15 -112 47 l-15 22 38 -20 c21 -10
52 -19 69 -19z m-365 17 c0 -7 -7 -22 -15 -33 -12 -16 -14 -17 -15 -2 0 23 11
48 21 48 5 0 9 -6 9 -13z m2570 3 c0 -5 -6 -10 -14 -10 -8 0 -18 5 -21 10 -3
6 3 10 14 10 12 0 21 -4 21 -10z m-2482 -37 c-4 -34 -28 -43 -28 -10 0 25 7
37 22 37 5 0 8 -12 6 -27z m2397 -4 c11 -17 -1 -21 -15 -4 -8 9 -8 15 -2 15 6
0 14 -5 17 -11z m-2245 -38 c0 -10 -7 -24 -15 -31 -13 -10 -15 -9 -15 12 0 14
3 28 7 31 12 13 23 7 23 -12z"/>
<path d="M1940 5126 c0 -8 5 -18 10 -21 6 -3 10 3 10 14 0 12 -4 21 -10 21 -5
0 -10 -6 -10 -14z"/>
<path d="M2100 5126 c0 -9 5 -16 10 -16 6 0 10 4 10 9 0 6 -4 13 -10 16 -5 3
-10 -1 -10 -9z"/>
<path d="M1976 5122 c-2 -4 -1 -14 5 -22 7 -12 9 -10 9 8 0 23 -5 28 -14 14z"/>
<path d="M2004 5109 c-3 -6 -1 -16 5 -22 8 -8 11 -5 11 11 0 24 -5 28 -16 11z"/>
<path d="M2040 5115 c0 -5 5 -17 10 -25 5 -8 10 -10 10 -5 0 6 -5 17 -10 25
-5 8 -10 11 -10 5z"/>
<path d="M2070 5111 c0 -6 5 -13 10 -16 6 -3 10 1 10 9 0 9 -4 16 -10 16 -5 0
-10 -4 -10 -9z"/>
<path d="M1907 5024 c-3 -3 -2 -14 3 -23 5 -9 11 -28 15 -43 8 -43 69 -37 77
7 2 14 -5 22 -28 30 -17 5 -38 16 -46 22 -8 7 -18 10 -21 7z m48 -64 c3 -5 1
-10 -4 -10 -6 0 -11 5 -11 10 0 6 2 10 4 10 3 0 8 -4 11 -10z"/>
<path d="M2134 5015 c-10 -8 -31 -15 -46 -15 -20 0 -28 -5 -28 -18 0 -30 24
-54 51 -50 18 2 25 10 27 33 2 17 9 36 14 43 16 19 4 24 -18 7z m-9 -55 c-3
-5 -12 -10 -18 -10 -7 0 -6 4 3 10 19 12 23 12 15 0z"/>
<path d="M2640 4950 c0 -5 5 -10 11 -10 5 0 7 5 4 10 -3 6 -8 10 -11 10 -2 0
-4 -4 -4 -10z"/>
<path d="M2635 4921 c3 -5 -2 -17 -11 -25 -9 -9 -11 -16 -4 -16 13 0 46 30 33
30 -4 0 -1 5 7 10 12 8 10 10 -8 10 -13 0 -21 -4 -17 -9z"/>
<path d="M1900 4669 c-184 -52 -215 -65 -315 -132 -182 -122 -319 -299 -429
-557 -22 -53 -64 -203 -70 -249 -2 -22 -7 -44 -10 -49 -19 -31 -11 -454 10
-502 4 -8 8 -22 9 -30 4 -33 28 -126 37 -143 5 -10 12 -30 14 -45 3 -14 11
-37 19 -51 8 -14 23 -48 34 -74 23 -55 121 -207 133 -207 4 0 8 -6 8 -12 0
-20 127 -149 200 -204 111 -84 197 -123 360 -165 19 -4 96 -7 170 -6 122 3
144 7 232 36 131 45 229 104 334 203 110 104 192 215 251 336 25 52 46 100 48
106 1 6 7 25 14 41 18 43 61 206 66 251 22 173 26 229 21 299 -10 133 -18 195
-27 201 -5 3 -7 9 -4 14 6 10 -27 150 -47 197 -6 16 -12 33 -13 39 -8 35 -91
195 -139 266 -153 231 -353 377 -591 434 -48 12 -277 14 -315 3z m285 -23
c383 -67 706 -439 797 -916 41 -215 26 -499 -36 -700 -24 -79 -73 -195 -105
-249 -17 -28 -31 -54 -31 -56 0 -3 -6 -13 -14 -22 -8 -10 -43 -54 -78 -97 -76
-96 -204 -202 -307 -255 -137 -70 -230 -90 -392 -86 -167 5 -273 40 -424 140
-297 198 -477 551 -510 1000 -3 44 -1 124 4 178 35 326 154 597 349 799 209
217 478 311 747 264z"/>
<path d="M1924 4536 c-142 -27 -309 -126 -420 -249 -71 -78 -192 -271 -199
-317 0 -3 -6 -14 -12 -25 -17 -32 -50 -145 -57 -199 -4 -27 -9 -53 -11 -56 -2
-4 -8 -35 -12 -71 -13 -105 -6 -276 16 -394 11 -60 22 -121 25 -135 2 -14 19
-62 36 -105 27 -69 46 -106 115 -225 47 -80 174 -207 271 -270 253 -165 526
-156 779 25 58 41 159 141 200 199 33 45 125 210 125 224 0 7 9 30 19 50 21
40 68 211 70 252 0 14 4 48 9 75 8 55 7 262 -2 311 -3 18 -8 52 -11 75 -7 55
-30 144 -50 195 -9 21 -20 48 -24 59 -97 242 -253 421 -457 523 -116 58 -283
82 -410 58z m237 -20 c91 -21 183 -60 248 -103 53 -36 221 -193 221 -207 0 -4
16 -30 36 -59 134 -194 211 -476 201 -732 -13 -313 -128 -597 -322 -794 -68
-70 -71 -73 -137 -114 -104 -67 -197 -99 -328 -112 -50 -5 -87 -2 -155 14
-418 100 -709 548 -699 1077 2 130 9 183 35 288 55 218 166 416 306 546 67 62
101 90 109 90 3 0 19 9 35 21 36 25 133 65 202 83 73 19 174 19 248 2z"/>
<path d="M1945 4489 c-240 -47 -433 -209 -567 -474 -83 -164 -121 -333 -122
-540 -1 -184 4 -221 54 -400 19 -67 109 -259 140 -298 83 -104 115 -140 156
-176 160 -142 308 -192 507 -171 91 9 113 16 207 61 94 46 115 61 200 148 52
53 102 110 110 126 8 17 18 32 22 35 7 5 86 172 107 226 10 26 24 76 46 169
30 125 36 316 15 445 -47 286 -139 473 -324 655 -109 108 -179 151 -290 180
-79 20 -199 26 -261 14z m215 -23 c65 -9 214 -86 291 -149 161 -133 315 -424
345 -647 3 -25 7 -58 10 -75 4 -36 4 -215 -1 -270 -17 -189 -85 -381 -193
-543 -109 -165 -282 -293 -442 -327 -79 -17 -190 -18 -242 -4 -23 7 -49 14
-57 15 -17 3 -164 75 -171 83 -3 3 -23 19 -45 36 -46 33 -43 31 -109 105 -122
138 -211 324 -247 520 -28 148 -34 278 -19 385 7 50 14 101 16 115 14 106 74
260 147 381 105 175 279 319 443 368 55 16 181 19 274 7z"/>
<path d="M1941 4354 c-96 -26 -184 -80 -271 -167 -44 -45 -89 -95 -100 -112
-72 -108 -146 -301 -155 -404 -4 -33 -8 -71 -11 -83 -5 -29 -5 -223 1 -263 2
-16 7 -54 10 -83 5 -48 33 -147 56 -197 5 -11 13 -33 19 -49 24 -67 116 -202
182 -267 119 -117 270 -177 421 -166 54 3 86 13 150 45 192 95 348 307 414
562 25 95 28 122 28 285 0 187 -4 217 -53 370 -50 161 -175 351 -278 427 -144
105 -279 138 -413 102z m196 -18 c255 -68 448 -320 518 -676 23 -120 14 -359
-19 -485 -29 -113 -96 -258 -154 -338 -81 -109 -205 -203 -316 -239 -17 -6
-66 -12 -108 -13 -208 -7 -404 135 -526 380 -114 229 -145 475 -92 733 67 328
276 584 520 636 84 18 114 19 177 2z"/>
<path d="M1969 4310 c-160 -27 -338 -193 -431 -405 -80 -179 -109 -361 -88
-550 12 -107 40 -225 54 -225 6 0 22 -9 36 -20 28 -22 83 -26 97 -7 6 6 13 25
17 42 4 16 11 32 16 35 4 3 -1 48 -11 100 -21 106 -25 220 -8 220 6 0 8 -9 4
-20 -4 -12 -2 -20 5 -20 8 0 10 -10 7 -26 -3 -16 5 -48 19 -81 13 -29 24 -60
24 -69 0 -8 7 -17 15 -20 8 -4 15 -14 15 -23 0 -9 4 -21 9 -26 14 -15 60 -152
65 -192 6 -42 8 -45 38 -47 14 -1 24 -8 26 -21 2 -12 0 -16 -5 -9 -20 27 -61
14 -63 -20 0 -6 92 -3 116 4 1 0 7 13 14 29 9 24 9 34 -4 60 -9 17 -21 31 -26
31 -17 0 -11 32 8 46 16 12 16 13 -1 20 -12 4 -25 1 -35 -10 -15 -15 -15 -18
-2 -26 13 -8 13 -10 -2 -10 -10 0 -23 17 -34 48 -10 26 -21 52 -25 57 -4 6
-10 27 -14 48 -4 20 -11 40 -16 43 -5 3 -3 12 5 20 9 9 36 14 74 14 65 0 92
-6 92 -22 0 -5 -5 -6 -11 -2 -27 16 0 -23 29 -42 l31 -21 -1 -181 c-1 -205 -6
-220 -83 -247 -32 -11 -35 -14 -15 -14 47 -1 72 12 86 43 11 27 13 28 14 9 0
-36 -34 -63 -80 -63 -39 0 -110 23 -110 35 0 3 9 1 21 -5 11 -6 25 -9 32 -6 8
3 6 5 -3 5 -8 1 -26 10 -40 21 -31 24 -47 26 -29 3 13 -16 12 -17 -4 -4 -9 8
-15 16 -12 19 3 3 -18 29 -46 58 -29 30 -52 62 -53 76 -1 13 -7 22 -15 20 -7
-1 -10 2 -7 7 3 4 -12 20 -34 35 -22 14 -40 24 -40 21 0 -24 24 -95 32 -95 6
0 8 9 5 20 -4 17 -2 18 14 9 23 -12 25 -37 3 -35 -9 0 -19 -5 -21 -12 -4 -9 3
-11 20 -8 15 3 31 -1 38 -10 6 -7 15 -12 19 -9 5 3 12 1 15 -5 4 -6 1 -9 -6
-8 -51 12 62 -127 134 -163 38 -20 52 -24 107 -35 14 -2 42 -23 64 -45 40 -42
40 -42 66 3 6 9 48 35 94 56 96 45 150 90 212 178 27 38 50 61 58 58 9 -4 15
8 19 38 2 24 8 51 12 61 4 10 3 17 -5 17 -6 0 -14 -9 -17 -20 -5 -18 -15 -25
-36 -21 -5 1 -6 -3 -2 -9 6 -9 -8 -15 -29 -11 -5 1 -6 -5 -2 -14 18 -47 -134
-195 -201 -195 -14 0 -15 -2 -4 -9 8 -5 21 -7 30 -4 9 2 3 -3 -12 -12 -23 -13
-34 -14 -63 -5 -18 6 -34 16 -34 21 0 6 7 6 18 0 11 -6 24 -6 33 0 12 7 12 9
-2 9 -8 0 -25 10 -37 23 -18 19 -22 38 -27 137 -3 63 -8 146 -10 184 -5 62 -3
67 13 61 9 -4 34 -9 55 -12 21 -3 40 -10 43 -14 3 -5 13 -9 22 -9 11 1 6 7
-13 17 -16 10 -38 16 -47 14 -10 -1 -26 2 -35 8 -14 8 -10 9 16 4 25 -4 32 -3
27 5 -12 20 10 13 29 -8 30 -33 36 -22 9 18 -27 40 -54 61 -54 42 0 -6 -7 -4
-16 5 -9 9 -24 13 -35 10 -13 -4 -19 -2 -19 9 0 14 17 16 114 16 105 0 143 -8
116 -25 -5 -3 -10 -15 -10 -26 0 -11 -10 -41 -21 -67 -12 -26 -30 -69 -41 -97
-13 -36 -17 -41 -14 -18 6 36 -14 59 -41 48 -16 -7 -16 -9 -2 -12 19 -5 14
-46 -7 -64 -17 -14 -18 -83 -1 -97 6 -5 33 -11 59 -13 l48 -4 -6 31 c-3 18 -1
35 5 38 5 4 8 13 5 20 -5 14 52 193 68 211 4 5 8 15 8 23 0 8 6 20 14 26 24
19 64 132 54 151 -7 11 -5 22 6 34 21 23 20 32 -1 24 -17 -7 -17 -6 -1 10 16
16 15 47 -1 47 -8 0 -31 -50 -31 -67 0 -11 -33 -13 -162 -11 l-163 3 -3 49
c-3 44 0 51 30 77 18 16 25 26 15 23 -13 -5 -16 -2 -11 10 4 10 13 15 20 12 8
-3 14 1 14 10 0 8 11 19 24 24 14 5 30 19 36 31 10 17 9 20 -1 14 -9 -6 -11
-3 -6 9 4 10 7 23 8 29 0 7 4 3 9 -8 6 -13 9 -15 9 -5 0 8 -4 22 -9 30 -9 13
-11 13 -19 1 -6 -10 -8 0 -4 30 7 53 13 64 13 23 l0 -29 70 0 c76 0 96 11 85
45 -6 19 -12 22 -44 17 -20 -3 -46 -9 -58 -13 -18 -5 -23 -2 -24 12 -1 15 -3
13 -10 -6 -7 -21 -8 -19 -6 15 1 25 -2 40 -10 40 -6 0 -15 4 -20 9 -5 5 -3 6
5 2 6 -4 12 -3 12 2 0 9 -23 22 -36 22 -3 0 -2 -10 2 -22 3 -13 -9 0 -28 27
-19 28 -40 49 -46 48 -17 -4 -15 14 3 21 10 3 20 -6 31 -30 9 -19 20 -37 25
-40 14 -8 11 -1 -17 52 -22 41 -22 45 -5 25 23 -25 27 -21 11 10 -6 10 -17 19
-24 19 -18 0 -49 37 -41 49 16 27 86 -5 163 -74 89 -80 142 -172 188 -325 26
-87 29 -108 28 -240 0 -103 -5 -162 -17 -204 -15 -53 -15 -61 -2 -76 8 -9 15
-28 15 -41 0 -14 5 -30 12 -37 19 -19 76 -14 98 8 11 11 26 20 34 20 19 0 26
22 46 155 10 62 13 264 5 325 -20 156 -32 195 -113 358 -20 39 -40 72 -44 72
-4 0 -8 6 -8 13 0 18 -128 148 -183 186 -89 61 -213 88 -318 71z m168 -23 c46
-11 110 -46 169 -90 233 -177 364 -552 310 -888 -18 -109 -33 -162 -46 -154
-4 2 -18 -7 -30 -20 -29 -31 -55 -32 -74 -2 -22 35 -28 80 -16 133 15 63 15
314 0 379 -16 73 -47 162 -81 227 -15 32 -26 63 -24 70 3 7 18 20 34 29 l29
17 -15 -45 c-8 -24 -13 -46 -11 -48 2 -2 25 6 50 19 26 13 44 27 41 30 -4 3
-17 -1 -30 -9 -27 -18 -28 -16 -9 30 12 28 12 36 0 52 -7 10 -14 13 -14 7 0
-13 -59 -57 -76 -57 -7 0 -10 -7 -6 -16 3 -9 -24 16 -61 55 -66 71 -150 124
-195 124 -12 0 -22 6 -22 13 0 9 10 12 30 9 57 -8 93 55 53 90 -10 8 -30 18
-44 22 -25 5 -27 3 -32 -40 -2 -24 -12 -53 -21 -63 -12 -13 -14 -21 -7 -26 14
-8 14 -25 1 -25 -5 0 -10 7 -10 16 0 9 -7 14 -17 12 -12 -2 -18 -12 -18 -28 0
-15 5 -24 13 -22 9 1 12 -20 12 -83 0 -47 1 -88 2 -92 1 -5 5 -23 9 -40 6 -28
4 -33 -12 -33 -23 0 -26 -35 -4 -44 11 -4 15 -22 15 -76 0 -69 1 -71 23 -64
12 3 20 5 17 3 -3 -2 -15 -12 -26 -22 l-21 -18 -2 77 c-1 59 -6 82 -23 104
-20 28 -19 68 2 55 11 -7 14 8 3 18 -3 4 -12 -2 -20 -13 -12 -17 -26 -20 -96
-20 l-82 0 -24 -46 c-28 -52 -21 -79 20 -79 28 0 39 36 19 60 -18 21 3 26 91
23 l74 -3 3 -103 c3 -100 3 -102 23 -91 36 19 29 5 -9 -20 -23 -15 -32 -18
-23 -8 12 15 11 17 -13 17 -36 0 -68 -52 -60 -97 l6 -33 -104 0 -104 0 -14 34
c-11 29 -16 33 -32 25 -23 -12 -23 -5 -2 97 46 227 137 382 272 459 17 11 32
25 32 33 0 25 -81 -31 -147 -102 -94 -101 -157 -243 -178 -396 -10 -76 -5
-271 9 -343 7 -37 9 -70 4 -73 -4 -3 -8 -18 -8 -33 0 -15 -5 -32 -12 -39 -18
-18 -55 -15 -76 6 -10 10 -25 21 -33 24 -18 7 -38 88 -45 173 -2 33 -6 76 -9
96 -6 44 11 236 26 304 15 63 77 209 121 282 32 53 125 156 178 198 94 74 238
108 347 82z m-12 -83 c0 -32 -4 -40 -21 -42 -20 -3 -21 -1 -11 43 13 54 32 54
32 -1z m-66 -135 c18 -24 20 -33 10 -45 -9 -11 -9 -21 0 -40 6 -14 15 -23 20
-19 5 3 13 0 17 -6 4 -8 3 -9 -4 -5 -7 4 -12 3 -12 -3 0 -5 9 -13 21 -16 23
-8 41 -47 33 -72 -5 -15 -4 -16 6 -3 10 13 11 13 7 0 -6 -23 -69 -25 -89 -3
-24 26 -32 183 -10 183 12 0 11 5 -6 23 -20 21 -28 37 -19 37 2 0 13 -14 26
-31z m134 -196 c-3 -7 -9 -13 -14 -13 -5 0 -9 6 -9 13 0 8 6 14 14 14 8 0 12
-6 9 -14z m-63 -41 c27 2 36 0 33 -9 -5 -13 -143 -19 -143 -7 0 17 36 32 53
22 11 -5 36 -8 57 -6z m187 -2 c-2 -24 -21 -21 -25 3 -2 10 3 17 12 17 9 0 14
-8 13 -20z m-342 -9 c3 -6 -29 -10 -75 -10 -45 0 -85 -3 -91 -6 -5 -4 -9 -2
-9 4 0 5 6 12 13 14 22 9 156 7 162 -2z m289 -3 c-3 -4 -16 -8 -30 -8 -14 0
-22 4 -19 10 3 5 17 9 30 8 13 -1 21 -6 19 -10z m-110 -26 c-13 -8 -45 -68
-43 -79 4 -24 -4 -33 -26 -33 -14 0 -25 1 -25 3 -16 101 -7 117 58 117 26 0
42 -4 36 -8z m-351 -37 c7 -16 -8 -29 -23 -20 -15 9 -12 35 4 35 8 0 16 -7 19
-15z m204 -92 c-2 -21 -4 -4 -4 37 0 41 2 58 4 38 2 -21 2 -55 0 -75z m163 71
c0 -21 -17 -17 -23 5 -3 14 -1 18 9 14 8 -3 14 -11 14 -19z m-25 -23 c3 -5 -6
-22 -21 -38 l-26 -28 21 29 c17 23 19 31 9 38 -9 5 -10 8 -1 8 6 0 14 -4 18
-9z m29 -16 c-4 -8 -11 -15 -16 -15 -6 0 -5 6 2 15 7 8 14 15 16 15 2 0 1 -7
-2 -15z m-98 -70 c-3 -8 -1 -15 5 -15 6 0 7 -4 4 -10 -11 -18 -25 -10 -25 15
0 14 5 25 11 25 6 0 9 -7 5 -15z m-138 -75 c-7 -10 -14 -17 -17 -15 -4 4 18
35 25 35 2 0 -1 -9 -8 -20z m102 -29 c0 -28 -4 -53 -10 -56 -5 -3 -10 -1 -10
5 0 6 -4 8 -10 5 -6 -4 -10 9 -10 31 l0 36 -20 -23 -20 -24 13 27 c14 32 22
35 36 11 9 -15 10 -14 11 10 0 15 5 27 10 27 6 0 10 -22 10 -49z m-70 20 c0
-12 -20 -25 -27 -18 -7 7 6 27 18 27 5 0 9 -4 9 -9z m-39 -74 c-13 -13 -15 1
-4 30 7 17 8 17 11 -1 2 -10 -1 -23 -7 -29z m59 13 c0 -13 -7 -20 -18 -20 -10
0 -19 7 -19 15 0 8 4 12 8 9 4 -2 10 0 14 6 10 16 15 12 15 -10z m-310 0 c0
-5 -5 -10 -11 -10 -5 0 -7 5 -4 10 3 6 8 10 11 10 2 0 4 -4 4 -10z m695 -42
c14 -6 25 -17 25 -25 0 -28 -22 -103 -30 -98 -3 2 -151 5 -327 6 l-320 1 -20
44 -21 44 25 20 c24 19 42 20 334 20 212 0 316 -4 334 -12z m-33 -160 c-8 -8
-9 -4 -5 13 4 13 8 18 11 10 2 -7 -1 -18 -6 -23z m-588 6 c10 -25 -1 -29 -14
-5 -6 12 -7 21 -1 21 5 0 12 -7 15 -16z m277 -1 c13 -16 12 -17 -3 -4 -10 7
-18 15 -18 17 0 8 8 3 21 -13z m-28 1 c11 -11 -3 -24 -18 -18 -8 4 -12 10 -9
15 6 11 18 12 27 3z m102 -24 c-3 -5 -11 -10 -16 -10 -6 0 -7 5 -4 10 3 6 11
10 16 10 6 0 7 -4 4 -10z m-96 -29 c-6 -2 -18 4 -27 13 -15 15 -15 15 10 4 15
-7 23 -15 17 -17z m74 7 c38 -20 7 -19 -35 1 -35 16 -37 19 -13 14 17 -3 38
-10 48 -15z m252 12 c3 -5 2 -10 -4 -10 -5 0 -13 5 -16 10 -3 6 -2 10 4 10 5
0 13 -4 16 -10z m-169 -12 c4 -7 3 -8 -5 -4 -6 4 -14 1 -17 -8 -3 -8 -12 -12
-20 -9 -21 8 -17 21 9 26 12 2 23 5 24 6 1 0 5 -4 9 -11z m-377 -53 c0 -5 -4
-3 -9 5 -5 8 -9 22 -9 30 0 16 17 -16 18 -35z m263 -168 c4 -225 8 -242 68
-267 35 -14 90 -3 125 26 20 16 20 16 0 10 -17 -5 -16 -3 4 13 14 10 30 17 37
14 11 -4 25 13 36 42 1 6 6 9 11 7 4 -1 7 2 7 7 0 5 7 12 16 15 24 9 -66 -94
-101 -116 -16 -10 -59 -27 -95 -39 -63 -19 -125 -63 -114 -81 3 -4 1 -8 -5 -8
-15 0 -24 20 -9 20 30 1 -37 40 -86 50 -65 13 -160 68 -203 117 -34 37 -35 67
-2 37 10 -9 16 -20 14 -24 -3 -5 9 -20 26 -35 99 -82 198 -86 238 -8 7 14 11
94 11 222 0 111 4 201 9 201 5 0 10 -91 13 -203z m257 162 c-6 -19 -17 -47
-24 -64 -7 -16 -17 -42 -20 -57 -4 -16 -11 -28 -16 -28 -9 0 7 49 43 137 24
58 34 66 17 12z m-481 -96 c11 -29 17 -53 12 -53 -9 0 -26 41 -36 85 -10 43 1
29 24 -32z m87 -52 c3 -5 2 -12 -3 -15 -5 -3 -9 1 -9 9 0 17 3 19 12 6z m-265
-38 c0 -7 -39 17 -46 28 -3 6 5 3 20 -6 14 -10 26 -19 26 -22z m540 27 c0 -5
-2 -10 -4 -10 -3 0 -8 5 -11 10 -3 6 -1 10 4 10 6 0 11 -4 11 -10z m11 -27
c-12 -20 -14 -14 -5 12 4 9 9 14 11 11 3 -2 0 -13 -6 -23z m59 23 c0 -2 -7 -6
-15 -10 -8 -3 -15 -1 -15 4 0 6 7 10 15 10 8 0 15 -2 15 -4z m-339 -33 c-4
-15 -12 -28 -18 -30 -14 -5 -25 24 -13 32 6 4 10 0 11 -7 0 -7 4 -3 9 10 13
31 20 28 11 -5z m262 -3 c3 -11 2 -18 -3 -15 -4 3 -10 14 -13 25 -3 11 -2 18
3 15 4 -3 10 -14 13 -25z m260 7 c-3 -13 -13 -28 -23 -34 -15 -10 -17 -9 -13
10 4 17 29 47 39 47 0 0 -1 -10 -3 -23z m-203 -14 c0 -5 -5 -15 -10 -23 -9
-13 -11 -13 -19 0 -5 8 -7 18 -5 22 6 10 34 11 34 1z"/>
<path d="M1850 4215 c-14 -8 -20 -14 -14 -15 14 0 47 -77 39 -90 -5 -9 -44 -2
-60 11 -6 4 -22 12 -37 18 l-26 10 20 -59 c15 -43 24 -57 35 -53 13 5 13 7 -1
15 -14 8 -15 13 -5 24 16 19 29 18 29 -3 0 -14 5 -12 28 9 15 14 42 33 60 42
17 9 32 20 33 24 0 4 2 16 4 26 10 51 -48 74 -105 41z m66 -20 c16 -25 16 -56
-1 -62 -9 -3 -32 40 -40 75 -5 21 24 13 41 -13z m-116 -106 c0 -6 -4 -7 -10
-4 -5 3 -10 11 -10 16 0 6 5 7 10 4 6 -3 10 -11 10 -16z"/>
<path d="M2210 4218 c0 -10 -11 -34 -25 -54 l-25 -37 31 -19 c19 -11 38 -16
48 -12 14 6 13 8 -4 11 -45 9 -48 12 -34 29 12 14 14 14 19 -1 5 -15 9 -13 24
10 17 27 17 27 -4 20 -20 -6 -21 -5 -10 15 10 18 9 25 -4 38 -15 15 -16 15
-16 0z"/>
<path d="M2262 4181 c7 -11 16 -17 20 -14 10 5 -10 33 -23 33 -5 0 -4 -9 3
-19z"/>
<path d="M1978 4166 c-16 -11 -25 -36 -14 -36 18 0 75 33 71 40 -9 14 -37 12
-57 -4z m22 -10 c0 -2 -7 -7 -16 -10 -8 -3 -12 -2 -9 4 6 10 25 14 25 6z"/>
<path d="M1967 4098 c-3 -9 1 -22 9 -28 10 -9 14 -34 14 -88 0 -41 2 -73 5
-70 10 9 7 161 -3 167 -5 3 -11 13 -14 20 -4 12 -5 12 -11 -1z"/>
<path d="M2350 4088 c-14 -6 -34 -14 -45 -18 -11 -5 -26 -10 -34 -12 -10 -3
-9 -7 5 -18 11 -9 15 -10 10 -2 -4 7 -2 12 8 12 21 0 31 -21 15 -31 -12 -7
-11 -11 2 -24 15 -15 18 -12 44 39 16 31 26 58 24 60 -2 2 -15 -1 -29 -6z
m-10 -22 c0 -3 -4 -8 -10 -11 -5 -3 -10 -1 -10 4 0 6 5 11 10 11 6 0 10 -2 10
-4z"/>
<path d="M1670 4054 l-31 -26 41 -31 c22 -17 40 -36 40 -41 0 -5 11 1 25 14
30 28 33 70 7 93 -26 24 -45 21 -82 -9z m65 -18 c15 -15 22 -31 19 -40 -5 -13
-13 -9 -44 17 -26 21 -35 34 -27 39 19 12 26 10 52 -16z"/>
<path d="M1622 3977 c-19 -25 -25 -40 -14 -33 7 4 32 -5 57 -19 25 -15 45 -25
45 -22 0 3 3 12 6 20 3 9 -3 17 -18 20 -13 4 -33 15 -45 26 -16 15 -24 17 -31
8z"/>
<path d="M1579 3898 c-11 -27 -10 -32 5 -44 15 -11 24 -10 52 3 19 9 37 14 40
10 10 -9 -16 -37 -35 -38 -12 0 -11 -2 4 -9 l20 -8 -20 -7 c-39 -14 -43 -14
-49 1 -7 17 -45 19 -51 2 -17 -46 -10 -59 37 -78 26 -10 49 -15 52 -12 13 13
5 32 -14 32 -27 0 -25 18 3 22 15 2 30 19 47 50 24 45 24 48 7 65 -17 17 -19
17 -49 0 -37 -21 -62 -8 -28 16 16 11 18 16 6 20 -9 4 -18 -5 -27 -25z m11
-118 c0 -5 -9 -10 -20 -10 -11 0 -20 5 -20 10 0 6 9 10 20 10 11 0 20 -4 20
-10z"/>
<path d="M2473 3903 c27 -7 16 -24 -28 -41 -51 -19 -49 -16 -34 -44 8 -14 14
-18 17 -10 4 13 53 42 72 42 7 0 9 -8 5 -20 -5 -15 -3 -18 9 -14 20 8 20 9 -1
55 -13 27 -24 38 -38 38 -18 -1 -18 -2 -2 -6z"/>
<path d="M2506 3792 c-16 -8 -39 -15 -52 -16 -16 -1 -22 -6 -19 -14 3 -8 5
-18 5 -23 0 -5 18 0 41 11 23 12 47 19 55 16 15 -6 17 0 6 24 -6 14 -11 14
-36 2z"/>
<path d="M2505 3732 c-32 -7 -45 -22 -45 -53 0 -49 44 -73 91 -49 21 12 25 50
9 79 -11 22 -28 29 -55 23z m51 -37 c10 -24 -15 -45 -52 -45 -26 0 -34 4 -34
18 0 33 75 56 86 27z"/>
<path d="M1510 3696 c0 -7 -3 -27 -6 -43 -5 -27 -4 -29 24 -27 17 1 42 -4 56
-11 14 -8 26 -11 26 -7 0 4 4 24 9 45 8 33 6 39 -13 48 -17 10 -19 9 -8 -2 13
-14 17 -59 5 -59 -5 0 -15 5 -23 10 -12 8 -13 12 -2 19 10 6 7 10 -13 13 -19
4 -23 2 -16 -5 17 -17 13 -26 -9 -20 -23 6 -26 23 -8 41 9 9 8 12 -5 12 -9 0
-17 -6 -17 -14z"/>
<path d="M2508 3599 c-16 -9 -38 -66 -38 -99 0 -13 1 -13 10 0 7 12 12 12 22
2 18 -18 62 -15 81 6 23 25 21 58 -3 82 -22 22 -46 25 -72 9z m66 -25 c40 -15
-1 -54 -57 -54 -16 0 -18 3 -9 12 15 15 16 32 2 23 -5 -3 -10 -2 -10 4 0 5 10
12 23 14 12 2 25 5 29 6 3 0 13 -2 22 -5z"/>
<path d="M1490 3585 c0 -8 6 -12 14 -9 8 3 27 -1 42 -9 l27 -14 -33 -6 c-17
-4 -36 -4 -41 -1 -5 3 -9 -6 -9 -21 l0 -25 38 16 c20 9 42 17 49 18 29 5 22
16 -26 40 -59 30 -61 31 -61 11z"/>
<path d="M1590 3479 c0 -7 -18 -10 -50 -7 -45 3 -50 1 -50 -17 0 -18 7 -20 55
-20 53 0 55 1 55 28 0 15 -2 27 -5 27 -3 0 -5 -5 -5 -11z"/>
<path d="M2585 3469 c-4 -6 -19 -7 -35 -4 -54 12 -93 -38 -58 -73 13 -13 108
-17 108 -4 0 4 -24 7 -52 7 -46 0 -53 3 -53 20 0 16 8 21 44 23 28 2 47 -1 52
-10 6 -8 9 -2 9 20 0 33 -4 39 -15 21z"/>
<path d="M1491 3385 c0 -11 3 -14 6 -7 5 13 43 17 43 4 0 -5 -9 -17 -20 -27
-11 -10 -20 -28 -20 -39 0 -16 3 -18 9 -7 6 9 23 12 55 10 40 -4 46 -2 46 15
0 16 -3 17 -12 8 -7 -7 -23 -12 -37 -12 -24 0 -24 1 14 41 l40 40 -62 -3 c-55
-3 -63 -5 -62 -23z"/>
<path d="M2480 3339 c0 -14 7 -19 29 -19 16 0 41 -4 55 -10 22 -8 26 -7 26 10
0 14 -9 21 -37 25 -21 3 -46 8 -55 10 -12 2 -18 -3 -18 -16z"/>
<path d="M2470 3295 c0 -8 7 -15 15 -15 17 0 19 -9 5 -30 -8 -12 -12 -13 -19
-1 -6 9 -10 5 -13 -17 l-4 -29 53 12 c51 12 71 21 62 28 -2 2 -25 18 -51 35
-35 22 -48 27 -48 17z m49 -46 c-16 -10 -23 -4 -14 10 3 6 11 8 17 5 6 -4 5
-9 -3 -15z"/>
<path d="M1505 3272 c3 -8 5 -16 5 -19 0 -2 7 3 16 11 17 17 79 22 89 7 13
-22 -32 -46 -82 -44 -7 1 -13 -8 -13 -18 0 -15 5 -18 33 -13 66 13 98 54 63
83 -20 17 -118 10 -111 -7z"/>
<path d="M2490 3175 c-10 -12 -9 -16 5 -21 19 -8 40 9 31 25 -10 15 -21 14
-36 -4z"/>
<path d="M1572 3163 c5 -26 38 -29 38 -4 0 15 -6 21 -21 21 -14 0 -19 -5 -17
-17z"/>
<path d="M1763 3391 c12 -21 25 -37 29 -35 12 8 -17 69 -35 72 -14 3 -13 -3 6
-37z"/>
<path d="M1817 3424 c-3 -3 -3 -13 0 -22 4 -10 2 -13 -5 -8 -7 4 -12 2 -12 -3
0 -6 4 -11 10 -11 5 0 7 -7 4 -15 -4 -9 0 -15 8 -15 10 0 14 10 14 30 -1 16 4
29 9 27 6 -1 10 -14 10 -29 0 -16 5 -28 12 -28 7 0 10 7 6 17 -5 12 -2 15 10
10 11 -4 17 -1 17 8 0 9 -6 12 -15 9 -8 -4 -15 -1 -15 5 0 7 10 16 23 21 18 7
14 9 -24 9 -25 1 -48 -2 -52 -5z"/>
<path d="M1928 3390 c5 -49 22 -53 22 -5 0 19 4 35 9 35 14 0 23 -34 15 -55
-5 -13 -3 -16 7 -13 8 2 16 15 17 28 4 27 -20 50 -53 50 -18 0 -20 -5 -17 -40z"/>
<path d="M2008 3390 c4 -37 22 -58 22 -25 0 8 5 15 10 15 6 0 10 5 10 11 0 5
-4 7 -10 4 -5 -3 -10 -2 -10 4 0 17 22 24 31 10 7 -11 9 -10 9 4 0 13 -8 17
-33 17 -32 0 -32 -1 -29 -40z"/>
<path d="M2082 3390 c1 -23 7 -40 14 -40 7 0 14 18 16 40 3 33 1 40 -15 40
-15 0 -17 -7 -15 -40z"/>
<path d="M2158 3390 c2 -22 8 -40 12 -40 4 0 10 18 12 40 3 31 0 40 -12 40
-12 0 -15 -9 -12 -40z"/>
<path d="M2228 3390 c3 -27 9 -40 19 -40 10 0 13 8 10 29 -6 35 1 45 19 30 9
-7 10 -18 4 -35 -6 -15 -6 -24 0 -24 6 0 10 10 10 23 0 21 1 20 24 -8 l24 -29
3 47 c3 31 0 47 -7 47 -8 0 -10 -9 -7 -22 l6 -23 -25 23 c-14 12 -37 22 -54
22 -28 0 -29 -1 -26 -40z"/>
<path d="M2135 3360 c-3 -5 -1 -10 4 -10 6 0 11 5 11 10 0 6 -2 10 -4 10 -3 0
-8 -4 -11 -10z"/>
<path d="M1720 2866 c0 -2 8 -10 18 -17 15 -13 16 -12 3 4 -13 16 -21 21 -21
13z"/>
<path d="M2265 2800 c-3 -5 -1 -10 4 -10 6 0 11 5 11 10 0 6 -2 10 -4 10 -3 0
-8 -4 -11 -10z"/>
<path d="M2040 2751 c0 -7 -4 -9 -10 -6 -15 9 -12 -11 4 -24 10 -8 16 -8 25 3
9 10 8 16 -4 26 -11 9 -15 9 -15 1z"/>
<path d="M1660 2912 c0 -12 19 -26 26 -19 2 2 -2 10 -11 17 -9 8 -15 8 -15 2z"/>
<path d="M713 3409 c-9 -9 -6 -19 13 -42 38 -45 66 -106 66 -144 0 -18 4 -33
9 -33 5 0 9 9 9 19 0 11 3 27 7 37 4 12 3 15 -5 10 -15 -9 -15 -5 -2 30 9 24
9 25 -5 14 -20 -16 -20 -2 0 20 14 16 13 17 -12 14 -24 -4 -25 -3 -8 5 19 9
18 10 -5 10 -18 1 -21 4 -11 10 11 7 10 10 -5 13 -11 2 -19 12 -19 22 0 23
-16 31 -32 15z"/>
<path d="M3373 3408 c-2 -18 0 -20 7 -8 12 18 13 30 2 30 -4 0 -9 -10 -9 -22z"/>
<path d="M3276 3272 c-3 -6 -1 -14 5 -17 14 -9 20 -2 10 14 -6 8 -11 9 -15 3z"/>
<path d="M3335 3060 c-3 -5 -1 -10 4 -10 6 0 11 5 11 10 0 6 -2 10 -4 10 -3 0
-8 -4 -11 -10z"/>
<path d="M3158 2923 c7 -3 16 -2 19 1 4 3 -2 6 -13 5 -11 0 -14 -3 -6 -6z"/>
<path d="M3130 2830 c0 -5 7 -10 15 -10 8 0 15 5 15 10 0 6 -7 10 -15 10 -8 0
-15 -4 -15 -10z"/>
<path d="M3138 2793 c6 -2 18 -2 25 0 6 3 1 5 -13 5 -14 0 -19 -2 -12 -5z"/>
<path d="M2986 2673 c5 -19 2 -30 -11 -40 -11 -7 -14 -13 -9 -13 18 0 34 24
34 52 0 15 -5 28 -10 28 -6 0 -8 -11 -4 -27z"/>
<path d="M1005 2910 c3 -5 8 -10 11 -10 2 0 4 5 4 10 0 6 -5 10 -11 10 -5 0
-7 -4 -4 -10z"/>
<path d="M882 2624 c-7 -8 -8 -14 -3 -14 10 0 25 19 20 25 -2 1 -10 -3 -17
-11z"/>
<path d="M830 2591 c-23 -7 -23 -8 -5 -13 11 -3 26 1 33 9 14 14 10 15 -28 4z"/>
<path d="M1076 2658 c-31 -44 -6 -118 39 -118 25 0 17 14 -15 28 -16 8 -30 20
-30 27 0 28 24 65 42 65 10 0 18 5 18 10 0 19 -39 10 -54 -12z"/>
<path d="M783 2500 c-1 -11 2 -20 7 -20 4 0 7 7 6 15 -3 23 -12 26 -13 5z"/>
<path d="M2040 2156 c0 -9 5 -16 10 -16 6 0 10 4 10 9 0 6 -4 13 -10 16 -5 3
-10 -1 -10 -9z"/>
<path d="M2075 2157 c-4 -10 -5 -21 -1 -24 10 -10 18 4 13 24 -4 17 -4 17 -12
0z"/>
<path d="M2100 2134 c0 -8 5 -12 10 -9 6 3 10 10 10 16 0 5 -4 9 -10 9 -5 0
-10 -7 -10 -16z"/>
<path d="M2235 2060 c-8 -13 25 -13 45 0 12 8 9 10 -12 10 -15 0 -30 -4 -33
-10z"/>
<path d="M2265 2030 l-20 -9 20 0 c11 0 27 4 35 9 13 9 13 10 0 9 -8 0 -24 -4
-35 -9z"/>
<path d="M1940 1961 c0 -5 14 -11 30 -13 17 -3 30 -1 30 4 0 5 5 6 12 2 7 -4
8 -3 4 4 -8 14 -76 16 -76 3z"/>
<path d="M2070 1961 c0 -14 33 -23 41 -10 4 6 12 8 18 5 6 -4 11 -2 11 3 0 6
-16 11 -35 11 -19 0 -35 -4 -35 -9z"/>
<path d="M2022 1898 c5 -15 28 -23 28 -10 0 5 -7 13 -16 16 -10 4 -14 1 -12
-6z"/>
<path d="M2015 1850 c-3 -5 7 -8 25 -7 16 1 30 5 30 10 0 11 -48 9 -55 -3z"/>
<path d="M2170 1840 c0 -10 56 -33 69 -29 6 2 -8 12 -29 21 -22 9 -40 13 -40
8z"/>
<path d="M2492 5268 c-23 -23 -14 -62 20 -90 25 -21 29 -28 16 -28 -24 0 -23
-25 2 -50 11 -11 20 -26 20 -32 0 -7 7 -4 16 7 8 11 14 32 11 47 -2 20 2 32
18 42 27 18 35 44 24 74 -8 22 -10 22 -34 6 -17 -11 -25 -25 -25 -45 0 -16 -4
-29 -10 -29 -5 0 -10 13 -10 30 0 30 -18 80 -30 80 -3 0 -11 -5 -18 -12z m33
-39 c8 -23 1 -34 -14 -24 -13 8 -15 45 -2 45 5 0 13 -9 16 -21z m85 -18 c0
-21 -26 -36 -36 -20 -6 11 13 39 27 39 5 0 9 -9 9 -19z"/>
<path d="M3211 4402 c-11 -17 -28 -29 -37 -28 -9 0 -23 -10 -32 -24 l-16 -25
21 18 c12 10 30 17 40 15 12 -2 24 7 36 30 23 44 16 52 -12 14z"/>
<path d="M3215 4268 c-59 -22 -85 -49 -85 -89 0 -38 38 -59 73 -40 17 9 30 9
51 2 52 -20 57 -16 36 34 -12 28 -17 56 -14 74 3 16 2 31 -2 33 -5 3 -31 -4
-59 -14z m45 -17 c0 -5 -7 -17 -16 -25 -8 -9 -11 -16 -5 -16 14 0 41 -29 41
-45 0 -22 -39 -5 -55 24 -13 24 -14 24 -15 5 0 -27 -25 -48 -46 -40 -10 4 -14
15 -12 33 2 22 13 33 48 51 49 24 60 27 60 13z"/>
<path d="M579 4160 c-31 -25 -18 -25 23 0 20 12 26 20 17 20 -9 0 -27 -9 -40
-20z"/>
<path d="M550 4120 c0 -5 4 -10 9 -10 5 0 7 -9 4 -20 -7 -26 3 -26 18 1 9 17
8 23 -2 30 -19 12 -29 11 -29 -1z"/>
<path d="M638 1763 c6 -2 18 -2 25 0 6 3 1 5 -13 5 -14 0 -19 -2 -12 -5z"/>
<path d="M190 1388 c0 -5 4 -8 9 -8 5 0 17 -7 25 -16 13 -12 16 -41 16 -147 0
-145 6 -164 60 -192 39 -20 134 -19 169 1 49 29 55 49 59 194 3 123 5 136 25
152 20 15 19 16 -41 20 -65 3 -80 -6 -37 -22 28 -11 27 -6 25 -155 -2 -146
-17 -175 -91 -175 -73 0 -89 36 -89 197 l0 114 30 17 c16 9 30 19 30 22 0 3
-43 5 -95 5 -52 0 -95 -3 -95 -7z"/>
<path d="M647 1391 l-59 -6 26 -24 c26 -24 26 -26 26 -168 l0 -143 -27 -11
c-23 -9 -25 -12 -11 -18 9 -3 41 -4 70 -2 52 3 52 3 25 17 -26 14 -27 17 -28
107 0 51 -2 109 -3 130 l-2 37 20 -25 c12 -13 66 -81 121 -149 55 -69 106
-125 113 -125 9 -1 12 40 12 173 0 169 1 174 23 189 21 14 19 15 -41 18 -65 4
-80 -5 -37 -21 24 -9 25 -12 25 -107 0 -82 -2 -95 -13 -83 -8 8 -51 61 -97
118 -45 56 -83 101 -84 100 0 -1 -27 -4 -59 -7z"/>
<path d="M1085 1391 c-89 -5 -96 -7 -72 -18 l27 -13 0 -154 0 -155 -27 -15
c-26 -14 -22 -15 70 -18 54 -2 101 -1 103 1 2 2 -6 9 -19 15 -21 11 -22 17
-25 173 l-2 161 25 6 c14 4 25 11 25 16 0 6 -1 9 -2 8 -2 -1 -48 -4 -103 -7z"/>
<path d="M1285 1390 c-77 -4 -87 -7 -69 -17 12 -7 28 -29 37 -50 8 -21 28 -67
45 -103 16 -36 42 -98 58 -137 16 -40 34 -73 39 -73 10 0 43 76 116 268 17 47
39 87 50 92 33 18 21 25 -41 25 -33 0 -60 -3 -60 -7 0 -5 4 -8 8 -8 5 0 16 -6
26 -13 16 -12 15 -18 -14 -97 -17 -47 -34 -93 -37 -102 -3 -10 -9 -18 -12 -18
-8 0 -96 209 -90 213 2 2 15 8 28 13 38 16 15 19 -84 14z"/>
<path d="M1745 1390 c-137 -4 -156 -7 -132 -17 l27 -13 0 -155 0 -155 -25 -12
c-14 -6 -25 -14 -25 -17 0 -3 72 -6 160 -6 l161 0 5 25 c3 14 10 40 14 57 12
46 -4 50 -29 7 -25 -41 -77 -66 -129 -62 l-37 3 -3 79 -3 78 28 -6 c31 -8 53
-31 53 -57 0 -10 5 -21 10 -24 6 -4 10 28 10 89 0 57 -4 96 -10 96 -5 0 -10
-9 -10 -20 0 -26 -34 -60 -60 -60 -19 0 -21 5 -18 73 l3 72 54 0 c46 -1 57 -5
77 -29 13 -15 24 -34 24 -42 0 -8 5 -14 10 -14 6 0 10 27 10 60 0 33 -1 59 -2
58 -2 -1 -75 -5 -163 -8z"/>
<path d="M1964 1389 c-2 -3 8 -11 21 -17 l25 -12 0 -154 c0 -146 -1 -156 -21
-170 -20 -13 -15 -15 60 -18 98 -4 111 0 82 21 -20 15 -22 25 -19 85 l3 68 54
-85 55 -85 59 -4 c32 -2 61 0 64 5 2 4 0 7 -6 7 -5 0 -35 37 -66 82 -52 75
-55 84 -39 93 69 39 86 106 38 150 -15 14 -42 27 -60 31 -44 8 -245 11 -250 3z
m218 -36 c18 -16 25 -87 10 -109 -10 -15 -47 -34 -66 -34 -13 0 -16 14 -16 80
l0 80 27 0 c14 0 35 -7 45 -17z"/>
<path d="M2408 1371 c-28 -25 -32 -35 -32 -79 0 -62 14 -80 98 -123 80 -41 86
-47 86 -78 0 -34 -10 -48 -42 -60 -41 -15 -88 14 -118 74 l-25 50 -3 -69 c-2
-37 -1 -70 2 -73 2 -3 13 0 25 6 13 7 22 8 26 1 3 -5 36 -10 72 -10 61 0 67 2
99 34 29 29 34 41 34 79 0 59 -25 89 -111 132 -80 41 -98 65 -74 101 29 45 99
26 135 -38 12 -21 24 -37 26 -35 8 8 13 117 5 117 -4 0 -12 -5 -17 -10 -8 -8
-19 -8 -38 0 -15 5 -47 10 -71 10 -35 0 -52 -6 -77 -29z"/>
<path d="M2660 1388 c0 -4 11 -10 25 -14 l25 -6 0 -164 0 -164 -27 -7 c-27 -6
-27 -7 -5 -12 12 -3 59 -5 103 -3 l82 4 -32 19 -32 19 2 146 1 145 30 19 31
19 -102 3 c-55 2 -101 0 -101 -4z"/>
<path d="M2965 1392 c-89 -3 -90 -3 -67 -21 23 -17 24 -21 23 -167 -1 -139 -3
-150 -22 -166 -12 -10 -17 -18 -13 -19 5 0 58 0 118 0 94 0 116 4 155 23 76
39 115 146 84 233 -33 96 -98 123 -278 117z m135 -38 c35 -21 50 -69 50 -158
0 -84 -18 -129 -58 -145 -65 -27 -67 -24 -70 157 l-2 162 26 0 c14 0 38 -7 54
-16z"/>
<path d="M3326 1224 c-48 -121 -75 -178 -90 -187 -20 -11 -20 -11 9 -17 17 -3
45 -4 64 -1 l35 4 -27 14 c-31 16 -30 11 -16 52 11 30 12 31 75 31 60 0 65 -2
74 -26 15 -39 12 -54 -12 -64 -16 -6 4 -9 70 -9 89 -1 91 0 74 17 -10 10 -51
95 -91 190 -41 95 -79 172 -85 172 -6 0 -42 -79 -80 -176z m56 -72 c-24 -2
-46 -1 -49 2 -3 2 5 32 18 66 l22 61 26 -63 27 -63 -44 -3z"/>
<path d="M3624 1389 c-2 -3 8 -11 21 -17 l25 -12 0 -154 0 -155 -27 -15 c-33
-18 -37 -17 106 -16 125 1 160 11 203 56 81 87 59 240 -42 291 -39 20 -63 24
-164 26 -65 1 -120 -1 -122 -4z m231 -43 c41 -41 57 -146 35 -228 -14 -47 -54
-80 -94 -76 l-31 3 -3 150 c-1 82 0 155 2 162 9 22 65 15 91 -11z"/>
<path d="M7 823 c-4 -6 5 -15 18 -21 25 -12 25 -12 25 -159 0 -82 -4 -153 -8
-159 -4 -6 -16 -15 -27 -20 -14 -6 15 -10 95 -12 132 -3 183 10 224 59 51 60
58 166 16 234 -36 58 -89 78 -221 83 -70 3 -119 0 -122 -5z m198 -27 c50 -21
69 -65 69 -161 0 -93 -17 -136 -63 -154 -64 -27 -66 -22 -69 148 -2 104 1 158
9 167 14 17 12 17 54 0z"/>
<path d="M423 809 l27 -21 0 -154 0 -154 -25 -10 c-14 -5 -25 -12 -25 -15 0
-3 74 -5 164 -5 l163 0 12 57 c6 31 8 59 5 62 -4 3 -9 0 -11 -7 -19 -52 -105
-104 -153 -92 -24 6 -25 10 -28 83 -2 59 0 77 10 77 25 0 56 -30 63 -60 13
-59 25 -28 25 64 0 94 -13 133 -25 77 -7 -33 -19 -45 -53 -56 -23 -7 -23 -6
-20 72 l3 78 49 -3 c55 -3 90 -27 100 -68 12 -46 27 -25 24 34 l-3 57 -165 2
-165 3 28 -21z"/>
<path d="M1069 803 c-59 -163 -133 -333 -145 -333 -8 0 -14 -4 -14 -10 0 -5
25 -10 55 -10 30 0 55 5 55 10 0 6 -9 10 -19 10 -28 0 -31 10 -14 53 15 37 15
37 75 37 58 0 59 0 74 -35 15 -38 12 -55 -11 -55 -8 0 -17 -4 -20 -10 -4 -6
29 -10 92 -10 95 0 97 1 76 18 -12 9 -49 80 -83 157 -33 77 -67 155 -75 173
-18 39 -32 41 -46 5z m17 -158 c13 -31 24 -58 24 -60 0 -7 -85 -6 -92 0 -5 5
33 114 40 115 2 0 14 -25 28 -55z"/>
<path d="M1300 825 c0 -2 11 -15 25 -29 24 -24 25 -29 25 -160 0 -148 -3 -166
-31 -166 -10 0 -19 -4 -19 -10 0 -6 28 -10 65 -10 62 0 91 15 43 22 -22 3 -23
7 -28 136 -3 72 -5 132 -4 132 0 0 54 -67 120 -150 65 -82 125 -150 132 -150
9 0 12 42 12 179 0 171 1 180 20 186 39 12 19 25 -40 25 -64 0 -76 -10 -35
-28 24 -11 25 -15 25 -109 0 -82 -2 -95 -13 -83 -8 8 -51 61 -96 118 l-82 102
-59 0 c-33 0 -60 -2 -60 -5z"/>
<path d="M1710 770 c0 -33 2 -60 5 -60 3 0 11 16 19 35 15 36 72 72 89 56 4
-4 6 -79 5 -167 -3 -156 -3 -159 -25 -162 -13 -2 -23 -8 -23 -13 0 -5 43 -9
95 -9 57 0 95 4 95 10 0 6 -7 10 -15 10 -28 0 -35 39 -35 188 l0 149 30 -5
c33 -5 70 -44 70 -73 0 -11 5 -19 10 -19 6 0 10 27 10 60 l0 60 -165 0 -165 0
0 -60z"/>
<path d="M2070 822 c0 -5 11 -14 25 -20 l26 -12 -3 -157 c-3 -155 -3 -158 -25
-161 -13 -2 -23 -8 -23 -13 0 -5 43 -9 95 -9 57 0 95 4 95 10 0 6 -8 10 -19
10 -26 0 -31 25 -31 173 0 135 8 167 41 167 11 0 17 5 14 10 -7 12 -195 14
-195 2z"/>
<path d="M2395 811 c-69 -43 -95 -91 -95 -179 0 -69 21 -115 73 -156 33 -27
48 -31 110 -34 65 -3 76 -1 114 24 119 78 121 261 4 335 -38 24 -55 29 -110
29 -47 0 -75 -5 -96 -19z m165 -51 c21 -38 25 -58 25 -125 0 -129 -48 -196
-122 -169 -77 27 -96 244 -27 319 19 21 32 26 61 23 33 -3 41 -9 63 -48z"/>
<path d="M2825 811 c-91 -55 -128 -165 -86 -256 18 -41 81 -105 104 -105 7 -1
21 -15 32 -33 31 -49 78 -69 153 -64 71 5 112 27 50 27 -25 0 -47 8 -67 26
-37 31 -39 40 -8 48 56 14 116 108 117 181 0 56 -37 123 -88 162 -39 30 -50
33 -110 33 -48 0 -76 -5 -97 -19z m149 -25 c69 -68 50 -294 -26 -320 -75 -26
-121 38 -121 168 1 122 29 176 90 176 22 0 42 -8 57 -24z"/>
<path d="M3140 820 c0 -5 4 -10 9 -10 5 0 17 -7 25 -16 13 -12 16 -41 16 -148
0 -131 0 -132 29 -166 29 -35 30 -35 111 -35 80 0 82 1 111 33 28 32 29 35 29
146 0 137 6 173 31 181 38 12 18 25 -39 25 -70 0 -84 -9 -41 -27 l31 -13 -4
-136 c-3 -135 -3 -136 -31 -160 -35 -30 -89 -32 -117 -4 -19 19 -20 31 -18
168 3 144 3 147 26 150 12 2 22 8 22 13 0 5 -43 9 -95 9 -57 0 -95 -4 -95 -10z"/>
<path d="M3530 820 c0 -5 4 -10 9 -10 5 0 17 -7 25 -16 13 -12 16 -41 16 -154
0 -152 -3 -170 -31 -170 -10 0 -19 -4 -19 -10 0 -6 38 -10 95 -10 57 0 95 4
95 10 0 6 -9 10 -19 10 -28 0 -31 18 -31 170 0 113 3 142 16 154 8 9 20 16 25
16 5 0 9 5 9 10 0 6 -38 10 -95 10 -57 0 -95 -4 -95 -10z"/>
<path d="M3890 805 c-5 -14 -10 -32 -10 -39 0 -6 -4 -16 -9 -21 -5 -6 -30 -64
-57 -130 -27 -66 -57 -128 -66 -137 -10 -10 -18 -20 -18 -23 0 -3 25 -5 55 -5
30 0 55 5 55 10 0 6 -9 10 -20 10 -23 0 -25 13 -9 59 11 30 13 31 70 31 47 0
60 -4 69 -19 15 -30 13 -71 -5 -71 -8 0 -15 -4 -15 -10 0 -6 37 -10 93 -10 89
0 91 1 69 18 -13 10 -52 86 -95 187 -41 93 -79 171 -85 173 -7 2 -16 -8 -22
-23z m12 -148 c34 -83 35 -77 -16 -77 -27 0 -46 5 -46 11 0 17 34 109 40 109
3 0 13 -19 22 -43z"/>
<path d="M1520 185 c-14 -8 -19 -14 -12 -15 8 0 12 -22 12 -74 0 -50 -4 -76
-12 -79 -7 -3 1 -6 17 -6 l30 -1 -3 67 c-5 128 -4 124 -32 108z"/>
<path d="M1839 181 c-24 -20 -24 -20 -6 -52 16 -29 16 -33 1 -50 -21 -24 -15
-50 18 -68 38 -22 78 -2 78 38 0 23 -10 38 -40 62 -44 35 -51 64 -19 72 23 6
34 -12 26 -43 -7 -26 9 -26 23 1 9 16 8 25 -6 40 -22 24 -46 24 -75 0z m51
-104 c21 -16 19 -67 -2 -63 -25 3 -38 17 -38 40 0 36 14 44 40 23z"/>
<path d="M2188 189 c-45 -25 -42 -155 3 -180 49 -26 89 15 89 92 0 78 -41 118
-92 88z m46 -15 c16 -16 22 -105 10 -138 -8 -21 -40 -21 -48 0 -11 28 -6 130
6 142 15 15 13 15 32 -4z"/>
<path d="M2527 182 c-22 -24 -22 -39 -1 -17 9 9 24 15 33 13 24 -5 25 -35 2
-54 -20 -18 -20 -18 2 -29 15 -7 22 -20 22 -40 0 -28 -3 -30 -37 -30 -44 0
-60 -12 -26 -20 33 -8 77 10 87 37 9 26 5 45 -17 71 -8 9 -10 17 -5 17 20 0
24 33 7 51 -22 24 -46 24 -67 1z"/>
</g>
</svg>
